; NON-PLATED HOLES START AT T1
; THROUGH (PLATED) HOLES START AT T100
M48
INCH
T100C0.038000
T101C0.035000
%
T100
X013729Y003723
X025729Y002723
X020729Y007723
X018729Y003723
X025729Y007723
X025729Y008723
X010729Y004723
X025729Y009723
X000729Y010723
X018729Y009723
X000729Y006723
X013729Y005723
X020729Y008723
X010729Y008723
X013729Y006723
X013729Y009723
X010729Y009723
X010729Y003723
X025729Y010723
X009729Y010723
X000729Y009723
X000729Y004723
X000729Y005723
X009729Y009723
X012729Y003723
X020729Y003723
X009729Y004723
X009729Y008723
X000729Y003723
X025729Y004723
X018729Y006723
X009729Y007723
X010729Y010723
X018729Y004723
X013729Y010723
X025729Y005723
X010729Y006723
X020729Y005723
X020729Y004723
X013729Y002723
X010729Y005723
X025729Y003723
X018729Y008723
X013729Y007723
X009729Y003723
X009729Y006723
X018729Y010723
X018729Y007723
X000729Y007723
X013729Y011723
X000729Y008723
X011729Y003723
X025729Y006723
X020729Y009723
X009729Y005723
X013729Y004723
X020729Y002723
X018729Y005723
X010729Y007723
X013729Y008723
X020729Y010723
X018729Y011723
X025729Y011723
X020729Y006723
X020729Y011723
X018729Y002723
T101
X021729Y010723
X024729Y008723
X017729Y006723
X014729Y005723
X021729Y005723
X024729Y011723
X014729Y006723
X014729Y008723
X021729Y006723
X017729Y004723
X014729Y011723
X021729Y008723
X021729Y003723
X021729Y007723
X014729Y003723
X017729Y009723
X014729Y004723
X014729Y002723
X017729Y002723
X014729Y007723
X024729Y007723
X017729Y007723
X021729Y011723
X017729Y010723
X024729Y005723
X024729Y010723
X024729Y004723
X024729Y003723
X017729Y003723
X024729Y009723
X024729Y002723
X024729Y006723
X017729Y008723
X014729Y009723
X017729Y005723
X021729Y002723
X017729Y011723
X021729Y004723
X021729Y009723
X014729Y010723
T00
M30
