G04 MADE WITH FRITZING*
G04 WWW.FRITZING.ORG*
G04 DOUBLE SIDED*
G04 HOLES PLATED*
G04 CONTOUR ON CENTER OF CONTOUR VECTOR*
%ASAXBY*%
%FSLAX23Y23*%
%MOIN*%
%OFA0B0*%
%SFA1.0B1.0*%
%ADD10C,0.075000*%
%ADD11C,0.078000*%
%ADD12R,0.075000X0.075000*%
%ADD13C,0.024000*%
%LNCOPPER0*%
G90*
G70*
G54D10*
X1473Y972D03*
X1773Y972D03*
X1473Y872D03*
X1773Y872D03*
X1473Y772D03*
X1773Y772D03*
X1473Y672D03*
X1773Y672D03*
X1473Y572D03*
X1773Y572D03*
X1473Y472D03*
X1773Y472D03*
X1473Y372D03*
X1773Y372D03*
X1473Y272D03*
X1773Y272D03*
X2173Y972D03*
X2473Y972D03*
X2173Y872D03*
X2473Y872D03*
X2173Y772D03*
X2473Y772D03*
X2173Y672D03*
X2473Y672D03*
X2173Y572D03*
X2473Y572D03*
X2173Y472D03*
X2473Y472D03*
X2173Y372D03*
X2473Y372D03*
X2173Y272D03*
X2473Y272D03*
G54D11*
X73Y1072D03*
X73Y972D03*
X73Y872D03*
X73Y772D03*
X73Y672D03*
X73Y572D03*
X73Y472D03*
X73Y372D03*
X973Y1072D03*
X973Y972D03*
X973Y872D03*
X973Y772D03*
X973Y672D03*
X973Y572D03*
X973Y472D03*
X973Y372D03*
X1273Y372D03*
X1173Y372D03*
X1073Y1072D03*
X1073Y972D03*
X1073Y872D03*
X1073Y772D03*
X1073Y672D03*
X1073Y572D03*
X1073Y472D03*
X1073Y372D03*
X1373Y1172D03*
X1373Y1072D03*
X1373Y972D03*
X1373Y872D03*
X1373Y772D03*
X1373Y672D03*
X1373Y572D03*
X1373Y472D03*
X1373Y372D03*
X1373Y272D03*
X1873Y1172D03*
X1873Y1072D03*
X1873Y972D03*
X1873Y872D03*
X1873Y772D03*
X1873Y672D03*
X1873Y572D03*
X1873Y472D03*
X1873Y372D03*
X1873Y272D03*
X2073Y1172D03*
X2073Y1072D03*
X2073Y972D03*
X2073Y872D03*
X2073Y772D03*
X2073Y672D03*
X2073Y572D03*
X2073Y472D03*
X2073Y372D03*
X2073Y272D03*
X2573Y1172D03*
X2573Y1072D03*
X2573Y972D03*
X2573Y872D03*
X2573Y772D03*
X2573Y672D03*
X2573Y572D03*
X2573Y472D03*
X2573Y372D03*
X2573Y272D03*
G54D10*
X2173Y1172D03*
X2473Y1172D03*
X2173Y1072D03*
X2473Y1072D03*
X1473Y1172D03*
X1773Y1172D03*
X1473Y1072D03*
X1773Y1072D03*
G54D12*
X1473Y972D03*
X2173Y972D03*
X2173Y1172D03*
X1473Y1172D03*
G54D13*
X2543Y1172D02*
X2502Y1172D01*
D02*
X2543Y1072D02*
X2502Y1072D01*
D02*
X2543Y972D02*
X2502Y972D01*
D02*
X2543Y872D02*
X2502Y872D01*
D02*
X2543Y772D02*
X2502Y772D01*
D02*
X2543Y672D02*
X2502Y672D01*
D02*
X2543Y572D02*
X2502Y572D01*
D02*
X2543Y472D02*
X2502Y472D01*
D02*
X2543Y372D02*
X2502Y372D01*
D02*
X2543Y272D02*
X2502Y272D01*
D02*
X2103Y1172D02*
X2144Y1172D01*
D02*
X2103Y1072D02*
X2144Y1072D01*
D02*
X2103Y972D02*
X2144Y972D01*
D02*
X2103Y872D02*
X2144Y872D01*
D02*
X2103Y772D02*
X2144Y772D01*
D02*
X2103Y672D02*
X2144Y672D01*
D02*
X2103Y572D02*
X2144Y572D01*
D02*
X2103Y472D02*
X2144Y472D01*
D02*
X2103Y372D02*
X2144Y372D01*
D02*
X2103Y272D02*
X2144Y272D01*
D02*
X1843Y1172D02*
X1802Y1172D01*
D02*
X1843Y1072D02*
X1802Y1072D01*
D02*
X1843Y972D02*
X1802Y972D01*
D02*
X1843Y872D02*
X1802Y872D01*
D02*
X1843Y772D02*
X1802Y772D01*
D02*
X1843Y672D02*
X1802Y672D01*
D02*
X1843Y572D02*
X1802Y572D01*
D02*
X1843Y472D02*
X1802Y472D01*
D02*
X1843Y372D02*
X1802Y372D01*
D02*
X1843Y272D02*
X1802Y272D01*
D02*
X1403Y1172D02*
X1444Y1172D01*
D02*
X1403Y1072D02*
X1444Y1072D01*
D02*
X1403Y972D02*
X1444Y972D01*
D02*
X1403Y772D02*
X1444Y772D01*
D02*
X1403Y672D02*
X1444Y672D01*
D02*
X1403Y572D02*
X1444Y572D01*
D02*
X1403Y472D02*
X1444Y472D01*
D02*
X1403Y372D02*
X1444Y372D01*
D02*
X1403Y272D02*
X1444Y272D01*
D02*
X1744Y672D02*
X1502Y672D01*
D02*
X1744Y572D02*
X1502Y572D01*
D02*
X2043Y672D02*
X1903Y672D01*
D02*
X2043Y572D02*
X1903Y572D01*
D02*
X2444Y672D02*
X2202Y672D01*
D02*
X2444Y572D02*
X2202Y572D01*
D02*
X1343Y572D02*
X1273Y572D01*
D02*
X1173Y472D02*
X1103Y472D01*
D02*
X1273Y572D02*
X1173Y472D01*
D02*
X1444Y872D02*
X1403Y872D01*
D02*
X2202Y372D02*
X2444Y372D01*
D02*
X1903Y372D02*
X2043Y372D01*
D02*
X1502Y372D02*
X1744Y372D01*
D02*
X1303Y372D02*
X1343Y372D01*
D02*
X1143Y372D02*
X1103Y372D01*
D02*
X1173Y1072D02*
X1103Y1072D01*
D02*
X1273Y1172D02*
X1173Y1072D01*
D02*
X1343Y1172D02*
X1273Y1172D01*
D02*
X1343Y972D02*
X1103Y972D01*
D02*
X1043Y1072D02*
X1003Y1072D01*
D02*
X1043Y972D02*
X1003Y972D01*
D02*
X1043Y872D02*
X1003Y872D01*
D02*
X1043Y772D02*
X1003Y772D01*
D02*
X1043Y672D02*
X1003Y672D01*
D02*
X1043Y572D02*
X1003Y572D01*
D02*
X1043Y472D02*
X1003Y472D01*
D02*
X1043Y372D02*
X1003Y372D01*
D02*
X673Y1172D02*
X873Y1372D01*
D02*
X673Y972D02*
X673Y1172D01*
D02*
X873Y772D02*
X673Y972D01*
D02*
X873Y1372D02*
X2273Y1372D01*
D02*
X2273Y972D02*
X2202Y972D01*
D02*
X943Y772D02*
X873Y772D01*
D02*
X2273Y1372D02*
X2373Y1272D01*
D02*
X2373Y1072D02*
X2273Y972D01*
D02*
X2373Y1272D02*
X2373Y1072D01*
D02*
X773Y972D02*
X773Y1172D01*
D02*
X773Y1172D02*
X873Y1272D01*
D02*
X873Y1272D02*
X1973Y1272D01*
D02*
X873Y872D02*
X773Y972D01*
D02*
X943Y872D02*
X873Y872D01*
D02*
X1973Y1272D02*
X2052Y1194D01*
D02*
X673Y272D02*
X873Y72D01*
D02*
X673Y472D02*
X673Y272D01*
D02*
X2273Y72D02*
X2373Y172D01*
D02*
X2373Y172D02*
X2453Y252D01*
D02*
X873Y672D02*
X673Y472D01*
D02*
X943Y672D02*
X873Y672D01*
D02*
X873Y72D02*
X2273Y72D01*
D02*
X873Y172D02*
X1673Y172D01*
D02*
X773Y272D02*
X873Y172D01*
D02*
X873Y572D02*
X773Y472D01*
D02*
X1673Y172D02*
X1753Y252D01*
D02*
X943Y572D02*
X873Y572D01*
D02*
X773Y472D02*
X773Y272D01*
G04 End of Copper0*
M02*