G04 MADE WITH FRITZING*
G04 WWW.FRITZING.ORG*
G04 DOUBLE SIDED*
G04 HOLES PLATED*
G04 CONTOUR ON CENTER OF CONTOUR VECTOR*
%ASAXBY*%
%FSLAX23Y23*%
%MOIN*%
%OFA0B0*%
%SFA1.0B1.0*%
%ADD10C,0.010000*%
%ADD11C,0.005000*%
%ADD12C,0.009799*%
%ADD13R,0.001000X0.001000*%
%LNSILK1*%
G90*
G70*
G54D10*
X1823Y1222D02*
X1823Y222D01*
D02*
X1823Y222D02*
X1923Y222D01*
D02*
X1923Y222D02*
X1923Y1222D01*
D02*
X1923Y1222D02*
X1823Y1222D01*
D02*
X1323Y1222D02*
X1323Y222D01*
D02*
X1323Y222D02*
X1423Y222D01*
D02*
X1423Y222D02*
X1423Y1222D01*
D02*
X1423Y1222D02*
X1323Y1222D01*
D02*
X2023Y1222D02*
X2023Y222D01*
D02*
X2023Y222D02*
X2123Y222D01*
D02*
X2123Y222D02*
X2123Y1222D01*
D02*
X2123Y1222D02*
X2023Y1222D01*
D02*
X2523Y1222D02*
X2523Y222D01*
D02*
X2523Y222D02*
X2623Y222D01*
D02*
X2623Y222D02*
X2623Y1222D01*
D02*
X2623Y1222D02*
X2523Y1222D01*
G54D11*
D02*
X2523Y1187D02*
X2558Y1222D01*
G54D12*
D02*
X2523Y1037D02*
X2523Y1214D01*
D02*
X1823Y1037D02*
X1823Y1214D01*
G54D10*
D02*
X1023Y1122D02*
X1023Y322D01*
D02*
X1023Y322D02*
X1123Y322D01*
D02*
X1123Y322D02*
X1123Y1122D01*
D02*
X1123Y1122D02*
X1023Y1122D01*
D02*
X1423Y1022D02*
X1423Y222D01*
D02*
X1423Y222D02*
X1823Y222D01*
D02*
X1823Y222D02*
X1823Y1022D01*
D02*
X1423Y1022D02*
X1573Y1022D01*
D02*
X1673Y1022D02*
X1823Y1022D01*
D02*
X2123Y1022D02*
X2123Y222D01*
D02*
X2123Y222D02*
X2523Y222D01*
D02*
X2523Y222D02*
X2523Y1022D01*
D02*
X2123Y1022D02*
X2273Y1022D01*
D02*
X2373Y1022D02*
X2523Y1022D01*
D02*
X1323Y422D02*
X1123Y422D01*
D02*
X1123Y422D02*
X1123Y322D01*
D02*
X1123Y322D02*
X1323Y322D01*
D02*
X1323Y322D02*
X1323Y422D01*
G54D11*
D02*
X1288Y422D02*
X1323Y387D01*
G54D10*
D02*
X23Y1122D02*
X23Y322D01*
D02*
X23Y322D02*
X123Y322D01*
D02*
X123Y322D02*
X123Y1122D01*
D02*
X123Y1122D02*
X23Y1122D01*
D02*
X923Y1122D02*
X923Y322D01*
D02*
X923Y322D02*
X1023Y322D01*
D02*
X1023Y322D02*
X1023Y1122D01*
D02*
X1023Y1122D02*
X923Y1122D01*
G54D13*
X0Y1457D02*
X2636Y1457D01*
X0Y1456D02*
X2636Y1456D01*
X0Y1455D02*
X2636Y1455D01*
X0Y1454D02*
X2636Y1454D01*
X0Y1453D02*
X2636Y1453D01*
X0Y1452D02*
X2636Y1452D01*
X0Y1451D02*
X2636Y1451D01*
X0Y1450D02*
X2636Y1450D01*
X0Y1449D02*
X7Y1449D01*
X2629Y1449D02*
X2636Y1449D01*
X0Y1448D02*
X7Y1448D01*
X2629Y1448D02*
X2636Y1448D01*
X0Y1447D02*
X7Y1447D01*
X2629Y1447D02*
X2636Y1447D01*
X0Y1446D02*
X7Y1446D01*
X2629Y1446D02*
X2636Y1446D01*
X0Y1445D02*
X7Y1445D01*
X2629Y1445D02*
X2636Y1445D01*
X0Y1444D02*
X7Y1444D01*
X2629Y1444D02*
X2636Y1444D01*
X0Y1443D02*
X7Y1443D01*
X2629Y1443D02*
X2636Y1443D01*
X0Y1442D02*
X7Y1442D01*
X2629Y1442D02*
X2636Y1442D01*
X0Y1441D02*
X7Y1441D01*
X2629Y1441D02*
X2636Y1441D01*
X0Y1440D02*
X7Y1440D01*
X2629Y1440D02*
X2636Y1440D01*
X0Y1439D02*
X7Y1439D01*
X2629Y1439D02*
X2636Y1439D01*
X0Y1438D02*
X7Y1438D01*
X2629Y1438D02*
X2636Y1438D01*
X0Y1437D02*
X7Y1437D01*
X2629Y1437D02*
X2636Y1437D01*
X0Y1436D02*
X7Y1436D01*
X2629Y1436D02*
X2636Y1436D01*
X0Y1435D02*
X7Y1435D01*
X2629Y1435D02*
X2636Y1435D01*
X0Y1434D02*
X7Y1434D01*
X2629Y1434D02*
X2636Y1434D01*
X0Y1433D02*
X7Y1433D01*
X2629Y1433D02*
X2636Y1433D01*
X0Y1432D02*
X7Y1432D01*
X2629Y1432D02*
X2636Y1432D01*
X0Y1431D02*
X7Y1431D01*
X2629Y1431D02*
X2636Y1431D01*
X0Y1430D02*
X7Y1430D01*
X2629Y1430D02*
X2636Y1430D01*
X0Y1429D02*
X7Y1429D01*
X2629Y1429D02*
X2636Y1429D01*
X0Y1428D02*
X7Y1428D01*
X2629Y1428D02*
X2636Y1428D01*
X0Y1427D02*
X7Y1427D01*
X2629Y1427D02*
X2636Y1427D01*
X0Y1426D02*
X7Y1426D01*
X2629Y1426D02*
X2636Y1426D01*
X0Y1425D02*
X7Y1425D01*
X2629Y1425D02*
X2636Y1425D01*
X0Y1424D02*
X7Y1424D01*
X2629Y1424D02*
X2636Y1424D01*
X0Y1423D02*
X7Y1423D01*
X2629Y1423D02*
X2636Y1423D01*
X0Y1422D02*
X7Y1422D01*
X2629Y1422D02*
X2636Y1422D01*
X0Y1421D02*
X7Y1421D01*
X2629Y1421D02*
X2636Y1421D01*
X0Y1420D02*
X7Y1420D01*
X2629Y1420D02*
X2636Y1420D01*
X0Y1419D02*
X7Y1419D01*
X2629Y1419D02*
X2636Y1419D01*
X0Y1418D02*
X7Y1418D01*
X2629Y1418D02*
X2636Y1418D01*
X0Y1417D02*
X7Y1417D01*
X2629Y1417D02*
X2636Y1417D01*
X0Y1416D02*
X7Y1416D01*
X2629Y1416D02*
X2636Y1416D01*
X0Y1415D02*
X7Y1415D01*
X2629Y1415D02*
X2636Y1415D01*
X0Y1414D02*
X7Y1414D01*
X2629Y1414D02*
X2636Y1414D01*
X0Y1413D02*
X7Y1413D01*
X2629Y1413D02*
X2636Y1413D01*
X0Y1412D02*
X7Y1412D01*
X2629Y1412D02*
X2636Y1412D01*
X0Y1411D02*
X7Y1411D01*
X2629Y1411D02*
X2636Y1411D01*
X0Y1410D02*
X7Y1410D01*
X2629Y1410D02*
X2636Y1410D01*
X0Y1409D02*
X7Y1409D01*
X2629Y1409D02*
X2636Y1409D01*
X0Y1408D02*
X7Y1408D01*
X2629Y1408D02*
X2636Y1408D01*
X0Y1407D02*
X7Y1407D01*
X2629Y1407D02*
X2636Y1407D01*
X0Y1406D02*
X7Y1406D01*
X2629Y1406D02*
X2636Y1406D01*
X0Y1405D02*
X7Y1405D01*
X2629Y1405D02*
X2636Y1405D01*
X0Y1404D02*
X7Y1404D01*
X2629Y1404D02*
X2636Y1404D01*
X0Y1403D02*
X7Y1403D01*
X2629Y1403D02*
X2636Y1403D01*
X0Y1402D02*
X7Y1402D01*
X2629Y1402D02*
X2636Y1402D01*
X0Y1401D02*
X7Y1401D01*
X2629Y1401D02*
X2636Y1401D01*
X0Y1400D02*
X7Y1400D01*
X2629Y1400D02*
X2636Y1400D01*
X0Y1399D02*
X7Y1399D01*
X2629Y1399D02*
X2636Y1399D01*
X0Y1398D02*
X7Y1398D01*
X2629Y1398D02*
X2636Y1398D01*
X0Y1397D02*
X7Y1397D01*
X2629Y1397D02*
X2636Y1397D01*
X0Y1396D02*
X7Y1396D01*
X2629Y1396D02*
X2636Y1396D01*
X0Y1395D02*
X7Y1395D01*
X2629Y1395D02*
X2636Y1395D01*
X0Y1394D02*
X7Y1394D01*
X2629Y1394D02*
X2636Y1394D01*
X0Y1393D02*
X7Y1393D01*
X2629Y1393D02*
X2636Y1393D01*
X0Y1392D02*
X7Y1392D01*
X2629Y1392D02*
X2636Y1392D01*
X0Y1391D02*
X7Y1391D01*
X2629Y1391D02*
X2636Y1391D01*
X0Y1390D02*
X7Y1390D01*
X2629Y1390D02*
X2636Y1390D01*
X0Y1389D02*
X7Y1389D01*
X2629Y1389D02*
X2636Y1389D01*
X0Y1388D02*
X7Y1388D01*
X2629Y1388D02*
X2636Y1388D01*
X0Y1387D02*
X7Y1387D01*
X2629Y1387D02*
X2636Y1387D01*
X0Y1386D02*
X7Y1386D01*
X2629Y1386D02*
X2636Y1386D01*
X0Y1385D02*
X7Y1385D01*
X2629Y1385D02*
X2636Y1385D01*
X0Y1384D02*
X7Y1384D01*
X2629Y1384D02*
X2636Y1384D01*
X0Y1383D02*
X7Y1383D01*
X2629Y1383D02*
X2636Y1383D01*
X0Y1382D02*
X7Y1382D01*
X2629Y1382D02*
X2636Y1382D01*
X0Y1381D02*
X7Y1381D01*
X2629Y1381D02*
X2636Y1381D01*
X0Y1380D02*
X7Y1380D01*
X2629Y1380D02*
X2636Y1380D01*
X0Y1379D02*
X7Y1379D01*
X2629Y1379D02*
X2636Y1379D01*
X0Y1378D02*
X7Y1378D01*
X2629Y1378D02*
X2636Y1378D01*
X0Y1377D02*
X7Y1377D01*
X2629Y1377D02*
X2636Y1377D01*
X0Y1376D02*
X7Y1376D01*
X2629Y1376D02*
X2636Y1376D01*
X0Y1375D02*
X7Y1375D01*
X2629Y1375D02*
X2636Y1375D01*
X0Y1374D02*
X7Y1374D01*
X2629Y1374D02*
X2636Y1374D01*
X0Y1373D02*
X7Y1373D01*
X2629Y1373D02*
X2636Y1373D01*
X0Y1372D02*
X7Y1372D01*
X2629Y1372D02*
X2636Y1372D01*
X0Y1371D02*
X7Y1371D01*
X2629Y1371D02*
X2636Y1371D01*
X0Y1370D02*
X7Y1370D01*
X2629Y1370D02*
X2636Y1370D01*
X0Y1369D02*
X7Y1369D01*
X2629Y1369D02*
X2636Y1369D01*
X0Y1368D02*
X7Y1368D01*
X2629Y1368D02*
X2636Y1368D01*
X0Y1367D02*
X7Y1367D01*
X2629Y1367D02*
X2636Y1367D01*
X0Y1366D02*
X7Y1366D01*
X2629Y1366D02*
X2636Y1366D01*
X0Y1365D02*
X7Y1365D01*
X2629Y1365D02*
X2636Y1365D01*
X0Y1364D02*
X7Y1364D01*
X2629Y1364D02*
X2636Y1364D01*
X0Y1363D02*
X7Y1363D01*
X2629Y1363D02*
X2636Y1363D01*
X0Y1362D02*
X7Y1362D01*
X2629Y1362D02*
X2636Y1362D01*
X0Y1361D02*
X7Y1361D01*
X2629Y1361D02*
X2636Y1361D01*
X0Y1360D02*
X7Y1360D01*
X2629Y1360D02*
X2636Y1360D01*
X0Y1359D02*
X7Y1359D01*
X2629Y1359D02*
X2636Y1359D01*
X0Y1358D02*
X7Y1358D01*
X2629Y1358D02*
X2636Y1358D01*
X0Y1357D02*
X7Y1357D01*
X2629Y1357D02*
X2636Y1357D01*
X0Y1356D02*
X7Y1356D01*
X2629Y1356D02*
X2636Y1356D01*
X0Y1355D02*
X7Y1355D01*
X2629Y1355D02*
X2636Y1355D01*
X0Y1354D02*
X7Y1354D01*
X2629Y1354D02*
X2636Y1354D01*
X0Y1353D02*
X7Y1353D01*
X2629Y1353D02*
X2636Y1353D01*
X0Y1352D02*
X7Y1352D01*
X2629Y1352D02*
X2636Y1352D01*
X0Y1351D02*
X7Y1351D01*
X2629Y1351D02*
X2636Y1351D01*
X0Y1350D02*
X7Y1350D01*
X2629Y1350D02*
X2636Y1350D01*
X0Y1349D02*
X7Y1349D01*
X2629Y1349D02*
X2636Y1349D01*
X0Y1348D02*
X7Y1348D01*
X2629Y1348D02*
X2636Y1348D01*
X0Y1347D02*
X7Y1347D01*
X2629Y1347D02*
X2636Y1347D01*
X0Y1346D02*
X7Y1346D01*
X2629Y1346D02*
X2636Y1346D01*
X0Y1345D02*
X7Y1345D01*
X2629Y1345D02*
X2636Y1345D01*
X0Y1344D02*
X7Y1344D01*
X2629Y1344D02*
X2636Y1344D01*
X0Y1343D02*
X7Y1343D01*
X2629Y1343D02*
X2636Y1343D01*
X0Y1342D02*
X7Y1342D01*
X2629Y1342D02*
X2636Y1342D01*
X0Y1341D02*
X7Y1341D01*
X2629Y1341D02*
X2636Y1341D01*
X0Y1340D02*
X7Y1340D01*
X2629Y1340D02*
X2636Y1340D01*
X0Y1339D02*
X7Y1339D01*
X2629Y1339D02*
X2636Y1339D01*
X0Y1338D02*
X7Y1338D01*
X2629Y1338D02*
X2636Y1338D01*
X0Y1337D02*
X7Y1337D01*
X2629Y1337D02*
X2636Y1337D01*
X0Y1336D02*
X7Y1336D01*
X2629Y1336D02*
X2636Y1336D01*
X0Y1335D02*
X7Y1335D01*
X2629Y1335D02*
X2636Y1335D01*
X0Y1334D02*
X7Y1334D01*
X2629Y1334D02*
X2636Y1334D01*
X0Y1333D02*
X7Y1333D01*
X2629Y1333D02*
X2636Y1333D01*
X0Y1332D02*
X7Y1332D01*
X2629Y1332D02*
X2636Y1332D01*
X0Y1331D02*
X7Y1331D01*
X2629Y1331D02*
X2636Y1331D01*
X0Y1330D02*
X7Y1330D01*
X2629Y1330D02*
X2636Y1330D01*
X0Y1329D02*
X7Y1329D01*
X2629Y1329D02*
X2636Y1329D01*
X0Y1328D02*
X7Y1328D01*
X2629Y1328D02*
X2636Y1328D01*
X0Y1327D02*
X7Y1327D01*
X2629Y1327D02*
X2636Y1327D01*
X0Y1326D02*
X7Y1326D01*
X2629Y1326D02*
X2636Y1326D01*
X0Y1325D02*
X7Y1325D01*
X2629Y1325D02*
X2636Y1325D01*
X0Y1324D02*
X7Y1324D01*
X2629Y1324D02*
X2636Y1324D01*
X0Y1323D02*
X7Y1323D01*
X1503Y1323D02*
X1528Y1323D01*
X1977Y1323D02*
X1977Y1323D01*
X2003Y1323D02*
X2020Y1323D01*
X2177Y1323D02*
X2177Y1323D01*
X2203Y1323D02*
X2227Y1323D01*
X2629Y1323D02*
X2636Y1323D01*
X0Y1322D02*
X7Y1322D01*
X1476Y1322D02*
X1479Y1322D01*
X1501Y1322D02*
X1530Y1322D01*
X1975Y1322D02*
X1979Y1322D01*
X2001Y1322D02*
X2020Y1322D01*
X2175Y1322D02*
X2179Y1322D01*
X2201Y1322D02*
X2230Y1322D01*
X2629Y1322D02*
X2636Y1322D01*
X0Y1321D02*
X7Y1321D01*
X1475Y1321D02*
X1480Y1321D01*
X1501Y1321D02*
X1532Y1321D01*
X1975Y1321D02*
X1980Y1321D01*
X2001Y1321D02*
X2020Y1321D01*
X2175Y1321D02*
X2180Y1321D01*
X2200Y1321D02*
X2232Y1321D01*
X2629Y1321D02*
X2636Y1321D01*
X0Y1320D02*
X7Y1320D01*
X1475Y1320D02*
X1480Y1320D01*
X1500Y1320D02*
X1533Y1320D01*
X1974Y1320D02*
X1980Y1320D01*
X2000Y1320D02*
X2020Y1320D01*
X2174Y1320D02*
X2180Y1320D01*
X2200Y1320D02*
X2232Y1320D01*
X2629Y1320D02*
X2636Y1320D01*
X0Y1319D02*
X7Y1319D01*
X1474Y1319D02*
X1480Y1319D01*
X1500Y1319D02*
X1533Y1319D01*
X1974Y1319D02*
X1980Y1319D01*
X2000Y1319D02*
X2020Y1319D01*
X2174Y1319D02*
X2180Y1319D01*
X2200Y1319D02*
X2233Y1319D01*
X2629Y1319D02*
X2636Y1319D01*
X0Y1318D02*
X7Y1318D01*
X1474Y1318D02*
X1480Y1318D01*
X1501Y1318D02*
X1534Y1318D01*
X1974Y1318D02*
X1980Y1318D01*
X2001Y1318D02*
X2020Y1318D01*
X2174Y1318D02*
X2180Y1318D01*
X2201Y1318D02*
X2233Y1318D01*
X2629Y1318D02*
X2636Y1318D01*
X0Y1317D02*
X7Y1317D01*
X1474Y1317D02*
X1480Y1317D01*
X1502Y1317D02*
X1534Y1317D01*
X1974Y1317D02*
X1980Y1317D01*
X2001Y1317D02*
X2020Y1317D01*
X2174Y1317D02*
X2180Y1317D01*
X2201Y1317D02*
X2234Y1317D01*
X2629Y1317D02*
X2636Y1317D01*
X0Y1316D02*
X7Y1316D01*
X1474Y1316D02*
X1480Y1316D01*
X1527Y1316D02*
X1534Y1316D01*
X1974Y1316D02*
X1980Y1316D01*
X2014Y1316D02*
X2020Y1316D01*
X2174Y1316D02*
X2180Y1316D01*
X2227Y1316D02*
X2234Y1316D01*
X2629Y1316D02*
X2636Y1316D01*
X0Y1315D02*
X7Y1315D01*
X1474Y1315D02*
X1480Y1315D01*
X1528Y1315D02*
X1534Y1315D01*
X1974Y1315D02*
X1980Y1315D01*
X2014Y1315D02*
X2020Y1315D01*
X2174Y1315D02*
X2180Y1315D01*
X2228Y1315D02*
X2234Y1315D01*
X2629Y1315D02*
X2636Y1315D01*
X0Y1314D02*
X7Y1314D01*
X1474Y1314D02*
X1480Y1314D01*
X1528Y1314D02*
X1534Y1314D01*
X1974Y1314D02*
X1980Y1314D01*
X2014Y1314D02*
X2020Y1314D01*
X2174Y1314D02*
X2180Y1314D01*
X2228Y1314D02*
X2234Y1314D01*
X2629Y1314D02*
X2636Y1314D01*
X0Y1313D02*
X7Y1313D01*
X1474Y1313D02*
X1480Y1313D01*
X1528Y1313D02*
X1534Y1313D01*
X1974Y1313D02*
X1980Y1313D01*
X2014Y1313D02*
X2020Y1313D01*
X2174Y1313D02*
X2180Y1313D01*
X2228Y1313D02*
X2234Y1313D01*
X2629Y1313D02*
X2636Y1313D01*
X0Y1312D02*
X7Y1312D01*
X1474Y1312D02*
X1480Y1312D01*
X1528Y1312D02*
X1534Y1312D01*
X1974Y1312D02*
X1980Y1312D01*
X2014Y1312D02*
X2020Y1312D01*
X2174Y1312D02*
X2180Y1312D01*
X2228Y1312D02*
X2234Y1312D01*
X2629Y1312D02*
X2636Y1312D01*
X0Y1311D02*
X7Y1311D01*
X1474Y1311D02*
X1480Y1311D01*
X1528Y1311D02*
X1534Y1311D01*
X1974Y1311D02*
X1980Y1311D01*
X2014Y1311D02*
X2020Y1311D01*
X2174Y1311D02*
X2180Y1311D01*
X2228Y1311D02*
X2234Y1311D01*
X2629Y1311D02*
X2636Y1311D01*
X0Y1310D02*
X7Y1310D01*
X1474Y1310D02*
X1480Y1310D01*
X1528Y1310D02*
X1534Y1310D01*
X1974Y1310D02*
X1980Y1310D01*
X2014Y1310D02*
X2020Y1310D01*
X2174Y1310D02*
X2180Y1310D01*
X2228Y1310D02*
X2234Y1310D01*
X2629Y1310D02*
X2636Y1310D01*
X0Y1309D02*
X7Y1309D01*
X1474Y1309D02*
X1480Y1309D01*
X1528Y1309D02*
X1534Y1309D01*
X1974Y1309D02*
X1980Y1309D01*
X2014Y1309D02*
X2020Y1309D01*
X2174Y1309D02*
X2180Y1309D01*
X2228Y1309D02*
X2234Y1309D01*
X2629Y1309D02*
X2636Y1309D01*
X0Y1308D02*
X7Y1308D01*
X1474Y1308D02*
X1480Y1308D01*
X1528Y1308D02*
X1534Y1308D01*
X1974Y1308D02*
X1980Y1308D01*
X2014Y1308D02*
X2020Y1308D01*
X2174Y1308D02*
X2180Y1308D01*
X2228Y1308D02*
X2234Y1308D01*
X2629Y1308D02*
X2636Y1308D01*
X0Y1307D02*
X7Y1307D01*
X1474Y1307D02*
X1480Y1307D01*
X1528Y1307D02*
X1534Y1307D01*
X1837Y1307D02*
X1837Y1307D01*
X1865Y1307D02*
X1865Y1307D01*
X1887Y1307D02*
X1912Y1307D01*
X1974Y1307D02*
X1980Y1307D01*
X2014Y1307D02*
X2020Y1307D01*
X2174Y1307D02*
X2180Y1307D01*
X2228Y1307D02*
X2234Y1307D01*
X2537Y1307D02*
X2537Y1307D01*
X2565Y1307D02*
X2565Y1307D01*
X2587Y1307D02*
X2603Y1307D01*
X2629Y1307D02*
X2636Y1307D01*
X0Y1306D02*
X7Y1306D01*
X1474Y1306D02*
X1480Y1306D01*
X1528Y1306D02*
X1534Y1306D01*
X1835Y1306D02*
X1839Y1306D01*
X1863Y1306D02*
X1867Y1306D01*
X1885Y1306D02*
X1914Y1306D01*
X1974Y1306D02*
X1980Y1306D01*
X2014Y1306D02*
X2020Y1306D01*
X2174Y1306D02*
X2180Y1306D01*
X2228Y1306D02*
X2234Y1306D01*
X2535Y1306D02*
X2539Y1306D01*
X2563Y1306D02*
X2567Y1306D01*
X2585Y1306D02*
X2604Y1306D01*
X2629Y1306D02*
X2636Y1306D01*
X0Y1305D02*
X7Y1305D01*
X1474Y1305D02*
X1480Y1305D01*
X1528Y1305D02*
X1534Y1305D01*
X1835Y1305D02*
X1840Y1305D01*
X1862Y1305D02*
X1867Y1305D01*
X1885Y1305D02*
X1916Y1305D01*
X1974Y1305D02*
X1980Y1305D01*
X2014Y1305D02*
X2020Y1305D01*
X2174Y1305D02*
X2180Y1305D01*
X2228Y1305D02*
X2234Y1305D01*
X2534Y1305D02*
X2540Y1305D01*
X2562Y1305D02*
X2567Y1305D01*
X2584Y1305D02*
X2604Y1305D01*
X2629Y1305D02*
X2636Y1305D01*
X0Y1304D02*
X7Y1304D01*
X1474Y1304D02*
X1480Y1304D01*
X1528Y1304D02*
X1534Y1304D01*
X1834Y1304D02*
X1840Y1304D01*
X1862Y1304D02*
X1868Y1304D01*
X1884Y1304D02*
X1917Y1304D01*
X1974Y1304D02*
X1980Y1304D01*
X2014Y1304D02*
X2020Y1304D01*
X2174Y1304D02*
X2180Y1304D01*
X2228Y1304D02*
X2234Y1304D01*
X2534Y1304D02*
X2540Y1304D01*
X2562Y1304D02*
X2568Y1304D01*
X2584Y1304D02*
X2604Y1304D01*
X2629Y1304D02*
X2636Y1304D01*
X0Y1303D02*
X7Y1303D01*
X1474Y1303D02*
X1480Y1303D01*
X1528Y1303D02*
X1534Y1303D01*
X1834Y1303D02*
X1840Y1303D01*
X1862Y1303D02*
X1868Y1303D01*
X1884Y1303D02*
X1917Y1303D01*
X1974Y1303D02*
X1980Y1303D01*
X2014Y1303D02*
X2020Y1303D01*
X2174Y1303D02*
X2180Y1303D01*
X2228Y1303D02*
X2234Y1303D01*
X2534Y1303D02*
X2540Y1303D01*
X2562Y1303D02*
X2568Y1303D01*
X2584Y1303D02*
X2604Y1303D01*
X2629Y1303D02*
X2636Y1303D01*
X0Y1302D02*
X7Y1302D01*
X1474Y1302D02*
X1480Y1302D01*
X1528Y1302D02*
X1534Y1302D01*
X1834Y1302D02*
X1840Y1302D01*
X1862Y1302D02*
X1868Y1302D01*
X1885Y1302D02*
X1918Y1302D01*
X1974Y1302D02*
X1980Y1302D01*
X2014Y1302D02*
X2020Y1302D01*
X2174Y1302D02*
X2180Y1302D01*
X2227Y1302D02*
X2234Y1302D01*
X2534Y1302D02*
X2540Y1302D01*
X2562Y1302D02*
X2568Y1302D01*
X2584Y1302D02*
X2604Y1302D01*
X2629Y1302D02*
X2636Y1302D01*
X0Y1301D02*
X7Y1301D01*
X1474Y1301D02*
X1480Y1301D01*
X1528Y1301D02*
X1534Y1301D01*
X1834Y1301D02*
X1840Y1301D01*
X1862Y1301D02*
X1868Y1301D01*
X1885Y1301D02*
X1918Y1301D01*
X1974Y1301D02*
X1980Y1301D01*
X2014Y1301D02*
X2020Y1301D01*
X2174Y1301D02*
X2180Y1301D01*
X2227Y1301D02*
X2233Y1301D01*
X2534Y1301D02*
X2540Y1301D01*
X2562Y1301D02*
X2568Y1301D01*
X2585Y1301D02*
X2604Y1301D01*
X2629Y1301D02*
X2636Y1301D01*
X0Y1300D02*
X7Y1300D01*
X1474Y1300D02*
X1480Y1300D01*
X1528Y1300D02*
X1534Y1300D01*
X1834Y1300D02*
X1840Y1300D01*
X1862Y1300D02*
X1868Y1300D01*
X1911Y1300D02*
X1918Y1300D01*
X1974Y1300D02*
X1980Y1300D01*
X2014Y1300D02*
X2020Y1300D01*
X2174Y1300D02*
X2180Y1300D01*
X2226Y1300D02*
X2233Y1300D01*
X2534Y1300D02*
X2540Y1300D01*
X2562Y1300D02*
X2568Y1300D01*
X2597Y1300D02*
X2604Y1300D01*
X2629Y1300D02*
X2636Y1300D01*
X0Y1299D02*
X7Y1299D01*
X1474Y1299D02*
X1480Y1299D01*
X1505Y1299D02*
X1534Y1299D01*
X1834Y1299D02*
X1840Y1299D01*
X1862Y1299D02*
X1868Y1299D01*
X1912Y1299D02*
X1918Y1299D01*
X1974Y1299D02*
X1980Y1299D01*
X2014Y1299D02*
X2020Y1299D01*
X2174Y1299D02*
X2180Y1299D01*
X2209Y1299D02*
X2233Y1299D01*
X2534Y1299D02*
X2540Y1299D01*
X2562Y1299D02*
X2568Y1299D01*
X2598Y1299D02*
X2604Y1299D01*
X2629Y1299D02*
X2636Y1299D01*
X0Y1298D02*
X7Y1298D01*
X1474Y1298D02*
X1480Y1298D01*
X1503Y1298D02*
X1534Y1298D01*
X1834Y1298D02*
X1840Y1298D01*
X1862Y1298D02*
X1868Y1298D01*
X1912Y1298D02*
X1918Y1298D01*
X1974Y1298D02*
X1980Y1298D01*
X2014Y1298D02*
X2020Y1298D01*
X2174Y1298D02*
X2180Y1298D01*
X2208Y1298D02*
X2232Y1298D01*
X2534Y1298D02*
X2540Y1298D01*
X2562Y1298D02*
X2568Y1298D01*
X2598Y1298D02*
X2604Y1298D01*
X2629Y1298D02*
X2636Y1298D01*
X0Y1297D02*
X7Y1297D01*
X1474Y1297D02*
X1480Y1297D01*
X1502Y1297D02*
X1533Y1297D01*
X1834Y1297D02*
X1840Y1297D01*
X1862Y1297D02*
X1868Y1297D01*
X1912Y1297D02*
X1918Y1297D01*
X1974Y1297D02*
X1980Y1297D01*
X2014Y1297D02*
X2020Y1297D01*
X2174Y1297D02*
X2180Y1297D01*
X2207Y1297D02*
X2232Y1297D01*
X2534Y1297D02*
X2540Y1297D01*
X2562Y1297D02*
X2568Y1297D01*
X2598Y1297D02*
X2604Y1297D01*
X2629Y1297D02*
X2636Y1297D01*
X0Y1296D02*
X7Y1296D01*
X1474Y1296D02*
X1480Y1296D01*
X1501Y1296D02*
X1533Y1296D01*
X1834Y1296D02*
X1840Y1296D01*
X1862Y1296D02*
X1868Y1296D01*
X1912Y1296D02*
X1918Y1296D01*
X1974Y1296D02*
X1980Y1296D01*
X2014Y1296D02*
X2020Y1296D01*
X2174Y1296D02*
X2180Y1296D01*
X2207Y1296D02*
X2231Y1296D01*
X2534Y1296D02*
X2540Y1296D01*
X2562Y1296D02*
X2568Y1296D01*
X2598Y1296D02*
X2604Y1296D01*
X2629Y1296D02*
X2636Y1296D01*
X0Y1295D02*
X7Y1295D01*
X1474Y1295D02*
X1480Y1295D01*
X1501Y1295D02*
X1532Y1295D01*
X1834Y1295D02*
X1840Y1295D01*
X1862Y1295D02*
X1868Y1295D01*
X1912Y1295D02*
X1918Y1295D01*
X1974Y1295D02*
X1980Y1295D01*
X2014Y1295D02*
X2020Y1295D01*
X2174Y1295D02*
X2180Y1295D01*
X2207Y1295D02*
X2232Y1295D01*
X2534Y1295D02*
X2540Y1295D01*
X2562Y1295D02*
X2568Y1295D01*
X2598Y1295D02*
X2604Y1295D01*
X2629Y1295D02*
X2636Y1295D01*
X0Y1294D02*
X7Y1294D01*
X1474Y1294D02*
X1480Y1294D01*
X1501Y1294D02*
X1531Y1294D01*
X1834Y1294D02*
X1840Y1294D01*
X1862Y1294D02*
X1868Y1294D01*
X1912Y1294D02*
X1918Y1294D01*
X1974Y1294D02*
X1980Y1294D01*
X2014Y1294D02*
X2020Y1294D01*
X2174Y1294D02*
X2180Y1294D01*
X2208Y1294D02*
X2232Y1294D01*
X2534Y1294D02*
X2540Y1294D01*
X2562Y1294D02*
X2568Y1294D01*
X2598Y1294D02*
X2604Y1294D01*
X2629Y1294D02*
X2636Y1294D01*
X0Y1293D02*
X7Y1293D01*
X1455Y1293D02*
X1458Y1293D01*
X1474Y1293D02*
X1480Y1293D01*
X1500Y1293D02*
X1529Y1293D01*
X1834Y1293D02*
X1840Y1293D01*
X1862Y1293D02*
X1868Y1293D01*
X1912Y1293D02*
X1918Y1293D01*
X1955Y1293D02*
X1958Y1293D01*
X1974Y1293D02*
X1980Y1293D01*
X2014Y1293D02*
X2020Y1293D01*
X2029Y1293D02*
X2032Y1293D01*
X2155Y1293D02*
X2158Y1293D01*
X2174Y1293D02*
X2180Y1293D01*
X2209Y1293D02*
X2233Y1293D01*
X2534Y1293D02*
X2540Y1293D01*
X2562Y1293D02*
X2568Y1293D01*
X2598Y1293D02*
X2604Y1293D01*
X2629Y1293D02*
X2636Y1293D01*
X0Y1292D02*
X7Y1292D01*
X1454Y1292D02*
X1459Y1292D01*
X1474Y1292D02*
X1480Y1292D01*
X1500Y1292D02*
X1506Y1292D01*
X1834Y1292D02*
X1840Y1292D01*
X1862Y1292D02*
X1868Y1292D01*
X1912Y1292D02*
X1918Y1292D01*
X1954Y1292D02*
X1959Y1292D01*
X1974Y1292D02*
X1980Y1292D01*
X2014Y1292D02*
X2020Y1292D01*
X2028Y1292D02*
X2033Y1292D01*
X2154Y1292D02*
X2159Y1292D01*
X2174Y1292D02*
X2180Y1292D01*
X2226Y1292D02*
X2233Y1292D01*
X2534Y1292D02*
X2540Y1292D01*
X2562Y1292D02*
X2568Y1292D01*
X2598Y1292D02*
X2604Y1292D01*
X2629Y1292D02*
X2636Y1292D01*
X0Y1291D02*
X7Y1291D01*
X1454Y1291D02*
X1460Y1291D01*
X1474Y1291D02*
X1480Y1291D01*
X1500Y1291D02*
X1506Y1291D01*
X1834Y1291D02*
X1840Y1291D01*
X1862Y1291D02*
X1868Y1291D01*
X1912Y1291D02*
X1918Y1291D01*
X1954Y1291D02*
X1959Y1291D01*
X1974Y1291D02*
X1980Y1291D01*
X2014Y1291D02*
X2020Y1291D01*
X2028Y1291D02*
X2034Y1291D01*
X2154Y1291D02*
X2159Y1291D01*
X2174Y1291D02*
X2180Y1291D01*
X2227Y1291D02*
X2233Y1291D01*
X2534Y1291D02*
X2540Y1291D01*
X2562Y1291D02*
X2568Y1291D01*
X2598Y1291D02*
X2604Y1291D01*
X2629Y1291D02*
X2636Y1291D01*
X0Y1290D02*
X7Y1290D01*
X1454Y1290D02*
X1460Y1290D01*
X1474Y1290D02*
X1480Y1290D01*
X1500Y1290D02*
X1506Y1290D01*
X1834Y1290D02*
X1840Y1290D01*
X1862Y1290D02*
X1868Y1290D01*
X1912Y1290D02*
X1918Y1290D01*
X1954Y1290D02*
X1960Y1290D01*
X1974Y1290D02*
X1980Y1290D01*
X2014Y1290D02*
X2020Y1290D01*
X2028Y1290D02*
X2034Y1290D01*
X2154Y1290D02*
X2160Y1290D01*
X2174Y1290D02*
X2180Y1290D01*
X2227Y1290D02*
X2234Y1290D01*
X2534Y1290D02*
X2540Y1290D01*
X2562Y1290D02*
X2568Y1290D01*
X2598Y1290D02*
X2604Y1290D01*
X2629Y1290D02*
X2636Y1290D01*
X0Y1289D02*
X7Y1289D01*
X1454Y1289D02*
X1460Y1289D01*
X1474Y1289D02*
X1480Y1289D01*
X1500Y1289D02*
X1506Y1289D01*
X1834Y1289D02*
X1840Y1289D01*
X1862Y1289D02*
X1868Y1289D01*
X1912Y1289D02*
X1918Y1289D01*
X1954Y1289D02*
X1960Y1289D01*
X1974Y1289D02*
X1980Y1289D01*
X2014Y1289D02*
X2020Y1289D01*
X2028Y1289D02*
X2034Y1289D01*
X2154Y1289D02*
X2160Y1289D01*
X2174Y1289D02*
X2180Y1289D01*
X2228Y1289D02*
X2234Y1289D01*
X2534Y1289D02*
X2540Y1289D01*
X2562Y1289D02*
X2568Y1289D01*
X2598Y1289D02*
X2604Y1289D01*
X2629Y1289D02*
X2636Y1289D01*
X0Y1288D02*
X7Y1288D01*
X1454Y1288D02*
X1460Y1288D01*
X1474Y1288D02*
X1480Y1288D01*
X1500Y1288D02*
X1506Y1288D01*
X1834Y1288D02*
X1840Y1288D01*
X1862Y1288D02*
X1868Y1288D01*
X1912Y1288D02*
X1918Y1288D01*
X1954Y1288D02*
X1960Y1288D01*
X1974Y1288D02*
X1980Y1288D01*
X2014Y1288D02*
X2020Y1288D01*
X2028Y1288D02*
X2034Y1288D01*
X2154Y1288D02*
X2160Y1288D01*
X2174Y1288D02*
X2180Y1288D01*
X2228Y1288D02*
X2234Y1288D01*
X2534Y1288D02*
X2540Y1288D01*
X2562Y1288D02*
X2568Y1288D01*
X2598Y1288D02*
X2604Y1288D01*
X2629Y1288D02*
X2636Y1288D01*
X0Y1287D02*
X7Y1287D01*
X1454Y1287D02*
X1460Y1287D01*
X1474Y1287D02*
X1480Y1287D01*
X1500Y1287D02*
X1506Y1287D01*
X1834Y1287D02*
X1840Y1287D01*
X1862Y1287D02*
X1868Y1287D01*
X1912Y1287D02*
X1918Y1287D01*
X1954Y1287D02*
X1960Y1287D01*
X1974Y1287D02*
X1980Y1287D01*
X2014Y1287D02*
X2020Y1287D01*
X2028Y1287D02*
X2034Y1287D01*
X2154Y1287D02*
X2160Y1287D01*
X2174Y1287D02*
X2180Y1287D01*
X2228Y1287D02*
X2234Y1287D01*
X2534Y1287D02*
X2540Y1287D01*
X2562Y1287D02*
X2568Y1287D01*
X2598Y1287D02*
X2604Y1287D01*
X2629Y1287D02*
X2636Y1287D01*
X0Y1286D02*
X7Y1286D01*
X1454Y1286D02*
X1460Y1286D01*
X1474Y1286D02*
X1480Y1286D01*
X1500Y1286D02*
X1506Y1286D01*
X1834Y1286D02*
X1840Y1286D01*
X1862Y1286D02*
X1868Y1286D01*
X1912Y1286D02*
X1918Y1286D01*
X1954Y1286D02*
X1960Y1286D01*
X1974Y1286D02*
X1980Y1286D01*
X2014Y1286D02*
X2020Y1286D01*
X2028Y1286D02*
X2034Y1286D01*
X2154Y1286D02*
X2160Y1286D01*
X2174Y1286D02*
X2180Y1286D01*
X2228Y1286D02*
X2234Y1286D01*
X2534Y1286D02*
X2540Y1286D01*
X2562Y1286D02*
X2568Y1286D01*
X2598Y1286D02*
X2604Y1286D01*
X2629Y1286D02*
X2636Y1286D01*
X0Y1285D02*
X7Y1285D01*
X1454Y1285D02*
X1460Y1285D01*
X1474Y1285D02*
X1480Y1285D01*
X1500Y1285D02*
X1506Y1285D01*
X1834Y1285D02*
X1840Y1285D01*
X1862Y1285D02*
X1868Y1285D01*
X1912Y1285D02*
X1918Y1285D01*
X1954Y1285D02*
X1960Y1285D01*
X1974Y1285D02*
X1980Y1285D01*
X2014Y1285D02*
X2020Y1285D01*
X2028Y1285D02*
X2034Y1285D01*
X2154Y1285D02*
X2160Y1285D01*
X2174Y1285D02*
X2180Y1285D01*
X2228Y1285D02*
X2234Y1285D01*
X2534Y1285D02*
X2540Y1285D01*
X2562Y1285D02*
X2568Y1285D01*
X2598Y1285D02*
X2604Y1285D01*
X2629Y1285D02*
X2636Y1285D01*
X0Y1284D02*
X7Y1284D01*
X1454Y1284D02*
X1460Y1284D01*
X1474Y1284D02*
X1480Y1284D01*
X1500Y1284D02*
X1506Y1284D01*
X1834Y1284D02*
X1840Y1284D01*
X1862Y1284D02*
X1868Y1284D01*
X1912Y1284D02*
X1918Y1284D01*
X1954Y1284D02*
X1960Y1284D01*
X1974Y1284D02*
X1980Y1284D01*
X2014Y1284D02*
X2020Y1284D01*
X2028Y1284D02*
X2034Y1284D01*
X2154Y1284D02*
X2160Y1284D01*
X2174Y1284D02*
X2180Y1284D01*
X2228Y1284D02*
X2234Y1284D01*
X2534Y1284D02*
X2540Y1284D01*
X2562Y1284D02*
X2568Y1284D01*
X2598Y1284D02*
X2604Y1284D01*
X2629Y1284D02*
X2636Y1284D01*
X0Y1283D02*
X7Y1283D01*
X1454Y1283D02*
X1460Y1283D01*
X1474Y1283D02*
X1480Y1283D01*
X1500Y1283D02*
X1506Y1283D01*
X1834Y1283D02*
X1840Y1283D01*
X1862Y1283D02*
X1868Y1283D01*
X1889Y1283D02*
X1918Y1283D01*
X1954Y1283D02*
X1960Y1283D01*
X1974Y1283D02*
X1980Y1283D01*
X2014Y1283D02*
X2020Y1283D01*
X2028Y1283D02*
X2034Y1283D01*
X2154Y1283D02*
X2160Y1283D01*
X2174Y1283D02*
X2180Y1283D01*
X2228Y1283D02*
X2234Y1283D01*
X2534Y1283D02*
X2540Y1283D01*
X2562Y1283D02*
X2568Y1283D01*
X2598Y1283D02*
X2604Y1283D01*
X2629Y1283D02*
X2636Y1283D01*
X0Y1282D02*
X7Y1282D01*
X1454Y1282D02*
X1460Y1282D01*
X1474Y1282D02*
X1480Y1282D01*
X1500Y1282D02*
X1506Y1282D01*
X1834Y1282D02*
X1840Y1282D01*
X1862Y1282D02*
X1868Y1282D01*
X1887Y1282D02*
X1918Y1282D01*
X1954Y1282D02*
X1960Y1282D01*
X1974Y1282D02*
X1980Y1282D01*
X2014Y1282D02*
X2020Y1282D01*
X2028Y1282D02*
X2034Y1282D01*
X2154Y1282D02*
X2160Y1282D01*
X2174Y1282D02*
X2180Y1282D01*
X2228Y1282D02*
X2234Y1282D01*
X2534Y1282D02*
X2540Y1282D01*
X2562Y1282D02*
X2568Y1282D01*
X2598Y1282D02*
X2604Y1282D01*
X2629Y1282D02*
X2636Y1282D01*
X0Y1281D02*
X7Y1281D01*
X1454Y1281D02*
X1460Y1281D01*
X1474Y1281D02*
X1480Y1281D01*
X1500Y1281D02*
X1506Y1281D01*
X1834Y1281D02*
X1840Y1281D01*
X1862Y1281D02*
X1868Y1281D01*
X1886Y1281D02*
X1917Y1281D01*
X1954Y1281D02*
X1960Y1281D01*
X1974Y1281D02*
X1980Y1281D01*
X2014Y1281D02*
X2020Y1281D01*
X2028Y1281D02*
X2034Y1281D01*
X2154Y1281D02*
X2160Y1281D01*
X2174Y1281D02*
X2180Y1281D01*
X2228Y1281D02*
X2234Y1281D01*
X2534Y1281D02*
X2540Y1281D01*
X2562Y1281D02*
X2568Y1281D01*
X2598Y1281D02*
X2604Y1281D01*
X2629Y1281D02*
X2636Y1281D01*
X0Y1280D02*
X7Y1280D01*
X1454Y1280D02*
X1460Y1280D01*
X1474Y1280D02*
X1480Y1280D01*
X1500Y1280D02*
X1506Y1280D01*
X1834Y1280D02*
X1840Y1280D01*
X1862Y1280D02*
X1868Y1280D01*
X1885Y1280D02*
X1917Y1280D01*
X1954Y1280D02*
X1960Y1280D01*
X1974Y1280D02*
X1980Y1280D01*
X2014Y1280D02*
X2020Y1280D01*
X2028Y1280D02*
X2034Y1280D01*
X2154Y1280D02*
X2160Y1280D01*
X2174Y1280D02*
X2180Y1280D01*
X2228Y1280D02*
X2234Y1280D01*
X2534Y1280D02*
X2540Y1280D01*
X2562Y1280D02*
X2568Y1280D01*
X2598Y1280D02*
X2604Y1280D01*
X2629Y1280D02*
X2636Y1280D01*
X0Y1279D02*
X7Y1279D01*
X1454Y1279D02*
X1460Y1279D01*
X1474Y1279D02*
X1480Y1279D01*
X1500Y1279D02*
X1506Y1279D01*
X1834Y1279D02*
X1840Y1279D01*
X1862Y1279D02*
X1868Y1279D01*
X1885Y1279D02*
X1916Y1279D01*
X1954Y1279D02*
X1960Y1279D01*
X1974Y1279D02*
X1980Y1279D01*
X2014Y1279D02*
X2020Y1279D01*
X2028Y1279D02*
X2034Y1279D01*
X2154Y1279D02*
X2160Y1279D01*
X2174Y1279D02*
X2180Y1279D01*
X2228Y1279D02*
X2234Y1279D01*
X2534Y1279D02*
X2540Y1279D01*
X2562Y1279D02*
X2568Y1279D01*
X2598Y1279D02*
X2604Y1279D01*
X2629Y1279D02*
X2636Y1279D01*
X0Y1278D02*
X7Y1278D01*
X1454Y1278D02*
X1460Y1278D01*
X1474Y1278D02*
X1480Y1278D01*
X1500Y1278D02*
X1506Y1278D01*
X1834Y1278D02*
X1840Y1278D01*
X1862Y1278D02*
X1868Y1278D01*
X1884Y1278D02*
X1915Y1278D01*
X1954Y1278D02*
X1960Y1278D01*
X1974Y1278D02*
X1980Y1278D01*
X2014Y1278D02*
X2020Y1278D01*
X2028Y1278D02*
X2034Y1278D01*
X2154Y1278D02*
X2160Y1278D01*
X2174Y1278D02*
X2180Y1278D01*
X2228Y1278D02*
X2234Y1278D01*
X2534Y1278D02*
X2540Y1278D01*
X2562Y1278D02*
X2568Y1278D01*
X2598Y1278D02*
X2604Y1278D01*
X2629Y1278D02*
X2636Y1278D01*
X0Y1277D02*
X7Y1277D01*
X1454Y1277D02*
X1461Y1277D01*
X1473Y1277D02*
X1480Y1277D01*
X1500Y1277D02*
X1506Y1277D01*
X1834Y1277D02*
X1840Y1277D01*
X1862Y1277D02*
X1868Y1277D01*
X1884Y1277D02*
X1913Y1277D01*
X1954Y1277D02*
X1961Y1277D01*
X1973Y1277D02*
X1980Y1277D01*
X2014Y1277D02*
X2020Y1277D01*
X2028Y1277D02*
X2034Y1277D01*
X2154Y1277D02*
X2161Y1277D01*
X2173Y1277D02*
X2180Y1277D01*
X2228Y1277D02*
X2234Y1277D01*
X2534Y1277D02*
X2540Y1277D01*
X2562Y1277D02*
X2568Y1277D01*
X2598Y1277D02*
X2604Y1277D01*
X2613Y1277D02*
X2616Y1277D01*
X2629Y1277D02*
X2636Y1277D01*
X0Y1276D02*
X7Y1276D01*
X1454Y1276D02*
X1463Y1276D01*
X1471Y1276D02*
X1480Y1276D01*
X1500Y1276D02*
X1507Y1276D01*
X1834Y1276D02*
X1840Y1276D01*
X1862Y1276D02*
X1868Y1276D01*
X1884Y1276D02*
X1890Y1276D01*
X1954Y1276D02*
X1963Y1276D01*
X1971Y1276D02*
X1980Y1276D01*
X2014Y1276D02*
X2020Y1276D01*
X2027Y1276D02*
X2034Y1276D01*
X2154Y1276D02*
X2163Y1276D01*
X2171Y1276D02*
X2180Y1276D01*
X2227Y1276D02*
X2234Y1276D01*
X2534Y1276D02*
X2540Y1276D01*
X2562Y1276D02*
X2568Y1276D01*
X2598Y1276D02*
X2604Y1276D01*
X2612Y1276D02*
X2617Y1276D01*
X2629Y1276D02*
X2636Y1276D01*
X0Y1275D02*
X7Y1275D01*
X1455Y1275D02*
X1479Y1275D01*
X1500Y1275D02*
X1533Y1275D01*
X1834Y1275D02*
X1840Y1275D01*
X1862Y1275D02*
X1868Y1275D01*
X1884Y1275D02*
X1890Y1275D01*
X1955Y1275D02*
X1979Y1275D01*
X2001Y1275D02*
X2034Y1275D01*
X2155Y1275D02*
X2179Y1275D01*
X2201Y1275D02*
X2234Y1275D01*
X2534Y1275D02*
X2540Y1275D01*
X2562Y1275D02*
X2568Y1275D01*
X2598Y1275D02*
X2604Y1275D01*
X2612Y1275D02*
X2617Y1275D01*
X2629Y1275D02*
X2636Y1275D01*
X0Y1274D02*
X7Y1274D01*
X1455Y1274D02*
X1479Y1274D01*
X1500Y1274D02*
X1533Y1274D01*
X1834Y1274D02*
X1840Y1274D01*
X1862Y1274D02*
X1868Y1274D01*
X1884Y1274D02*
X1890Y1274D01*
X1955Y1274D02*
X1979Y1274D01*
X2001Y1274D02*
X2034Y1274D01*
X2155Y1274D02*
X2179Y1274D01*
X2201Y1274D02*
X2233Y1274D01*
X2534Y1274D02*
X2540Y1274D01*
X2562Y1274D02*
X2568Y1274D01*
X2598Y1274D02*
X2604Y1274D01*
X2612Y1274D02*
X2618Y1274D01*
X2629Y1274D02*
X2636Y1274D01*
X0Y1273D02*
X7Y1273D01*
X1456Y1273D02*
X1478Y1273D01*
X1500Y1273D02*
X1534Y1273D01*
X1834Y1273D02*
X1840Y1273D01*
X1862Y1273D02*
X1868Y1273D01*
X1884Y1273D02*
X1890Y1273D01*
X1956Y1273D02*
X1978Y1273D01*
X2000Y1273D02*
X2034Y1273D01*
X2156Y1273D02*
X2178Y1273D01*
X2200Y1273D02*
X2233Y1273D01*
X2534Y1273D02*
X2540Y1273D01*
X2562Y1273D02*
X2568Y1273D01*
X2598Y1273D02*
X2604Y1273D01*
X2612Y1273D02*
X2618Y1273D01*
X2629Y1273D02*
X2636Y1273D01*
X0Y1272D02*
X7Y1272D01*
X1457Y1272D02*
X1477Y1272D01*
X1500Y1272D02*
X1534Y1272D01*
X1834Y1272D02*
X1840Y1272D01*
X1862Y1272D02*
X1868Y1272D01*
X1884Y1272D02*
X1890Y1272D01*
X1957Y1272D02*
X1977Y1272D01*
X2000Y1272D02*
X2034Y1272D01*
X2157Y1272D02*
X2177Y1272D01*
X2200Y1272D02*
X2232Y1272D01*
X2534Y1272D02*
X2540Y1272D01*
X2562Y1272D02*
X2568Y1272D01*
X2598Y1272D02*
X2604Y1272D01*
X2612Y1272D02*
X2618Y1272D01*
X2629Y1272D02*
X2636Y1272D01*
X0Y1271D02*
X7Y1271D01*
X1458Y1271D02*
X1476Y1271D01*
X1500Y1271D02*
X1534Y1271D01*
X1834Y1271D02*
X1840Y1271D01*
X1862Y1271D02*
X1868Y1271D01*
X1884Y1271D02*
X1890Y1271D01*
X1958Y1271D02*
X1976Y1271D01*
X2001Y1271D02*
X2033Y1271D01*
X2158Y1271D02*
X2176Y1271D01*
X2200Y1271D02*
X2232Y1271D01*
X2534Y1271D02*
X2540Y1271D01*
X2562Y1271D02*
X2568Y1271D01*
X2598Y1271D02*
X2604Y1271D01*
X2612Y1271D02*
X2618Y1271D01*
X2629Y1271D02*
X2636Y1271D01*
X0Y1270D02*
X7Y1270D01*
X1460Y1270D02*
X1474Y1270D01*
X1500Y1270D02*
X1533Y1270D01*
X1834Y1270D02*
X1840Y1270D01*
X1862Y1270D02*
X1868Y1270D01*
X1884Y1270D02*
X1890Y1270D01*
X1960Y1270D02*
X1974Y1270D01*
X2001Y1270D02*
X2033Y1270D01*
X2160Y1270D02*
X2174Y1270D01*
X2201Y1270D02*
X2230Y1270D01*
X2534Y1270D02*
X2540Y1270D01*
X2562Y1270D02*
X2568Y1270D01*
X2598Y1270D02*
X2604Y1270D01*
X2612Y1270D02*
X2618Y1270D01*
X2629Y1270D02*
X2636Y1270D01*
X0Y1269D02*
X7Y1269D01*
X1463Y1269D02*
X1471Y1269D01*
X1501Y1269D02*
X1531Y1269D01*
X1834Y1269D02*
X1840Y1269D01*
X1862Y1269D02*
X1868Y1269D01*
X1884Y1269D02*
X1890Y1269D01*
X1963Y1269D02*
X1971Y1269D01*
X2003Y1269D02*
X2031Y1269D01*
X2163Y1269D02*
X2171Y1269D01*
X2203Y1269D02*
X2228Y1269D01*
X2534Y1269D02*
X2540Y1269D01*
X2562Y1269D02*
X2568Y1269D01*
X2598Y1269D02*
X2604Y1269D01*
X2612Y1269D02*
X2618Y1269D01*
X2629Y1269D02*
X2636Y1269D01*
X0Y1268D02*
X7Y1268D01*
X1834Y1268D02*
X1840Y1268D01*
X1862Y1268D02*
X1868Y1268D01*
X1884Y1268D02*
X1890Y1268D01*
X2534Y1268D02*
X2540Y1268D01*
X2562Y1268D02*
X2568Y1268D01*
X2598Y1268D02*
X2604Y1268D01*
X2612Y1268D02*
X2618Y1268D01*
X2629Y1268D02*
X2636Y1268D01*
X0Y1267D02*
X7Y1267D01*
X1834Y1267D02*
X1840Y1267D01*
X1862Y1267D02*
X1868Y1267D01*
X1884Y1267D02*
X1890Y1267D01*
X2534Y1267D02*
X2540Y1267D01*
X2562Y1267D02*
X2568Y1267D01*
X2598Y1267D02*
X2604Y1267D01*
X2612Y1267D02*
X2618Y1267D01*
X2629Y1267D02*
X2636Y1267D01*
X0Y1266D02*
X7Y1266D01*
X1834Y1266D02*
X1840Y1266D01*
X1862Y1266D02*
X1868Y1266D01*
X1884Y1266D02*
X1890Y1266D01*
X2534Y1266D02*
X2540Y1266D01*
X2562Y1266D02*
X2568Y1266D01*
X2598Y1266D02*
X2604Y1266D01*
X2612Y1266D02*
X2618Y1266D01*
X2629Y1266D02*
X2636Y1266D01*
X0Y1265D02*
X7Y1265D01*
X1834Y1265D02*
X1840Y1265D01*
X1862Y1265D02*
X1868Y1265D01*
X1884Y1265D02*
X1890Y1265D01*
X2534Y1265D02*
X2540Y1265D01*
X2562Y1265D02*
X2568Y1265D01*
X2598Y1265D02*
X2604Y1265D01*
X2612Y1265D02*
X2618Y1265D01*
X2629Y1265D02*
X2636Y1265D01*
X0Y1264D02*
X7Y1264D01*
X1834Y1264D02*
X1840Y1264D01*
X1862Y1264D02*
X1868Y1264D01*
X1884Y1264D02*
X1890Y1264D01*
X2534Y1264D02*
X2540Y1264D01*
X2562Y1264D02*
X2568Y1264D01*
X2598Y1264D02*
X2604Y1264D01*
X2612Y1264D02*
X2618Y1264D01*
X2629Y1264D02*
X2636Y1264D01*
X0Y1263D02*
X7Y1263D01*
X1834Y1263D02*
X1840Y1263D01*
X1862Y1263D02*
X1868Y1263D01*
X1884Y1263D02*
X1890Y1263D01*
X2534Y1263D02*
X2540Y1263D01*
X2562Y1263D02*
X2568Y1263D01*
X2598Y1263D02*
X2604Y1263D01*
X2612Y1263D02*
X2618Y1263D01*
X2629Y1263D02*
X2636Y1263D01*
X0Y1262D02*
X7Y1262D01*
X1834Y1262D02*
X1841Y1262D01*
X1861Y1262D02*
X1868Y1262D01*
X1884Y1262D02*
X1890Y1262D01*
X2534Y1262D02*
X2540Y1262D01*
X2561Y1262D02*
X2567Y1262D01*
X2598Y1262D02*
X2604Y1262D01*
X2612Y1262D02*
X2618Y1262D01*
X2629Y1262D02*
X2636Y1262D01*
X0Y1261D02*
X7Y1261D01*
X1835Y1261D02*
X1841Y1261D01*
X1861Y1261D02*
X1868Y1261D01*
X1884Y1261D02*
X1890Y1261D01*
X2534Y1261D02*
X2541Y1261D01*
X2560Y1261D02*
X2567Y1261D01*
X2598Y1261D02*
X2604Y1261D01*
X2612Y1261D02*
X2618Y1261D01*
X2629Y1261D02*
X2636Y1261D01*
X0Y1260D02*
X7Y1260D01*
X1835Y1260D02*
X1844Y1260D01*
X1858Y1260D02*
X1867Y1260D01*
X1884Y1260D02*
X1891Y1260D01*
X2535Y1260D02*
X2543Y1260D01*
X2558Y1260D02*
X2567Y1260D01*
X2597Y1260D02*
X2604Y1260D01*
X2611Y1260D02*
X2618Y1260D01*
X2629Y1260D02*
X2636Y1260D01*
X0Y1259D02*
X7Y1259D01*
X1835Y1259D02*
X1867Y1259D01*
X1884Y1259D02*
X1917Y1259D01*
X2535Y1259D02*
X2567Y1259D01*
X2585Y1259D02*
X2618Y1259D01*
X2629Y1259D02*
X2636Y1259D01*
X0Y1258D02*
X7Y1258D01*
X1836Y1258D02*
X1866Y1258D01*
X1884Y1258D02*
X1917Y1258D01*
X2536Y1258D02*
X2566Y1258D01*
X2584Y1258D02*
X2618Y1258D01*
X2629Y1258D02*
X2636Y1258D01*
X0Y1257D02*
X7Y1257D01*
X1837Y1257D02*
X1866Y1257D01*
X1884Y1257D02*
X1918Y1257D01*
X2536Y1257D02*
X2565Y1257D01*
X2584Y1257D02*
X2618Y1257D01*
X2629Y1257D02*
X2636Y1257D01*
X0Y1256D02*
X7Y1256D01*
X1837Y1256D02*
X1865Y1256D01*
X1884Y1256D02*
X1918Y1256D01*
X2537Y1256D02*
X2564Y1256D01*
X2584Y1256D02*
X2618Y1256D01*
X2629Y1256D02*
X2636Y1256D01*
X0Y1255D02*
X7Y1255D01*
X1839Y1255D02*
X1863Y1255D01*
X1884Y1255D02*
X1917Y1255D01*
X2538Y1255D02*
X2563Y1255D01*
X2584Y1255D02*
X2617Y1255D01*
X2629Y1255D02*
X2636Y1255D01*
X0Y1254D02*
X7Y1254D01*
X1840Y1254D02*
X1862Y1254D01*
X1884Y1254D02*
X1917Y1254D01*
X2540Y1254D02*
X2562Y1254D01*
X2585Y1254D02*
X2616Y1254D01*
X2629Y1254D02*
X2636Y1254D01*
X0Y1253D02*
X7Y1253D01*
X1844Y1253D02*
X1858Y1253D01*
X1885Y1253D02*
X1915Y1253D01*
X2544Y1253D02*
X2558Y1253D01*
X2587Y1253D02*
X2614Y1253D01*
X2629Y1253D02*
X2636Y1253D01*
X0Y1252D02*
X7Y1252D01*
X2629Y1252D02*
X2636Y1252D01*
X0Y1251D02*
X7Y1251D01*
X2629Y1251D02*
X2636Y1251D01*
X0Y1250D02*
X7Y1250D01*
X2629Y1250D02*
X2636Y1250D01*
X0Y1249D02*
X7Y1249D01*
X2629Y1249D02*
X2636Y1249D01*
X0Y1248D02*
X7Y1248D01*
X2629Y1248D02*
X2636Y1248D01*
X0Y1247D02*
X7Y1247D01*
X2629Y1247D02*
X2636Y1247D01*
X0Y1246D02*
X7Y1246D01*
X2629Y1246D02*
X2636Y1246D01*
X0Y1245D02*
X7Y1245D01*
X2629Y1245D02*
X2636Y1245D01*
X0Y1244D02*
X7Y1244D01*
X2629Y1244D02*
X2636Y1244D01*
X0Y1243D02*
X7Y1243D01*
X2629Y1243D02*
X2636Y1243D01*
X0Y1242D02*
X7Y1242D01*
X2629Y1242D02*
X2636Y1242D01*
X0Y1241D02*
X7Y1241D01*
X2629Y1241D02*
X2636Y1241D01*
X0Y1240D02*
X7Y1240D01*
X2629Y1240D02*
X2636Y1240D01*
X0Y1239D02*
X7Y1239D01*
X2629Y1239D02*
X2636Y1239D01*
X0Y1238D02*
X7Y1238D01*
X2629Y1238D02*
X2636Y1238D01*
X0Y1237D02*
X7Y1237D01*
X2629Y1237D02*
X2636Y1237D01*
X0Y1236D02*
X7Y1236D01*
X2629Y1236D02*
X2636Y1236D01*
X0Y1235D02*
X7Y1235D01*
X2629Y1235D02*
X2636Y1235D01*
X0Y1234D02*
X7Y1234D01*
X2629Y1234D02*
X2636Y1234D01*
X0Y1233D02*
X7Y1233D01*
X2629Y1233D02*
X2636Y1233D01*
X0Y1232D02*
X7Y1232D01*
X2629Y1232D02*
X2636Y1232D01*
X0Y1231D02*
X7Y1231D01*
X2629Y1231D02*
X2636Y1231D01*
X0Y1230D02*
X7Y1230D01*
X2629Y1230D02*
X2636Y1230D01*
X0Y1229D02*
X7Y1229D01*
X2629Y1229D02*
X2636Y1229D01*
X0Y1228D02*
X7Y1228D01*
X2629Y1228D02*
X2636Y1228D01*
X0Y1227D02*
X7Y1227D01*
X2629Y1227D02*
X2636Y1227D01*
X0Y1226D02*
X7Y1226D01*
X2629Y1226D02*
X2636Y1226D01*
X0Y1225D02*
X7Y1225D01*
X2629Y1225D02*
X2636Y1225D01*
X0Y1224D02*
X7Y1224D01*
X1355Y1224D02*
X1356Y1224D01*
X1855Y1224D02*
X1856Y1224D01*
X2055Y1224D02*
X2056Y1224D01*
X2629Y1224D02*
X2636Y1224D01*
X0Y1223D02*
X7Y1223D01*
X178Y1223D02*
X178Y1223D01*
X210Y1223D02*
X225Y1223D01*
X1077Y1223D02*
X1078Y1223D01*
X1103Y1223D02*
X1131Y1223D01*
X1177Y1223D02*
X1178Y1223D01*
X1208Y1223D02*
X1231Y1223D01*
X1354Y1223D02*
X1357Y1223D01*
X1854Y1223D02*
X1857Y1223D01*
X2054Y1223D02*
X2057Y1223D01*
X2629Y1223D02*
X2636Y1223D01*
X0Y1222D02*
X7Y1222D01*
X176Y1222D02*
X180Y1222D01*
X209Y1222D02*
X226Y1222D01*
X1076Y1222D02*
X1080Y1222D01*
X1101Y1222D02*
X1133Y1222D01*
X1176Y1222D02*
X1179Y1222D01*
X1207Y1222D02*
X1233Y1222D01*
X1353Y1222D02*
X1358Y1222D01*
X1853Y1222D02*
X1858Y1222D01*
X2053Y1222D02*
X2058Y1222D01*
X2629Y1222D02*
X2636Y1222D01*
X0Y1221D02*
X7Y1221D01*
X175Y1221D02*
X181Y1221D01*
X208Y1221D02*
X227Y1221D01*
X1075Y1221D02*
X1080Y1221D01*
X1101Y1221D02*
X1134Y1221D01*
X1175Y1221D02*
X1180Y1221D01*
X1207Y1221D02*
X1234Y1221D01*
X1352Y1221D02*
X1358Y1221D01*
X1852Y1221D02*
X1858Y1221D01*
X2052Y1221D02*
X2058Y1221D01*
X2629Y1221D02*
X2636Y1221D01*
X0Y1220D02*
X7Y1220D01*
X175Y1220D02*
X181Y1220D01*
X208Y1220D02*
X227Y1220D01*
X1075Y1220D02*
X1081Y1220D01*
X1101Y1220D02*
X1134Y1220D01*
X1175Y1220D02*
X1180Y1220D01*
X1207Y1220D02*
X1234Y1220D01*
X1351Y1220D02*
X1357Y1220D01*
X1851Y1220D02*
X1857Y1220D01*
X2051Y1220D02*
X2057Y1220D01*
X2629Y1220D02*
X2636Y1220D01*
X0Y1219D02*
X7Y1219D01*
X175Y1219D02*
X181Y1219D01*
X208Y1219D02*
X227Y1219D01*
X1075Y1219D02*
X1081Y1219D01*
X1100Y1219D02*
X1134Y1219D01*
X1175Y1219D02*
X1181Y1219D01*
X1207Y1219D02*
X1234Y1219D01*
X1350Y1219D02*
X1356Y1219D01*
X1850Y1219D02*
X1856Y1219D01*
X2050Y1219D02*
X2056Y1219D01*
X2629Y1219D02*
X2636Y1219D01*
X0Y1218D02*
X7Y1218D01*
X175Y1218D02*
X181Y1218D01*
X208Y1218D02*
X227Y1218D01*
X1075Y1218D02*
X1081Y1218D01*
X1100Y1218D02*
X1134Y1218D01*
X1175Y1218D02*
X1181Y1218D01*
X1207Y1218D02*
X1234Y1218D01*
X1349Y1218D02*
X1355Y1218D01*
X1431Y1218D02*
X1576Y1218D01*
X1676Y1218D02*
X1821Y1218D01*
X1849Y1218D02*
X1855Y1218D01*
X2049Y1218D02*
X2055Y1218D01*
X2131Y1218D02*
X2276Y1218D01*
X2375Y1218D02*
X2521Y1218D01*
X2629Y1218D02*
X2636Y1218D01*
X0Y1217D02*
X7Y1217D01*
X175Y1217D02*
X181Y1217D01*
X208Y1217D02*
X227Y1217D01*
X1075Y1217D02*
X1081Y1217D01*
X1100Y1217D02*
X1134Y1217D01*
X1175Y1217D02*
X1181Y1217D01*
X1207Y1217D02*
X1233Y1217D01*
X1348Y1217D02*
X1354Y1217D01*
X1431Y1217D02*
X1577Y1217D01*
X1675Y1217D02*
X1821Y1217D01*
X1848Y1217D02*
X1854Y1217D01*
X2048Y1217D02*
X2054Y1217D01*
X2130Y1217D02*
X2276Y1217D01*
X2375Y1217D02*
X2521Y1217D01*
X2629Y1217D02*
X2636Y1217D01*
X0Y1216D02*
X7Y1216D01*
X175Y1216D02*
X181Y1216D01*
X208Y1216D02*
X214Y1216D01*
X221Y1216D02*
X227Y1216D01*
X1075Y1216D02*
X1081Y1216D01*
X1100Y1216D02*
X1107Y1216D01*
X1128Y1216D02*
X1134Y1216D01*
X1175Y1216D02*
X1181Y1216D01*
X1207Y1216D02*
X1214Y1216D01*
X1347Y1216D02*
X1353Y1216D01*
X1431Y1216D02*
X1577Y1216D01*
X1675Y1216D02*
X1821Y1216D01*
X1847Y1216D02*
X1853Y1216D01*
X2047Y1216D02*
X2053Y1216D01*
X2130Y1216D02*
X2276Y1216D01*
X2375Y1216D02*
X2521Y1216D01*
X2629Y1216D02*
X2636Y1216D01*
X0Y1215D02*
X7Y1215D01*
X175Y1215D02*
X181Y1215D01*
X208Y1215D02*
X214Y1215D01*
X221Y1215D02*
X227Y1215D01*
X1075Y1215D02*
X1081Y1215D01*
X1100Y1215D02*
X1106Y1215D01*
X1128Y1215D02*
X1134Y1215D01*
X1175Y1215D02*
X1181Y1215D01*
X1207Y1215D02*
X1213Y1215D01*
X1346Y1215D02*
X1352Y1215D01*
X1426Y1215D02*
X1429Y1215D01*
X1515Y1215D02*
X1577Y1215D01*
X1675Y1215D02*
X1764Y1215D01*
X1780Y1215D02*
X1821Y1215D01*
X1846Y1215D02*
X1852Y1215D01*
X2046Y1215D02*
X2052Y1215D01*
X2126Y1215D02*
X2129Y1215D01*
X2215Y1215D02*
X2276Y1215D01*
X2375Y1215D02*
X2464Y1215D01*
X2480Y1215D02*
X2521Y1215D01*
X2629Y1215D02*
X2636Y1215D01*
X0Y1214D02*
X7Y1214D01*
X175Y1214D02*
X181Y1214D01*
X208Y1214D02*
X214Y1214D01*
X221Y1214D02*
X227Y1214D01*
X1075Y1214D02*
X1081Y1214D01*
X1100Y1214D02*
X1106Y1214D01*
X1128Y1214D02*
X1134Y1214D01*
X1175Y1214D02*
X1181Y1214D01*
X1207Y1214D02*
X1213Y1214D01*
X1345Y1214D02*
X1351Y1214D01*
X1426Y1214D02*
X1429Y1214D01*
X1515Y1214D02*
X1577Y1214D01*
X1675Y1214D02*
X1760Y1214D01*
X1784Y1214D02*
X1821Y1214D01*
X1845Y1214D02*
X1851Y1214D01*
X2045Y1214D02*
X2051Y1214D01*
X2125Y1214D02*
X2129Y1214D01*
X2215Y1214D02*
X2276Y1214D01*
X2375Y1214D02*
X2459Y1214D01*
X2484Y1214D02*
X2521Y1214D01*
X2629Y1214D02*
X2636Y1214D01*
X0Y1213D02*
X7Y1213D01*
X175Y1213D02*
X181Y1213D01*
X208Y1213D02*
X214Y1213D01*
X221Y1213D02*
X227Y1213D01*
X1075Y1213D02*
X1081Y1213D01*
X1100Y1213D02*
X1106Y1213D01*
X1128Y1213D02*
X1134Y1213D01*
X1175Y1213D02*
X1181Y1213D01*
X1207Y1213D02*
X1213Y1213D01*
X1344Y1213D02*
X1350Y1213D01*
X1426Y1213D02*
X1429Y1213D01*
X1515Y1213D02*
X1577Y1213D01*
X1675Y1213D02*
X1757Y1213D01*
X1787Y1213D02*
X1821Y1213D01*
X1844Y1213D02*
X1850Y1213D01*
X2044Y1213D02*
X2050Y1213D01*
X2125Y1213D02*
X2129Y1213D01*
X2215Y1213D02*
X2276Y1213D01*
X2375Y1213D02*
X2456Y1213D01*
X2487Y1213D02*
X2521Y1213D01*
X2629Y1213D02*
X2636Y1213D01*
X0Y1212D02*
X7Y1212D01*
X175Y1212D02*
X181Y1212D01*
X208Y1212D02*
X214Y1212D01*
X221Y1212D02*
X227Y1212D01*
X1075Y1212D02*
X1081Y1212D01*
X1100Y1212D02*
X1106Y1212D01*
X1128Y1212D02*
X1134Y1212D01*
X1175Y1212D02*
X1181Y1212D01*
X1207Y1212D02*
X1213Y1212D01*
X1343Y1212D02*
X1349Y1212D01*
X1426Y1212D02*
X1429Y1212D01*
X1843Y1212D02*
X1849Y1212D01*
X2043Y1212D02*
X2049Y1212D01*
X2125Y1212D02*
X2129Y1212D01*
X2629Y1212D02*
X2636Y1212D01*
X0Y1211D02*
X7Y1211D01*
X175Y1211D02*
X181Y1211D01*
X208Y1211D02*
X214Y1211D01*
X221Y1211D02*
X227Y1211D01*
X1075Y1211D02*
X1081Y1211D01*
X1100Y1211D02*
X1106Y1211D01*
X1128Y1211D02*
X1134Y1211D01*
X1175Y1211D02*
X1181Y1211D01*
X1207Y1211D02*
X1213Y1211D01*
X1342Y1211D02*
X1348Y1211D01*
X1426Y1211D02*
X1429Y1211D01*
X1842Y1211D02*
X1848Y1211D01*
X2042Y1211D02*
X2048Y1211D01*
X2125Y1211D02*
X2129Y1211D01*
X2629Y1211D02*
X2636Y1211D01*
X0Y1210D02*
X7Y1210D01*
X175Y1210D02*
X181Y1210D01*
X208Y1210D02*
X214Y1210D01*
X221Y1210D02*
X227Y1210D01*
X1075Y1210D02*
X1081Y1210D01*
X1100Y1210D02*
X1106Y1210D01*
X1128Y1210D02*
X1134Y1210D01*
X1175Y1210D02*
X1181Y1210D01*
X1207Y1210D02*
X1213Y1210D01*
X1341Y1210D02*
X1347Y1210D01*
X1426Y1210D02*
X1429Y1210D01*
X1841Y1210D02*
X1847Y1210D01*
X2041Y1210D02*
X2047Y1210D01*
X2125Y1210D02*
X2129Y1210D01*
X2629Y1210D02*
X2636Y1210D01*
X0Y1209D02*
X7Y1209D01*
X175Y1209D02*
X181Y1209D01*
X208Y1209D02*
X214Y1209D01*
X221Y1209D02*
X227Y1209D01*
X1075Y1209D02*
X1081Y1209D01*
X1100Y1209D02*
X1106Y1209D01*
X1128Y1209D02*
X1134Y1209D01*
X1175Y1209D02*
X1181Y1209D01*
X1207Y1209D02*
X1213Y1209D01*
X1340Y1209D02*
X1346Y1209D01*
X1426Y1209D02*
X1429Y1209D01*
X1840Y1209D02*
X1846Y1209D01*
X2040Y1209D02*
X2046Y1209D01*
X2125Y1209D02*
X2129Y1209D01*
X2629Y1209D02*
X2636Y1209D01*
X0Y1208D02*
X7Y1208D01*
X175Y1208D02*
X181Y1208D01*
X208Y1208D02*
X214Y1208D01*
X221Y1208D02*
X227Y1208D01*
X1075Y1208D02*
X1081Y1208D01*
X1100Y1208D02*
X1106Y1208D01*
X1128Y1208D02*
X1134Y1208D01*
X1175Y1208D02*
X1181Y1208D01*
X1207Y1208D02*
X1213Y1208D01*
X1339Y1208D02*
X1345Y1208D01*
X1426Y1208D02*
X1429Y1208D01*
X1839Y1208D02*
X1845Y1208D01*
X2039Y1208D02*
X2044Y1208D01*
X2125Y1208D02*
X2129Y1208D01*
X2629Y1208D02*
X2636Y1208D01*
X0Y1207D02*
X7Y1207D01*
X175Y1207D02*
X181Y1207D01*
X208Y1207D02*
X214Y1207D01*
X221Y1207D02*
X227Y1207D01*
X1075Y1207D02*
X1081Y1207D01*
X1100Y1207D02*
X1106Y1207D01*
X1128Y1207D02*
X1134Y1207D01*
X1175Y1207D02*
X1181Y1207D01*
X1207Y1207D02*
X1213Y1207D01*
X1338Y1207D02*
X1343Y1207D01*
X1426Y1207D02*
X1429Y1207D01*
X1838Y1207D02*
X1843Y1207D01*
X2038Y1207D02*
X2043Y1207D01*
X2125Y1207D02*
X2129Y1207D01*
X2629Y1207D02*
X2636Y1207D01*
X0Y1206D02*
X7Y1206D01*
X175Y1206D02*
X181Y1206D01*
X208Y1206D02*
X214Y1206D01*
X221Y1206D02*
X227Y1206D01*
X1075Y1206D02*
X1081Y1206D01*
X1100Y1206D02*
X1106Y1206D01*
X1128Y1206D02*
X1134Y1206D01*
X1175Y1206D02*
X1181Y1206D01*
X1207Y1206D02*
X1213Y1206D01*
X1337Y1206D02*
X1342Y1206D01*
X1426Y1206D02*
X1429Y1206D01*
X1837Y1206D02*
X1842Y1206D01*
X2037Y1206D02*
X2042Y1206D01*
X2125Y1206D02*
X2129Y1206D01*
X2629Y1206D02*
X2636Y1206D01*
X0Y1205D02*
X7Y1205D01*
X175Y1205D02*
X181Y1205D01*
X208Y1205D02*
X214Y1205D01*
X221Y1205D02*
X227Y1205D01*
X1075Y1205D02*
X1081Y1205D01*
X1100Y1205D02*
X1134Y1205D01*
X1175Y1205D02*
X1181Y1205D01*
X1207Y1205D02*
X1213Y1205D01*
X1336Y1205D02*
X1341Y1205D01*
X1426Y1205D02*
X1429Y1205D01*
X1836Y1205D02*
X1841Y1205D01*
X2036Y1205D02*
X2041Y1205D01*
X2125Y1205D02*
X2129Y1205D01*
X2629Y1205D02*
X2636Y1205D01*
X0Y1204D02*
X7Y1204D01*
X175Y1204D02*
X181Y1204D01*
X208Y1204D02*
X214Y1204D01*
X221Y1204D02*
X227Y1204D01*
X1075Y1204D02*
X1081Y1204D01*
X1100Y1204D02*
X1134Y1204D01*
X1175Y1204D02*
X1181Y1204D01*
X1207Y1204D02*
X1213Y1204D01*
X1335Y1204D02*
X1340Y1204D01*
X1426Y1204D02*
X1429Y1204D01*
X1835Y1204D02*
X1840Y1204D01*
X2035Y1204D02*
X2040Y1204D01*
X2125Y1204D02*
X2129Y1204D01*
X2629Y1204D02*
X2636Y1204D01*
X0Y1203D02*
X7Y1203D01*
X175Y1203D02*
X181Y1203D01*
X208Y1203D02*
X214Y1203D01*
X221Y1203D02*
X227Y1203D01*
X1075Y1203D02*
X1081Y1203D01*
X1100Y1203D02*
X1134Y1203D01*
X1175Y1203D02*
X1181Y1203D01*
X1207Y1203D02*
X1213Y1203D01*
X1334Y1203D02*
X1339Y1203D01*
X1426Y1203D02*
X1429Y1203D01*
X1834Y1203D02*
X1839Y1203D01*
X2034Y1203D02*
X2039Y1203D01*
X2125Y1203D02*
X2129Y1203D01*
X2629Y1203D02*
X2636Y1203D01*
X0Y1202D02*
X7Y1202D01*
X175Y1202D02*
X181Y1202D01*
X208Y1202D02*
X214Y1202D01*
X221Y1202D02*
X227Y1202D01*
X1075Y1202D02*
X1081Y1202D01*
X1100Y1202D02*
X1134Y1202D01*
X1175Y1202D02*
X1181Y1202D01*
X1207Y1202D02*
X1213Y1202D01*
X1333Y1202D02*
X1338Y1202D01*
X1426Y1202D02*
X1429Y1202D01*
X1833Y1202D02*
X1838Y1202D01*
X2033Y1202D02*
X2038Y1202D01*
X2125Y1202D02*
X2129Y1202D01*
X2629Y1202D02*
X2636Y1202D01*
X0Y1201D02*
X7Y1201D01*
X175Y1201D02*
X181Y1201D01*
X208Y1201D02*
X214Y1201D01*
X221Y1201D02*
X227Y1201D01*
X1075Y1201D02*
X1081Y1201D01*
X1101Y1201D02*
X1134Y1201D01*
X1175Y1201D02*
X1181Y1201D01*
X1207Y1201D02*
X1213Y1201D01*
X1332Y1201D02*
X1337Y1201D01*
X1426Y1201D02*
X1429Y1201D01*
X1832Y1201D02*
X1837Y1201D01*
X2032Y1201D02*
X2037Y1201D01*
X2125Y1201D02*
X2129Y1201D01*
X2629Y1201D02*
X2636Y1201D01*
X0Y1200D02*
X7Y1200D01*
X175Y1200D02*
X181Y1200D01*
X208Y1200D02*
X214Y1200D01*
X221Y1200D02*
X227Y1200D01*
X1075Y1200D02*
X1081Y1200D01*
X1101Y1200D02*
X1134Y1200D01*
X1175Y1200D02*
X1181Y1200D01*
X1207Y1200D02*
X1213Y1200D01*
X1331Y1200D02*
X1337Y1200D01*
X1426Y1200D02*
X1429Y1200D01*
X1831Y1200D02*
X1837Y1200D01*
X2031Y1200D02*
X2037Y1200D01*
X2125Y1200D02*
X2129Y1200D01*
X2629Y1200D02*
X2636Y1200D01*
X0Y1199D02*
X7Y1199D01*
X175Y1199D02*
X181Y1199D01*
X205Y1199D02*
X230Y1199D01*
X1075Y1199D02*
X1081Y1199D01*
X1102Y1199D02*
X1134Y1199D01*
X1175Y1199D02*
X1181Y1199D01*
X1207Y1199D02*
X1230Y1199D01*
X1330Y1199D02*
X1336Y1199D01*
X1426Y1199D02*
X1429Y1199D01*
X1830Y1199D02*
X1836Y1199D01*
X2030Y1199D02*
X2036Y1199D01*
X2125Y1199D02*
X2129Y1199D01*
X2629Y1199D02*
X2636Y1199D01*
X0Y1198D02*
X7Y1198D01*
X175Y1198D02*
X181Y1198D01*
X203Y1198D02*
X232Y1198D01*
X1075Y1198D02*
X1081Y1198D01*
X1128Y1198D02*
X1134Y1198D01*
X1175Y1198D02*
X1181Y1198D01*
X1207Y1198D02*
X1231Y1198D01*
X1329Y1198D02*
X1335Y1198D01*
X1426Y1198D02*
X1429Y1198D01*
X1829Y1198D02*
X1835Y1198D01*
X2029Y1198D02*
X2035Y1198D01*
X2125Y1198D02*
X2129Y1198D01*
X2629Y1198D02*
X2636Y1198D01*
X0Y1197D02*
X7Y1197D01*
X175Y1197D02*
X181Y1197D01*
X202Y1197D02*
X233Y1197D01*
X1075Y1197D02*
X1081Y1197D01*
X1128Y1197D02*
X1134Y1197D01*
X1175Y1197D02*
X1181Y1197D01*
X1207Y1197D02*
X1232Y1197D01*
X1328Y1197D02*
X1334Y1197D01*
X1426Y1197D02*
X1429Y1197D01*
X1828Y1197D02*
X1834Y1197D01*
X2028Y1197D02*
X2034Y1197D01*
X2125Y1197D02*
X2129Y1197D01*
X2629Y1197D02*
X2636Y1197D01*
X0Y1196D02*
X7Y1196D01*
X175Y1196D02*
X181Y1196D01*
X202Y1196D02*
X233Y1196D01*
X1075Y1196D02*
X1081Y1196D01*
X1128Y1196D02*
X1134Y1196D01*
X1175Y1196D02*
X1181Y1196D01*
X1207Y1196D02*
X1233Y1196D01*
X1327Y1196D02*
X1333Y1196D01*
X1426Y1196D02*
X1429Y1196D01*
X1827Y1196D02*
X1833Y1196D01*
X2027Y1196D02*
X2033Y1196D01*
X2125Y1196D02*
X2129Y1196D01*
X2629Y1196D02*
X2636Y1196D01*
X0Y1195D02*
X7Y1195D01*
X175Y1195D02*
X181Y1195D01*
X201Y1195D02*
X234Y1195D01*
X1075Y1195D02*
X1081Y1195D01*
X1128Y1195D02*
X1134Y1195D01*
X1175Y1195D02*
X1181Y1195D01*
X1207Y1195D02*
X1234Y1195D01*
X1326Y1195D02*
X1332Y1195D01*
X1426Y1195D02*
X1429Y1195D01*
X1826Y1195D02*
X1832Y1195D01*
X2026Y1195D02*
X2032Y1195D01*
X2125Y1195D02*
X2129Y1195D01*
X2629Y1195D02*
X2636Y1195D01*
X0Y1194D02*
X7Y1194D01*
X175Y1194D02*
X181Y1194D01*
X201Y1194D02*
X234Y1194D01*
X1075Y1194D02*
X1081Y1194D01*
X1128Y1194D02*
X1134Y1194D01*
X1175Y1194D02*
X1181Y1194D01*
X1207Y1194D02*
X1234Y1194D01*
X1325Y1194D02*
X1331Y1194D01*
X1426Y1194D02*
X1429Y1194D01*
X1825Y1194D02*
X1831Y1194D01*
X2025Y1194D02*
X2031Y1194D01*
X2125Y1194D02*
X2129Y1194D01*
X2629Y1194D02*
X2636Y1194D01*
X0Y1193D02*
X7Y1193D01*
X156Y1193D02*
X159Y1193D01*
X175Y1193D02*
X181Y1193D01*
X201Y1193D02*
X234Y1193D01*
X1055Y1193D02*
X1058Y1193D01*
X1075Y1193D02*
X1081Y1193D01*
X1128Y1193D02*
X1134Y1193D01*
X1155Y1193D02*
X1158Y1193D01*
X1175Y1193D02*
X1181Y1193D01*
X1207Y1193D02*
X1234Y1193D01*
X1324Y1193D02*
X1330Y1193D01*
X1426Y1193D02*
X1429Y1193D01*
X1824Y1193D02*
X1830Y1193D01*
X2024Y1193D02*
X2030Y1193D01*
X2125Y1193D02*
X2129Y1193D01*
X2629Y1193D02*
X2636Y1193D01*
X0Y1192D02*
X7Y1192D01*
X155Y1192D02*
X160Y1192D01*
X175Y1192D02*
X181Y1192D01*
X201Y1192D02*
X207Y1192D01*
X228Y1192D02*
X234Y1192D01*
X1054Y1192D02*
X1059Y1192D01*
X1075Y1192D02*
X1081Y1192D01*
X1128Y1192D02*
X1134Y1192D01*
X1154Y1192D02*
X1159Y1192D01*
X1175Y1192D02*
X1181Y1192D01*
X1228Y1192D02*
X1234Y1192D01*
X1323Y1192D02*
X1329Y1192D01*
X1426Y1192D02*
X1429Y1192D01*
X1823Y1192D02*
X1829Y1192D01*
X2023Y1192D02*
X2029Y1192D01*
X2125Y1192D02*
X2129Y1192D01*
X2629Y1192D02*
X2636Y1192D01*
X0Y1191D02*
X7Y1191D01*
X154Y1191D02*
X160Y1191D01*
X175Y1191D02*
X181Y1191D01*
X201Y1191D02*
X207Y1191D01*
X228Y1191D02*
X234Y1191D01*
X1054Y1191D02*
X1060Y1191D01*
X1075Y1191D02*
X1081Y1191D01*
X1128Y1191D02*
X1134Y1191D01*
X1154Y1191D02*
X1160Y1191D01*
X1175Y1191D02*
X1181Y1191D01*
X1228Y1191D02*
X1234Y1191D01*
X1322Y1191D02*
X1328Y1191D01*
X1426Y1191D02*
X1429Y1191D01*
X1822Y1191D02*
X1828Y1191D01*
X2022Y1191D02*
X2028Y1191D01*
X2125Y1191D02*
X2129Y1191D01*
X2629Y1191D02*
X2636Y1191D01*
X0Y1190D02*
X7Y1190D01*
X154Y1190D02*
X160Y1190D01*
X175Y1190D02*
X181Y1190D01*
X201Y1190D02*
X207Y1190D01*
X228Y1190D02*
X234Y1190D01*
X1054Y1190D02*
X1060Y1190D01*
X1075Y1190D02*
X1081Y1190D01*
X1128Y1190D02*
X1134Y1190D01*
X1154Y1190D02*
X1160Y1190D01*
X1175Y1190D02*
X1181Y1190D01*
X1228Y1190D02*
X1234Y1190D01*
X1321Y1190D02*
X1327Y1190D01*
X1426Y1190D02*
X1429Y1190D01*
X1821Y1190D02*
X1827Y1190D01*
X2021Y1190D02*
X2027Y1190D01*
X2125Y1190D02*
X2129Y1190D01*
X2629Y1190D02*
X2636Y1190D01*
X0Y1189D02*
X7Y1189D01*
X154Y1189D02*
X160Y1189D01*
X175Y1189D02*
X181Y1189D01*
X201Y1189D02*
X207Y1189D01*
X228Y1189D02*
X234Y1189D01*
X1054Y1189D02*
X1060Y1189D01*
X1075Y1189D02*
X1081Y1189D01*
X1128Y1189D02*
X1134Y1189D01*
X1154Y1189D02*
X1160Y1189D01*
X1175Y1189D02*
X1181Y1189D01*
X1228Y1189D02*
X1234Y1189D01*
X1322Y1189D02*
X1326Y1189D01*
X1426Y1189D02*
X1429Y1189D01*
X1822Y1189D02*
X1826Y1189D01*
X2022Y1189D02*
X2026Y1189D01*
X2125Y1189D02*
X2129Y1189D01*
X2629Y1189D02*
X2636Y1189D01*
X0Y1188D02*
X7Y1188D01*
X154Y1188D02*
X160Y1188D01*
X175Y1188D02*
X181Y1188D01*
X201Y1188D02*
X207Y1188D01*
X228Y1188D02*
X234Y1188D01*
X1054Y1188D02*
X1060Y1188D01*
X1075Y1188D02*
X1081Y1188D01*
X1128Y1188D02*
X1134Y1188D01*
X1154Y1188D02*
X1160Y1188D01*
X1175Y1188D02*
X1181Y1188D01*
X1228Y1188D02*
X1234Y1188D01*
X1323Y1188D02*
X1325Y1188D01*
X1426Y1188D02*
X1429Y1188D01*
X1823Y1188D02*
X1825Y1188D01*
X2023Y1188D02*
X2025Y1188D01*
X2125Y1188D02*
X2129Y1188D01*
X2629Y1188D02*
X2636Y1188D01*
X0Y1187D02*
X7Y1187D01*
X154Y1187D02*
X160Y1187D01*
X175Y1187D02*
X181Y1187D01*
X201Y1187D02*
X207Y1187D01*
X228Y1187D02*
X234Y1187D01*
X1054Y1187D02*
X1060Y1187D01*
X1075Y1187D02*
X1081Y1187D01*
X1128Y1187D02*
X1134Y1187D01*
X1154Y1187D02*
X1160Y1187D01*
X1175Y1187D02*
X1181Y1187D01*
X1228Y1187D02*
X1234Y1187D01*
X1324Y1187D02*
X1324Y1187D01*
X1426Y1187D02*
X1429Y1187D01*
X1824Y1187D02*
X1824Y1187D01*
X2024Y1187D02*
X2024Y1187D01*
X2125Y1187D02*
X2129Y1187D01*
X2629Y1187D02*
X2636Y1187D01*
X0Y1186D02*
X7Y1186D01*
X154Y1186D02*
X160Y1186D01*
X175Y1186D02*
X181Y1186D01*
X201Y1186D02*
X207Y1186D01*
X228Y1186D02*
X234Y1186D01*
X1054Y1186D02*
X1060Y1186D01*
X1075Y1186D02*
X1081Y1186D01*
X1128Y1186D02*
X1134Y1186D01*
X1154Y1186D02*
X1160Y1186D01*
X1175Y1186D02*
X1181Y1186D01*
X1228Y1186D02*
X1234Y1186D01*
X1426Y1186D02*
X1429Y1186D01*
X2125Y1186D02*
X2129Y1186D01*
X2629Y1186D02*
X2636Y1186D01*
X0Y1185D02*
X7Y1185D01*
X154Y1185D02*
X160Y1185D01*
X175Y1185D02*
X181Y1185D01*
X201Y1185D02*
X207Y1185D01*
X228Y1185D02*
X234Y1185D01*
X1054Y1185D02*
X1060Y1185D01*
X1075Y1185D02*
X1081Y1185D01*
X1128Y1185D02*
X1134Y1185D01*
X1154Y1185D02*
X1160Y1185D01*
X1175Y1185D02*
X1181Y1185D01*
X1228Y1185D02*
X1234Y1185D01*
X1426Y1185D02*
X1429Y1185D01*
X2125Y1185D02*
X2129Y1185D01*
X2629Y1185D02*
X2636Y1185D01*
X0Y1184D02*
X7Y1184D01*
X154Y1184D02*
X160Y1184D01*
X175Y1184D02*
X181Y1184D01*
X201Y1184D02*
X207Y1184D01*
X228Y1184D02*
X234Y1184D01*
X1054Y1184D02*
X1060Y1184D01*
X1075Y1184D02*
X1081Y1184D01*
X1128Y1184D02*
X1134Y1184D01*
X1154Y1184D02*
X1160Y1184D01*
X1175Y1184D02*
X1181Y1184D01*
X1228Y1184D02*
X1234Y1184D01*
X1426Y1184D02*
X1429Y1184D01*
X2125Y1184D02*
X2129Y1184D01*
X2629Y1184D02*
X2636Y1184D01*
X0Y1183D02*
X7Y1183D01*
X154Y1183D02*
X160Y1183D01*
X175Y1183D02*
X181Y1183D01*
X201Y1183D02*
X207Y1183D01*
X228Y1183D02*
X234Y1183D01*
X1054Y1183D02*
X1060Y1183D01*
X1075Y1183D02*
X1081Y1183D01*
X1128Y1183D02*
X1134Y1183D01*
X1154Y1183D02*
X1160Y1183D01*
X1175Y1183D02*
X1181Y1183D01*
X1228Y1183D02*
X1234Y1183D01*
X1426Y1183D02*
X1429Y1183D01*
X2125Y1183D02*
X2129Y1183D01*
X2629Y1183D02*
X2636Y1183D01*
X0Y1182D02*
X7Y1182D01*
X154Y1182D02*
X160Y1182D01*
X175Y1182D02*
X181Y1182D01*
X201Y1182D02*
X207Y1182D01*
X228Y1182D02*
X234Y1182D01*
X1054Y1182D02*
X1060Y1182D01*
X1075Y1182D02*
X1081Y1182D01*
X1128Y1182D02*
X1134Y1182D01*
X1154Y1182D02*
X1160Y1182D01*
X1175Y1182D02*
X1181Y1182D01*
X1228Y1182D02*
X1234Y1182D01*
X1426Y1182D02*
X1429Y1182D01*
X2125Y1182D02*
X2129Y1182D01*
X2629Y1182D02*
X2636Y1182D01*
X0Y1181D02*
X7Y1181D01*
X154Y1181D02*
X160Y1181D01*
X175Y1181D02*
X181Y1181D01*
X201Y1181D02*
X207Y1181D01*
X228Y1181D02*
X234Y1181D01*
X1054Y1181D02*
X1060Y1181D01*
X1075Y1181D02*
X1081Y1181D01*
X1128Y1181D02*
X1134Y1181D01*
X1154Y1181D02*
X1160Y1181D01*
X1175Y1181D02*
X1181Y1181D01*
X1228Y1181D02*
X1234Y1181D01*
X1426Y1181D02*
X1429Y1181D01*
X2125Y1181D02*
X2129Y1181D01*
X2629Y1181D02*
X2636Y1181D01*
X0Y1180D02*
X7Y1180D01*
X154Y1180D02*
X160Y1180D01*
X175Y1180D02*
X181Y1180D01*
X201Y1180D02*
X207Y1180D01*
X228Y1180D02*
X234Y1180D01*
X1054Y1180D02*
X1060Y1180D01*
X1075Y1180D02*
X1081Y1180D01*
X1128Y1180D02*
X1134Y1180D01*
X1154Y1180D02*
X1160Y1180D01*
X1175Y1180D02*
X1181Y1180D01*
X1228Y1180D02*
X1234Y1180D01*
X1426Y1180D02*
X1429Y1180D01*
X2125Y1180D02*
X2129Y1180D01*
X2629Y1180D02*
X2636Y1180D01*
X0Y1179D02*
X7Y1179D01*
X154Y1179D02*
X160Y1179D01*
X175Y1179D02*
X181Y1179D01*
X201Y1179D02*
X207Y1179D01*
X228Y1179D02*
X234Y1179D01*
X1054Y1179D02*
X1060Y1179D01*
X1074Y1179D02*
X1081Y1179D01*
X1128Y1179D02*
X1134Y1179D01*
X1154Y1179D02*
X1160Y1179D01*
X1174Y1179D02*
X1181Y1179D01*
X1228Y1179D02*
X1234Y1179D01*
X1426Y1179D02*
X1429Y1179D01*
X2125Y1179D02*
X2129Y1179D01*
X2629Y1179D02*
X2636Y1179D01*
X0Y1178D02*
X7Y1178D01*
X154Y1178D02*
X161Y1178D01*
X174Y1178D02*
X181Y1178D01*
X201Y1178D02*
X207Y1178D01*
X228Y1178D02*
X234Y1178D01*
X1054Y1178D02*
X1060Y1178D01*
X1074Y1178D02*
X1080Y1178D01*
X1128Y1178D02*
X1134Y1178D01*
X1154Y1178D02*
X1160Y1178D01*
X1174Y1178D02*
X1180Y1178D01*
X1202Y1178D02*
X1206Y1178D01*
X1228Y1178D02*
X1234Y1178D01*
X1426Y1178D02*
X1429Y1178D01*
X2125Y1178D02*
X2129Y1178D01*
X2629Y1178D02*
X2636Y1178D01*
X0Y1177D02*
X7Y1177D01*
X154Y1177D02*
X161Y1177D01*
X174Y1177D02*
X181Y1177D01*
X201Y1177D02*
X207Y1177D01*
X228Y1177D02*
X234Y1177D01*
X1054Y1177D02*
X1061Y1177D01*
X1073Y1177D02*
X1080Y1177D01*
X1128Y1177D02*
X1134Y1177D01*
X1154Y1177D02*
X1161Y1177D01*
X1173Y1177D02*
X1180Y1177D01*
X1201Y1177D02*
X1208Y1177D01*
X1228Y1177D02*
X1234Y1177D01*
X1426Y1177D02*
X1429Y1177D01*
X2125Y1177D02*
X2129Y1177D01*
X2629Y1177D02*
X2636Y1177D01*
X0Y1176D02*
X7Y1176D01*
X155Y1176D02*
X164Y1176D01*
X171Y1176D02*
X180Y1176D01*
X201Y1176D02*
X207Y1176D01*
X228Y1176D02*
X234Y1176D01*
X1054Y1176D02*
X1064Y1176D01*
X1071Y1176D02*
X1080Y1176D01*
X1128Y1176D02*
X1134Y1176D01*
X1154Y1176D02*
X1164Y1176D01*
X1171Y1176D02*
X1180Y1176D01*
X1201Y1176D02*
X1211Y1176D01*
X1228Y1176D02*
X1234Y1176D01*
X1426Y1176D02*
X1429Y1176D01*
X2125Y1176D02*
X2129Y1176D01*
X2629Y1176D02*
X2636Y1176D01*
X0Y1175D02*
X7Y1175D01*
X155Y1175D02*
X180Y1175D01*
X201Y1175D02*
X234Y1175D01*
X1055Y1175D02*
X1080Y1175D01*
X1126Y1175D02*
X1134Y1175D01*
X1155Y1175D02*
X1180Y1175D01*
X1200Y1175D02*
X1234Y1175D01*
X1426Y1175D02*
X1429Y1175D01*
X2125Y1175D02*
X2129Y1175D01*
X2629Y1175D02*
X2636Y1175D01*
X0Y1174D02*
X7Y1174D01*
X156Y1174D02*
X179Y1174D01*
X201Y1174D02*
X234Y1174D01*
X1055Y1174D02*
X1079Y1174D01*
X1125Y1174D02*
X1134Y1174D01*
X1155Y1174D02*
X1179Y1174D01*
X1201Y1174D02*
X1234Y1174D01*
X1426Y1174D02*
X1429Y1174D01*
X2125Y1174D02*
X2129Y1174D01*
X2629Y1174D02*
X2636Y1174D01*
X0Y1173D02*
X7Y1173D01*
X156Y1173D02*
X179Y1173D01*
X201Y1173D02*
X234Y1173D01*
X1056Y1173D02*
X1078Y1173D01*
X1125Y1173D02*
X1134Y1173D01*
X1156Y1173D02*
X1178Y1173D01*
X1201Y1173D02*
X1233Y1173D01*
X1426Y1173D02*
X1429Y1173D01*
X2125Y1173D02*
X2129Y1173D01*
X2629Y1173D02*
X2636Y1173D01*
X0Y1172D02*
X7Y1172D01*
X157Y1172D02*
X178Y1172D01*
X202Y1172D02*
X233Y1172D01*
X1057Y1172D02*
X1077Y1172D01*
X1125Y1172D02*
X1134Y1172D01*
X1157Y1172D02*
X1177Y1172D01*
X1203Y1172D02*
X1233Y1172D01*
X1426Y1172D02*
X1429Y1172D01*
X2125Y1172D02*
X2129Y1172D01*
X2629Y1172D02*
X2636Y1172D01*
X0Y1171D02*
X7Y1171D01*
X159Y1171D02*
X176Y1171D01*
X203Y1171D02*
X232Y1171D01*
X1058Y1171D02*
X1076Y1171D01*
X1125Y1171D02*
X1134Y1171D01*
X1158Y1171D02*
X1176Y1171D01*
X1205Y1171D02*
X1232Y1171D01*
X1426Y1171D02*
X1429Y1171D01*
X2125Y1171D02*
X2129Y1171D01*
X2629Y1171D02*
X2636Y1171D01*
X0Y1170D02*
X7Y1170D01*
X160Y1170D02*
X175Y1170D01*
X204Y1170D02*
X231Y1170D01*
X1060Y1170D02*
X1075Y1170D01*
X1126Y1170D02*
X1133Y1170D01*
X1160Y1170D02*
X1174Y1170D01*
X1207Y1170D02*
X1231Y1170D01*
X1426Y1170D02*
X1429Y1170D01*
X2125Y1170D02*
X2129Y1170D01*
X2629Y1170D02*
X2636Y1170D01*
X0Y1169D02*
X7Y1169D01*
X164Y1169D02*
X171Y1169D01*
X207Y1169D02*
X228Y1169D01*
X1064Y1169D02*
X1070Y1169D01*
X1128Y1169D02*
X1131Y1169D01*
X1164Y1169D02*
X1170Y1169D01*
X1212Y1169D02*
X1227Y1169D01*
X1426Y1169D02*
X1429Y1169D01*
X2125Y1169D02*
X2129Y1169D01*
X2629Y1169D02*
X2636Y1169D01*
X0Y1168D02*
X7Y1168D01*
X1426Y1168D02*
X1429Y1168D01*
X2125Y1168D02*
X2129Y1168D01*
X2629Y1168D02*
X2636Y1168D01*
X0Y1167D02*
X7Y1167D01*
X1426Y1167D02*
X1429Y1167D01*
X2125Y1167D02*
X2129Y1167D01*
X2629Y1167D02*
X2636Y1167D01*
X0Y1166D02*
X7Y1166D01*
X1426Y1166D02*
X1429Y1166D01*
X2125Y1166D02*
X2129Y1166D01*
X2629Y1166D02*
X2636Y1166D01*
X0Y1165D02*
X7Y1165D01*
X1426Y1165D02*
X1429Y1165D01*
X2125Y1165D02*
X2129Y1165D01*
X2629Y1165D02*
X2636Y1165D01*
X0Y1164D02*
X7Y1164D01*
X1426Y1164D02*
X1429Y1164D01*
X2125Y1164D02*
X2129Y1164D01*
X2629Y1164D02*
X2636Y1164D01*
X0Y1163D02*
X7Y1163D01*
X1426Y1163D02*
X1429Y1163D01*
X2125Y1163D02*
X2129Y1163D01*
X2629Y1163D02*
X2636Y1163D01*
X0Y1162D02*
X7Y1162D01*
X1426Y1162D02*
X1429Y1162D01*
X2125Y1162D02*
X2129Y1162D01*
X2629Y1162D02*
X2636Y1162D01*
X0Y1161D02*
X7Y1161D01*
X1426Y1161D02*
X1429Y1161D01*
X2125Y1161D02*
X2129Y1161D01*
X2629Y1161D02*
X2636Y1161D01*
X0Y1160D02*
X7Y1160D01*
X1426Y1160D02*
X1429Y1160D01*
X2125Y1160D02*
X2129Y1160D01*
X2629Y1160D02*
X2636Y1160D01*
X0Y1159D02*
X7Y1159D01*
X1426Y1159D02*
X1429Y1159D01*
X2125Y1159D02*
X2129Y1159D01*
X2629Y1159D02*
X2636Y1159D01*
X0Y1158D02*
X7Y1158D01*
X1426Y1158D02*
X1429Y1158D01*
X2125Y1158D02*
X2129Y1158D01*
X2629Y1158D02*
X2636Y1158D01*
X0Y1157D02*
X7Y1157D01*
X1426Y1157D02*
X1429Y1157D01*
X2125Y1157D02*
X2129Y1157D01*
X2629Y1157D02*
X2636Y1157D01*
X0Y1156D02*
X7Y1156D01*
X1426Y1156D02*
X1429Y1156D01*
X2125Y1156D02*
X2129Y1156D01*
X2629Y1156D02*
X2636Y1156D01*
X0Y1155D02*
X7Y1155D01*
X1426Y1155D02*
X1429Y1155D01*
X2125Y1155D02*
X2129Y1155D01*
X2629Y1155D02*
X2636Y1155D01*
X0Y1154D02*
X7Y1154D01*
X1426Y1154D02*
X1429Y1154D01*
X2125Y1154D02*
X2129Y1154D01*
X2629Y1154D02*
X2636Y1154D01*
X0Y1153D02*
X7Y1153D01*
X1426Y1153D02*
X1429Y1153D01*
X2125Y1153D02*
X2129Y1153D01*
X2629Y1153D02*
X2636Y1153D01*
X0Y1152D02*
X7Y1152D01*
X1426Y1152D02*
X1429Y1152D01*
X2125Y1152D02*
X2129Y1152D01*
X2629Y1152D02*
X2636Y1152D01*
X0Y1151D02*
X7Y1151D01*
X1426Y1151D02*
X1429Y1151D01*
X2125Y1151D02*
X2129Y1151D01*
X2629Y1151D02*
X2636Y1151D01*
X0Y1150D02*
X7Y1150D01*
X1426Y1150D02*
X1429Y1150D01*
X2125Y1150D02*
X2129Y1150D01*
X2629Y1150D02*
X2636Y1150D01*
X0Y1149D02*
X7Y1149D01*
X1426Y1149D02*
X1429Y1149D01*
X2125Y1149D02*
X2129Y1149D01*
X2629Y1149D02*
X2636Y1149D01*
X0Y1148D02*
X7Y1148D01*
X1426Y1148D02*
X1429Y1148D01*
X2125Y1148D02*
X2129Y1148D01*
X2629Y1148D02*
X2636Y1148D01*
X0Y1147D02*
X7Y1147D01*
X1426Y1147D02*
X1429Y1147D01*
X2125Y1147D02*
X2129Y1147D01*
X2629Y1147D02*
X2636Y1147D01*
X0Y1146D02*
X7Y1146D01*
X1426Y1146D02*
X1429Y1146D01*
X2125Y1146D02*
X2129Y1146D01*
X2629Y1146D02*
X2636Y1146D01*
X0Y1145D02*
X7Y1145D01*
X1426Y1145D02*
X1429Y1145D01*
X2125Y1145D02*
X2129Y1145D01*
X2629Y1145D02*
X2636Y1145D01*
X0Y1144D02*
X7Y1144D01*
X1426Y1144D02*
X1429Y1144D01*
X2125Y1144D02*
X2129Y1144D01*
X2629Y1144D02*
X2636Y1144D01*
X0Y1143D02*
X7Y1143D01*
X1426Y1143D02*
X1429Y1143D01*
X2125Y1143D02*
X2129Y1143D01*
X2629Y1143D02*
X2636Y1143D01*
X0Y1142D02*
X7Y1142D01*
X1426Y1142D02*
X1429Y1142D01*
X2125Y1142D02*
X2129Y1142D01*
X2629Y1142D02*
X2636Y1142D01*
X0Y1141D02*
X7Y1141D01*
X1426Y1141D02*
X1429Y1141D01*
X2125Y1141D02*
X2129Y1141D01*
X2629Y1141D02*
X2636Y1141D01*
X0Y1140D02*
X7Y1140D01*
X1426Y1140D02*
X1429Y1140D01*
X2125Y1140D02*
X2129Y1140D01*
X2629Y1140D02*
X2636Y1140D01*
X0Y1139D02*
X7Y1139D01*
X1426Y1139D02*
X1429Y1139D01*
X2125Y1139D02*
X2129Y1139D01*
X2629Y1139D02*
X2636Y1139D01*
X0Y1138D02*
X7Y1138D01*
X1426Y1138D02*
X1429Y1138D01*
X2125Y1138D02*
X2129Y1138D01*
X2629Y1138D02*
X2636Y1138D01*
X0Y1137D02*
X7Y1137D01*
X1426Y1137D02*
X1429Y1137D01*
X2125Y1137D02*
X2129Y1137D01*
X2629Y1137D02*
X2636Y1137D01*
X0Y1136D02*
X7Y1136D01*
X1426Y1136D02*
X1429Y1136D01*
X2125Y1136D02*
X2129Y1136D01*
X2629Y1136D02*
X2636Y1136D01*
X0Y1135D02*
X7Y1135D01*
X1426Y1135D02*
X1429Y1135D01*
X2125Y1135D02*
X2129Y1135D01*
X2629Y1135D02*
X2636Y1135D01*
X0Y1134D02*
X7Y1134D01*
X1426Y1134D02*
X1429Y1134D01*
X2125Y1134D02*
X2129Y1134D01*
X2629Y1134D02*
X2636Y1134D01*
X0Y1133D02*
X7Y1133D01*
X1426Y1133D02*
X1429Y1133D01*
X2125Y1133D02*
X2129Y1133D01*
X2629Y1133D02*
X2636Y1133D01*
X0Y1132D02*
X7Y1132D01*
X1426Y1132D02*
X1429Y1132D01*
X2125Y1132D02*
X2129Y1132D01*
X2629Y1132D02*
X2636Y1132D01*
X0Y1131D02*
X7Y1131D01*
X1426Y1131D02*
X1429Y1131D01*
X2125Y1131D02*
X2129Y1131D01*
X2629Y1131D02*
X2636Y1131D01*
X0Y1130D02*
X7Y1130D01*
X1426Y1130D02*
X1434Y1130D01*
X2125Y1130D02*
X2134Y1130D01*
X2629Y1130D02*
X2636Y1130D01*
X0Y1129D02*
X7Y1129D01*
X1426Y1129D02*
X1434Y1129D01*
X2125Y1129D02*
X2134Y1129D01*
X2629Y1129D02*
X2636Y1129D01*
X0Y1128D02*
X7Y1128D01*
X1426Y1128D02*
X1434Y1128D01*
X2125Y1128D02*
X2134Y1128D01*
X2629Y1128D02*
X2636Y1128D01*
X0Y1127D02*
X7Y1127D01*
X1426Y1127D02*
X1434Y1127D01*
X2125Y1127D02*
X2134Y1127D01*
X2629Y1127D02*
X2636Y1127D01*
X0Y1126D02*
X7Y1126D01*
X1426Y1126D02*
X1434Y1126D01*
X2125Y1126D02*
X2134Y1126D01*
X2629Y1126D02*
X2636Y1126D01*
X0Y1125D02*
X7Y1125D01*
X1426Y1125D02*
X1434Y1125D01*
X2125Y1125D02*
X2134Y1125D01*
X2629Y1125D02*
X2636Y1125D01*
X0Y1124D02*
X7Y1124D01*
X55Y1124D02*
X56Y1124D01*
X955Y1124D02*
X956Y1124D01*
X1055Y1124D02*
X1056Y1124D01*
X1426Y1124D02*
X1434Y1124D01*
X2125Y1124D02*
X2134Y1124D01*
X2629Y1124D02*
X2636Y1124D01*
X0Y1123D02*
X7Y1123D01*
X54Y1123D02*
X57Y1123D01*
X954Y1123D02*
X957Y1123D01*
X1054Y1123D02*
X1057Y1123D01*
X1426Y1123D02*
X1434Y1123D01*
X2125Y1123D02*
X2134Y1123D01*
X2629Y1123D02*
X2636Y1123D01*
X0Y1122D02*
X7Y1122D01*
X53Y1122D02*
X58Y1122D01*
X953Y1122D02*
X958Y1122D01*
X1053Y1122D02*
X1058Y1122D01*
X1426Y1122D02*
X1434Y1122D01*
X2125Y1122D02*
X2134Y1122D01*
X2629Y1122D02*
X2636Y1122D01*
X0Y1121D02*
X7Y1121D01*
X52Y1121D02*
X58Y1121D01*
X952Y1121D02*
X958Y1121D01*
X1052Y1121D02*
X1058Y1121D01*
X1426Y1121D02*
X1434Y1121D01*
X2125Y1121D02*
X2134Y1121D01*
X2629Y1121D02*
X2636Y1121D01*
X0Y1120D02*
X7Y1120D01*
X51Y1120D02*
X57Y1120D01*
X951Y1120D02*
X957Y1120D01*
X1051Y1120D02*
X1057Y1120D01*
X1426Y1120D02*
X1434Y1120D01*
X2125Y1120D02*
X2134Y1120D01*
X2629Y1120D02*
X2636Y1120D01*
X0Y1119D02*
X7Y1119D01*
X50Y1119D02*
X56Y1119D01*
X950Y1119D02*
X956Y1119D01*
X1050Y1119D02*
X1056Y1119D01*
X1426Y1119D02*
X1434Y1119D01*
X2125Y1119D02*
X2134Y1119D01*
X2629Y1119D02*
X2636Y1119D01*
X0Y1118D02*
X7Y1118D01*
X49Y1118D02*
X55Y1118D01*
X949Y1118D02*
X955Y1118D01*
X1049Y1118D02*
X1055Y1118D01*
X1426Y1118D02*
X1434Y1118D01*
X2125Y1118D02*
X2134Y1118D01*
X2629Y1118D02*
X2636Y1118D01*
X0Y1117D02*
X7Y1117D01*
X48Y1117D02*
X54Y1117D01*
X948Y1117D02*
X954Y1117D01*
X1048Y1117D02*
X1054Y1117D01*
X1426Y1117D02*
X1434Y1117D01*
X2125Y1117D02*
X2134Y1117D01*
X2629Y1117D02*
X2636Y1117D01*
X0Y1116D02*
X7Y1116D01*
X47Y1116D02*
X53Y1116D01*
X947Y1116D02*
X953Y1116D01*
X1047Y1116D02*
X1053Y1116D01*
X1426Y1116D02*
X1434Y1116D01*
X2125Y1116D02*
X2134Y1116D01*
X2629Y1116D02*
X2636Y1116D01*
X0Y1115D02*
X7Y1115D01*
X46Y1115D02*
X52Y1115D01*
X946Y1115D02*
X952Y1115D01*
X1046Y1115D02*
X1052Y1115D01*
X1426Y1115D02*
X1434Y1115D01*
X2125Y1115D02*
X2134Y1115D01*
X2629Y1115D02*
X2636Y1115D01*
X0Y1114D02*
X7Y1114D01*
X45Y1114D02*
X51Y1114D01*
X945Y1114D02*
X951Y1114D01*
X1045Y1114D02*
X1051Y1114D01*
X1426Y1114D02*
X1434Y1114D01*
X2125Y1114D02*
X2134Y1114D01*
X2629Y1114D02*
X2636Y1114D01*
X0Y1113D02*
X7Y1113D01*
X44Y1113D02*
X50Y1113D01*
X944Y1113D02*
X950Y1113D01*
X1044Y1113D02*
X1050Y1113D01*
X1426Y1113D02*
X1434Y1113D01*
X1843Y1113D02*
X1853Y1113D01*
X1907Y1113D02*
X1921Y1113D01*
X1943Y1113D02*
X1960Y1113D01*
X2125Y1113D02*
X2134Y1113D01*
X2543Y1113D02*
X2552Y1113D01*
X2607Y1113D02*
X2621Y1113D01*
X2629Y1113D02*
X2636Y1113D01*
X0Y1112D02*
X7Y1112D01*
X43Y1112D02*
X49Y1112D01*
X943Y1112D02*
X949Y1112D01*
X1043Y1112D02*
X1049Y1112D01*
X1426Y1112D02*
X1434Y1112D01*
X1841Y1112D02*
X1851Y1112D01*
X1904Y1112D02*
X1923Y1112D01*
X1941Y1112D02*
X1960Y1112D01*
X2125Y1112D02*
X2134Y1112D01*
X2541Y1112D02*
X2550Y1112D01*
X2603Y1112D02*
X2623Y1112D01*
X2629Y1112D02*
X2636Y1112D01*
X0Y1111D02*
X7Y1111D01*
X42Y1111D02*
X48Y1111D01*
X942Y1111D02*
X948Y1111D01*
X1042Y1111D02*
X1048Y1111D01*
X1426Y1111D02*
X1434Y1111D01*
X1841Y1111D02*
X1849Y1111D01*
X1902Y1111D02*
X1923Y1111D01*
X1941Y1111D02*
X1960Y1111D01*
X2125Y1111D02*
X2134Y1111D01*
X2540Y1111D02*
X2549Y1111D01*
X2602Y1111D02*
X2623Y1111D01*
X2629Y1111D02*
X2636Y1111D01*
X0Y1110D02*
X7Y1110D01*
X41Y1110D02*
X47Y1110D01*
X941Y1110D02*
X947Y1110D01*
X1041Y1110D02*
X1047Y1110D01*
X1426Y1110D02*
X1434Y1110D01*
X1840Y1110D02*
X1847Y1110D01*
X1901Y1110D02*
X1924Y1110D01*
X1940Y1110D02*
X1960Y1110D01*
X2125Y1110D02*
X2134Y1110D01*
X2540Y1110D02*
X2547Y1110D01*
X2601Y1110D02*
X2624Y1110D01*
X2629Y1110D02*
X2636Y1110D01*
X0Y1109D02*
X7Y1109D01*
X40Y1109D02*
X46Y1109D01*
X940Y1109D02*
X946Y1109D01*
X1040Y1109D02*
X1046Y1109D01*
X1426Y1109D02*
X1434Y1109D01*
X1840Y1109D02*
X1846Y1109D01*
X1900Y1109D02*
X1924Y1109D01*
X1940Y1109D02*
X1960Y1109D01*
X2125Y1109D02*
X2134Y1109D01*
X2540Y1109D02*
X2546Y1109D01*
X2600Y1109D02*
X2623Y1109D01*
X2629Y1109D02*
X2636Y1109D01*
X0Y1108D02*
X7Y1108D01*
X39Y1108D02*
X45Y1108D01*
X939Y1108D02*
X945Y1108D01*
X1039Y1108D02*
X1045Y1108D01*
X1426Y1108D02*
X1434Y1108D01*
X1841Y1108D02*
X1844Y1108D01*
X1899Y1108D02*
X1923Y1108D01*
X1941Y1108D02*
X1960Y1108D01*
X2125Y1108D02*
X2134Y1108D01*
X2541Y1108D02*
X2544Y1108D01*
X2599Y1108D02*
X2623Y1108D01*
X2629Y1108D02*
X2636Y1108D01*
X0Y1107D02*
X7Y1107D01*
X38Y1107D02*
X44Y1107D01*
X938Y1107D02*
X943Y1107D01*
X1038Y1107D02*
X1043Y1107D01*
X1426Y1107D02*
X1434Y1107D01*
X1842Y1107D02*
X1843Y1107D01*
X1901Y1107D02*
X1922Y1107D01*
X1942Y1107D02*
X1960Y1107D01*
X2125Y1107D02*
X2134Y1107D01*
X2541Y1107D02*
X2543Y1107D01*
X2600Y1107D02*
X2622Y1107D01*
X2629Y1107D02*
X2636Y1107D01*
X0Y1106D02*
X7Y1106D01*
X37Y1106D02*
X43Y1106D01*
X937Y1106D02*
X942Y1106D01*
X1037Y1106D02*
X1042Y1106D01*
X1426Y1106D02*
X1434Y1106D01*
X1902Y1106D02*
X1906Y1106D01*
X1954Y1106D02*
X1960Y1106D01*
X2125Y1106D02*
X2134Y1106D01*
X2601Y1106D02*
X2606Y1106D01*
X2629Y1106D02*
X2636Y1106D01*
X0Y1105D02*
X7Y1105D01*
X36Y1105D02*
X41Y1105D01*
X936Y1105D02*
X941Y1105D01*
X1036Y1105D02*
X1041Y1105D01*
X1426Y1105D02*
X1434Y1105D01*
X1903Y1105D02*
X1905Y1105D01*
X1954Y1105D02*
X1960Y1105D01*
X2125Y1105D02*
X2134Y1105D01*
X2603Y1105D02*
X2605Y1105D01*
X2629Y1105D02*
X2636Y1105D01*
X0Y1104D02*
X7Y1104D01*
X35Y1104D02*
X40Y1104D01*
X935Y1104D02*
X940Y1104D01*
X1035Y1104D02*
X1040Y1104D01*
X1426Y1104D02*
X1434Y1104D01*
X1904Y1104D02*
X1904Y1104D01*
X1954Y1104D02*
X1960Y1104D01*
X2125Y1104D02*
X2134Y1104D01*
X2604Y1104D02*
X2604Y1104D01*
X2629Y1104D02*
X2636Y1104D01*
X0Y1103D02*
X7Y1103D01*
X34Y1103D02*
X40Y1103D01*
X934Y1103D02*
X939Y1103D01*
X1034Y1103D02*
X1039Y1103D01*
X1426Y1103D02*
X1434Y1103D01*
X1954Y1103D02*
X1960Y1103D01*
X2125Y1103D02*
X2134Y1103D01*
X2629Y1103D02*
X2636Y1103D01*
X0Y1102D02*
X7Y1102D01*
X33Y1102D02*
X39Y1102D01*
X933Y1102D02*
X938Y1102D01*
X1033Y1102D02*
X1038Y1102D01*
X1426Y1102D02*
X1434Y1102D01*
X1954Y1102D02*
X1960Y1102D01*
X2125Y1102D02*
X2134Y1102D01*
X2629Y1102D02*
X2636Y1102D01*
X0Y1101D02*
X7Y1101D01*
X32Y1101D02*
X38Y1101D01*
X932Y1101D02*
X938Y1101D01*
X1032Y1101D02*
X1038Y1101D01*
X1426Y1101D02*
X1434Y1101D01*
X1954Y1101D02*
X1960Y1101D01*
X2125Y1101D02*
X2134Y1101D01*
X2629Y1101D02*
X2636Y1101D01*
X0Y1100D02*
X7Y1100D01*
X31Y1100D02*
X37Y1100D01*
X931Y1100D02*
X937Y1100D01*
X1031Y1100D02*
X1037Y1100D01*
X1426Y1100D02*
X1434Y1100D01*
X1954Y1100D02*
X1960Y1100D01*
X2125Y1100D02*
X2134Y1100D01*
X2629Y1100D02*
X2636Y1100D01*
X0Y1099D02*
X7Y1099D01*
X30Y1099D02*
X36Y1099D01*
X930Y1099D02*
X936Y1099D01*
X1030Y1099D02*
X1036Y1099D01*
X1426Y1099D02*
X1434Y1099D01*
X1954Y1099D02*
X1960Y1099D01*
X2125Y1099D02*
X2134Y1099D01*
X2629Y1099D02*
X2636Y1099D01*
X0Y1098D02*
X7Y1098D01*
X29Y1098D02*
X35Y1098D01*
X929Y1098D02*
X935Y1098D01*
X1029Y1098D02*
X1035Y1098D01*
X1426Y1098D02*
X1434Y1098D01*
X1954Y1098D02*
X1960Y1098D01*
X2125Y1098D02*
X2134Y1098D01*
X2629Y1098D02*
X2636Y1098D01*
X0Y1097D02*
X7Y1097D01*
X28Y1097D02*
X34Y1097D01*
X928Y1097D02*
X934Y1097D01*
X1028Y1097D02*
X1034Y1097D01*
X1426Y1097D02*
X1434Y1097D01*
X1954Y1097D02*
X1960Y1097D01*
X2125Y1097D02*
X2134Y1097D01*
X2629Y1097D02*
X2636Y1097D01*
X0Y1096D02*
X7Y1096D01*
X27Y1096D02*
X33Y1096D01*
X927Y1096D02*
X933Y1096D01*
X1027Y1096D02*
X1033Y1096D01*
X1426Y1096D02*
X1434Y1096D01*
X1954Y1096D02*
X1960Y1096D01*
X2125Y1096D02*
X2134Y1096D01*
X2629Y1096D02*
X2636Y1096D01*
X0Y1095D02*
X7Y1095D01*
X26Y1095D02*
X32Y1095D01*
X926Y1095D02*
X932Y1095D01*
X1026Y1095D02*
X1032Y1095D01*
X1426Y1095D02*
X1434Y1095D01*
X1954Y1095D02*
X1960Y1095D01*
X2125Y1095D02*
X2134Y1095D01*
X2629Y1095D02*
X2636Y1095D01*
X0Y1094D02*
X7Y1094D01*
X25Y1094D02*
X31Y1094D01*
X925Y1094D02*
X931Y1094D01*
X1025Y1094D02*
X1031Y1094D01*
X1426Y1094D02*
X1434Y1094D01*
X1954Y1094D02*
X1960Y1094D01*
X2125Y1094D02*
X2134Y1094D01*
X2629Y1094D02*
X2636Y1094D01*
X0Y1093D02*
X7Y1093D01*
X24Y1093D02*
X30Y1093D01*
X924Y1093D02*
X930Y1093D01*
X1024Y1093D02*
X1030Y1093D01*
X1426Y1093D02*
X1434Y1093D01*
X1954Y1093D02*
X1960Y1093D01*
X2125Y1093D02*
X2134Y1093D01*
X2629Y1093D02*
X2636Y1093D01*
X0Y1092D02*
X7Y1092D01*
X23Y1092D02*
X29Y1092D01*
X923Y1092D02*
X929Y1092D01*
X1023Y1092D02*
X1029Y1092D01*
X1426Y1092D02*
X1433Y1092D01*
X1954Y1092D02*
X1960Y1092D01*
X2125Y1092D02*
X2133Y1092D01*
X2629Y1092D02*
X2636Y1092D01*
X0Y1091D02*
X7Y1091D01*
X22Y1091D02*
X28Y1091D01*
X922Y1091D02*
X928Y1091D01*
X1022Y1091D02*
X1028Y1091D01*
X1426Y1091D02*
X1433Y1091D01*
X1954Y1091D02*
X1960Y1091D01*
X2125Y1091D02*
X2133Y1091D01*
X2629Y1091D02*
X2636Y1091D01*
X0Y1090D02*
X7Y1090D01*
X21Y1090D02*
X27Y1090D01*
X921Y1090D02*
X927Y1090D01*
X1021Y1090D02*
X1027Y1090D01*
X1426Y1090D02*
X1432Y1090D01*
X1954Y1090D02*
X1960Y1090D01*
X2125Y1090D02*
X2132Y1090D01*
X2629Y1090D02*
X2636Y1090D01*
X0Y1089D02*
X7Y1089D01*
X22Y1089D02*
X26Y1089D01*
X922Y1089D02*
X926Y1089D01*
X1022Y1089D02*
X1026Y1089D01*
X1426Y1089D02*
X1432Y1089D01*
X1954Y1089D02*
X1960Y1089D01*
X2125Y1089D02*
X2132Y1089D01*
X2629Y1089D02*
X2636Y1089D01*
X0Y1088D02*
X7Y1088D01*
X23Y1088D02*
X25Y1088D01*
X923Y1088D02*
X925Y1088D01*
X1023Y1088D02*
X1025Y1088D01*
X1426Y1088D02*
X1432Y1088D01*
X1954Y1088D02*
X1960Y1088D01*
X2125Y1088D02*
X2131Y1088D01*
X2629Y1088D02*
X2636Y1088D01*
X0Y1087D02*
X7Y1087D01*
X24Y1087D02*
X24Y1087D01*
X924Y1087D02*
X924Y1087D01*
X1024Y1087D02*
X1024Y1087D01*
X1426Y1087D02*
X1431Y1087D01*
X1954Y1087D02*
X1960Y1087D01*
X2125Y1087D02*
X2131Y1087D01*
X2629Y1087D02*
X2636Y1087D01*
X0Y1086D02*
X7Y1086D01*
X1426Y1086D02*
X1431Y1086D01*
X1954Y1086D02*
X1960Y1086D01*
X2125Y1086D02*
X2131Y1086D01*
X2629Y1086D02*
X2636Y1086D01*
X0Y1085D02*
X7Y1085D01*
X1426Y1085D02*
X1431Y1085D01*
X1954Y1085D02*
X1960Y1085D01*
X2125Y1085D02*
X2131Y1085D01*
X2629Y1085D02*
X2636Y1085D01*
X0Y1084D02*
X7Y1084D01*
X1426Y1084D02*
X1430Y1084D01*
X1954Y1084D02*
X1960Y1084D01*
X2125Y1084D02*
X2130Y1084D01*
X2629Y1084D02*
X2636Y1084D01*
X0Y1083D02*
X7Y1083D01*
X1426Y1083D02*
X1430Y1083D01*
X1954Y1083D02*
X1960Y1083D01*
X1969Y1083D02*
X1972Y1083D01*
X2125Y1083D02*
X2130Y1083D01*
X2629Y1083D02*
X2636Y1083D01*
X0Y1082D02*
X7Y1082D01*
X1426Y1082D02*
X1430Y1082D01*
X1954Y1082D02*
X1960Y1082D01*
X1968Y1082D02*
X1973Y1082D01*
X2125Y1082D02*
X2130Y1082D01*
X2629Y1082D02*
X2636Y1082D01*
X0Y1081D02*
X7Y1081D01*
X1426Y1081D02*
X1430Y1081D01*
X1954Y1081D02*
X1960Y1081D01*
X1968Y1081D02*
X1974Y1081D01*
X2125Y1081D02*
X2130Y1081D01*
X2629Y1081D02*
X2636Y1081D01*
X0Y1080D02*
X7Y1080D01*
X1426Y1080D02*
X1430Y1080D01*
X1954Y1080D02*
X1960Y1080D01*
X1968Y1080D02*
X1974Y1080D01*
X2125Y1080D02*
X2129Y1080D01*
X2629Y1080D02*
X2636Y1080D01*
X0Y1079D02*
X7Y1079D01*
X1426Y1079D02*
X1429Y1079D01*
X1954Y1079D02*
X1960Y1079D01*
X1968Y1079D02*
X1974Y1079D01*
X2125Y1079D02*
X2129Y1079D01*
X2629Y1079D02*
X2636Y1079D01*
X0Y1078D02*
X7Y1078D01*
X1426Y1078D02*
X1429Y1078D01*
X1954Y1078D02*
X1960Y1078D01*
X1968Y1078D02*
X1974Y1078D01*
X2125Y1078D02*
X2129Y1078D01*
X2629Y1078D02*
X2636Y1078D01*
X0Y1077D02*
X7Y1077D01*
X1426Y1077D02*
X1429Y1077D01*
X1954Y1077D02*
X1960Y1077D01*
X1968Y1077D02*
X1974Y1077D01*
X2125Y1077D02*
X2129Y1077D01*
X2629Y1077D02*
X2636Y1077D01*
X0Y1076D02*
X7Y1076D01*
X1426Y1076D02*
X1429Y1076D01*
X1954Y1076D02*
X1960Y1076D01*
X1968Y1076D02*
X1974Y1076D01*
X2125Y1076D02*
X2129Y1076D01*
X2629Y1076D02*
X2636Y1076D01*
X0Y1075D02*
X7Y1075D01*
X1426Y1075D02*
X1429Y1075D01*
X1954Y1075D02*
X1960Y1075D01*
X1968Y1075D02*
X1974Y1075D01*
X2125Y1075D02*
X2129Y1075D01*
X2629Y1075D02*
X2636Y1075D01*
X0Y1074D02*
X7Y1074D01*
X1426Y1074D02*
X1429Y1074D01*
X1954Y1074D02*
X1960Y1074D01*
X1968Y1074D02*
X1974Y1074D01*
X2125Y1074D02*
X2129Y1074D01*
X2629Y1074D02*
X2636Y1074D01*
X0Y1073D02*
X7Y1073D01*
X1426Y1073D02*
X1429Y1073D01*
X1954Y1073D02*
X1960Y1073D01*
X1968Y1073D02*
X1974Y1073D01*
X2125Y1073D02*
X2129Y1073D01*
X2629Y1073D02*
X2636Y1073D01*
X0Y1072D02*
X7Y1072D01*
X1426Y1072D02*
X1429Y1072D01*
X1954Y1072D02*
X1960Y1072D01*
X1968Y1072D02*
X1974Y1072D01*
X2125Y1072D02*
X2129Y1072D01*
X2629Y1072D02*
X2636Y1072D01*
X0Y1071D02*
X7Y1071D01*
X1426Y1071D02*
X1429Y1071D01*
X1954Y1071D02*
X1960Y1071D01*
X1968Y1071D02*
X1974Y1071D01*
X2125Y1071D02*
X2129Y1071D01*
X2629Y1071D02*
X2636Y1071D01*
X0Y1070D02*
X7Y1070D01*
X1426Y1070D02*
X1429Y1070D01*
X1954Y1070D02*
X1960Y1070D01*
X1968Y1070D02*
X1974Y1070D01*
X2125Y1070D02*
X2129Y1070D01*
X2629Y1070D02*
X2636Y1070D01*
X0Y1069D02*
X7Y1069D01*
X1426Y1069D02*
X1429Y1069D01*
X1954Y1069D02*
X1960Y1069D01*
X1968Y1069D02*
X1974Y1069D01*
X2125Y1069D02*
X2129Y1069D01*
X2629Y1069D02*
X2636Y1069D01*
X0Y1068D02*
X7Y1068D01*
X1426Y1068D02*
X1429Y1068D01*
X1954Y1068D02*
X1960Y1068D01*
X1968Y1068D02*
X1974Y1068D01*
X2125Y1068D02*
X2129Y1068D01*
X2629Y1068D02*
X2636Y1068D01*
X0Y1067D02*
X7Y1067D01*
X1426Y1067D02*
X1430Y1067D01*
X1954Y1067D02*
X1960Y1067D01*
X1968Y1067D02*
X1974Y1067D01*
X2125Y1067D02*
X2129Y1067D01*
X2629Y1067D02*
X2636Y1067D01*
X0Y1066D02*
X7Y1066D01*
X1426Y1066D02*
X1430Y1066D01*
X1916Y1066D02*
X1920Y1066D01*
X1944Y1066D02*
X1974Y1066D01*
X2125Y1066D02*
X2130Y1066D01*
X2615Y1066D02*
X2620Y1066D01*
X2629Y1066D02*
X2636Y1066D01*
X0Y1065D02*
X7Y1065D01*
X1426Y1065D02*
X1430Y1065D01*
X1915Y1065D02*
X1923Y1065D01*
X1941Y1065D02*
X1974Y1065D01*
X2125Y1065D02*
X2130Y1065D01*
X2615Y1065D02*
X2622Y1065D01*
X2629Y1065D02*
X2636Y1065D01*
X0Y1064D02*
X7Y1064D01*
X1426Y1064D02*
X1430Y1064D01*
X1915Y1064D02*
X1923Y1064D01*
X1941Y1064D02*
X1974Y1064D01*
X2125Y1064D02*
X2130Y1064D01*
X2615Y1064D02*
X2623Y1064D01*
X2629Y1064D02*
X2636Y1064D01*
X0Y1063D02*
X7Y1063D01*
X1426Y1063D02*
X1430Y1063D01*
X1915Y1063D02*
X1924Y1063D01*
X1940Y1063D02*
X1974Y1063D01*
X2125Y1063D02*
X2130Y1063D01*
X2615Y1063D02*
X2623Y1063D01*
X2629Y1063D02*
X2636Y1063D01*
X0Y1062D02*
X7Y1062D01*
X1426Y1062D02*
X1431Y1062D01*
X1915Y1062D02*
X1924Y1062D01*
X1940Y1062D02*
X1974Y1062D01*
X2125Y1062D02*
X2130Y1062D01*
X2615Y1062D02*
X2623Y1062D01*
X2629Y1062D02*
X2636Y1062D01*
X0Y1061D02*
X7Y1061D01*
X1426Y1061D02*
X1431Y1061D01*
X1915Y1061D02*
X1923Y1061D01*
X1941Y1061D02*
X1973Y1061D01*
X2125Y1061D02*
X2131Y1061D01*
X2614Y1061D02*
X2623Y1061D01*
X2629Y1061D02*
X2636Y1061D01*
X0Y1060D02*
X7Y1060D01*
X1426Y1060D02*
X1431Y1060D01*
X1914Y1060D02*
X1923Y1060D01*
X1941Y1060D02*
X1973Y1060D01*
X2125Y1060D02*
X2131Y1060D01*
X2614Y1060D02*
X2622Y1060D01*
X2629Y1060D02*
X2636Y1060D01*
X0Y1059D02*
X7Y1059D01*
X1426Y1059D02*
X1432Y1059D01*
X2125Y1059D02*
X2131Y1059D01*
X2629Y1059D02*
X2636Y1059D01*
X0Y1058D02*
X7Y1058D01*
X1426Y1058D02*
X1432Y1058D01*
X2125Y1058D02*
X2132Y1058D01*
X2629Y1058D02*
X2636Y1058D01*
X0Y1057D02*
X7Y1057D01*
X1426Y1057D02*
X1432Y1057D01*
X2125Y1057D02*
X2132Y1057D01*
X2629Y1057D02*
X2636Y1057D01*
X0Y1056D02*
X7Y1056D01*
X1426Y1056D02*
X1433Y1056D01*
X2125Y1056D02*
X2133Y1056D01*
X2629Y1056D02*
X2636Y1056D01*
X0Y1055D02*
X7Y1055D01*
X1426Y1055D02*
X1433Y1055D01*
X2125Y1055D02*
X2133Y1055D01*
X2629Y1055D02*
X2636Y1055D01*
X0Y1054D02*
X7Y1054D01*
X1426Y1054D02*
X1434Y1054D01*
X2125Y1054D02*
X2134Y1054D01*
X2629Y1054D02*
X2636Y1054D01*
X0Y1053D02*
X7Y1053D01*
X1426Y1053D02*
X1434Y1053D01*
X2125Y1053D02*
X2134Y1053D01*
X2629Y1053D02*
X2636Y1053D01*
X0Y1052D02*
X7Y1052D01*
X1426Y1052D02*
X1434Y1052D01*
X2125Y1052D02*
X2134Y1052D01*
X2629Y1052D02*
X2636Y1052D01*
X0Y1051D02*
X7Y1051D01*
X1426Y1051D02*
X1434Y1051D01*
X2125Y1051D02*
X2134Y1051D01*
X2629Y1051D02*
X2636Y1051D01*
X0Y1050D02*
X7Y1050D01*
X1426Y1050D02*
X1434Y1050D01*
X2125Y1050D02*
X2134Y1050D01*
X2629Y1050D02*
X2636Y1050D01*
X0Y1049D02*
X7Y1049D01*
X1426Y1049D02*
X1434Y1049D01*
X2125Y1049D02*
X2134Y1049D01*
X2629Y1049D02*
X2636Y1049D01*
X0Y1048D02*
X7Y1048D01*
X1426Y1048D02*
X1434Y1048D01*
X2125Y1048D02*
X2134Y1048D01*
X2629Y1048D02*
X2636Y1048D01*
X0Y1047D02*
X7Y1047D01*
X1426Y1047D02*
X1434Y1047D01*
X2125Y1047D02*
X2134Y1047D01*
X2629Y1047D02*
X2636Y1047D01*
X0Y1046D02*
X7Y1046D01*
X1426Y1046D02*
X1434Y1046D01*
X2125Y1046D02*
X2134Y1046D01*
X2629Y1046D02*
X2636Y1046D01*
X0Y1045D02*
X7Y1045D01*
X1426Y1045D02*
X1434Y1045D01*
X2125Y1045D02*
X2134Y1045D01*
X2629Y1045D02*
X2636Y1045D01*
X0Y1044D02*
X7Y1044D01*
X1426Y1044D02*
X1434Y1044D01*
X2125Y1044D02*
X2134Y1044D01*
X2629Y1044D02*
X2636Y1044D01*
X0Y1043D02*
X7Y1043D01*
X1426Y1043D02*
X1434Y1043D01*
X2125Y1043D02*
X2134Y1043D01*
X2629Y1043D02*
X2636Y1043D01*
X0Y1042D02*
X7Y1042D01*
X1426Y1042D02*
X1434Y1042D01*
X2125Y1042D02*
X2134Y1042D01*
X2629Y1042D02*
X2636Y1042D01*
X0Y1041D02*
X7Y1041D01*
X1426Y1041D02*
X1434Y1041D01*
X2125Y1041D02*
X2134Y1041D01*
X2629Y1041D02*
X2636Y1041D01*
X0Y1040D02*
X7Y1040D01*
X1426Y1040D02*
X1445Y1040D01*
X1499Y1040D02*
X1745Y1040D01*
X1799Y1040D02*
X1821Y1040D01*
X2125Y1040D02*
X2145Y1040D01*
X2198Y1040D02*
X2445Y1040D01*
X2498Y1040D02*
X2521Y1040D01*
X2629Y1040D02*
X2636Y1040D01*
X0Y1039D02*
X7Y1039D01*
X1426Y1039D02*
X1447Y1039D01*
X1497Y1039D02*
X1747Y1039D01*
X1797Y1039D02*
X1821Y1039D01*
X2125Y1039D02*
X2146Y1039D01*
X2197Y1039D02*
X2446Y1039D01*
X2497Y1039D02*
X2521Y1039D01*
X2629Y1039D02*
X2636Y1039D01*
X0Y1038D02*
X7Y1038D01*
X1431Y1038D02*
X1448Y1038D01*
X1496Y1038D02*
X1748Y1038D01*
X1796Y1038D02*
X1821Y1038D01*
X2130Y1038D02*
X2148Y1038D01*
X2196Y1038D02*
X2448Y1038D01*
X2496Y1038D02*
X2521Y1038D01*
X2629Y1038D02*
X2636Y1038D01*
X0Y1037D02*
X7Y1037D01*
X1431Y1037D02*
X1450Y1037D01*
X1494Y1037D02*
X1750Y1037D01*
X1794Y1037D02*
X1821Y1037D01*
X2130Y1037D02*
X2149Y1037D01*
X2194Y1037D02*
X2449Y1037D01*
X2494Y1037D02*
X2521Y1037D01*
X2629Y1037D02*
X2636Y1037D01*
X0Y1036D02*
X7Y1036D01*
X1431Y1036D02*
X1451Y1036D01*
X1493Y1036D02*
X1751Y1036D01*
X1793Y1036D02*
X1821Y1036D01*
X2130Y1036D02*
X2151Y1036D01*
X2192Y1036D02*
X2451Y1036D01*
X2492Y1036D02*
X2521Y1036D01*
X2629Y1036D02*
X2636Y1036D01*
X0Y1035D02*
X7Y1035D01*
X2629Y1035D02*
X2636Y1035D01*
X0Y1034D02*
X7Y1034D01*
X2629Y1034D02*
X2636Y1034D01*
X0Y1033D02*
X7Y1033D01*
X2629Y1033D02*
X2636Y1033D01*
X0Y1032D02*
X7Y1032D01*
X2629Y1032D02*
X2636Y1032D01*
X0Y1031D02*
X7Y1031D01*
X2629Y1031D02*
X2636Y1031D01*
X0Y1030D02*
X7Y1030D01*
X2629Y1030D02*
X2636Y1030D01*
X0Y1029D02*
X7Y1029D01*
X2629Y1029D02*
X2636Y1029D01*
X0Y1028D02*
X7Y1028D01*
X2629Y1028D02*
X2636Y1028D01*
X0Y1027D02*
X7Y1027D01*
X2629Y1027D02*
X2636Y1027D01*
X0Y1026D02*
X7Y1026D01*
X2629Y1026D02*
X2636Y1026D01*
X0Y1025D02*
X7Y1025D01*
X2629Y1025D02*
X2636Y1025D01*
X0Y1024D02*
X7Y1024D01*
X2629Y1024D02*
X2636Y1024D01*
X0Y1023D02*
X7Y1023D01*
X2629Y1023D02*
X2636Y1023D01*
X0Y1022D02*
X7Y1022D01*
X2629Y1022D02*
X2636Y1022D01*
X0Y1021D02*
X7Y1021D01*
X2629Y1021D02*
X2636Y1021D01*
X0Y1020D02*
X7Y1020D01*
X2629Y1020D02*
X2636Y1020D01*
X0Y1019D02*
X7Y1019D01*
X2629Y1019D02*
X2636Y1019D01*
X0Y1018D02*
X7Y1018D01*
X2629Y1018D02*
X2636Y1018D01*
X0Y1017D02*
X7Y1017D01*
X2629Y1017D02*
X2636Y1017D01*
X0Y1016D02*
X7Y1016D01*
X2629Y1016D02*
X2636Y1016D01*
X0Y1015D02*
X7Y1015D01*
X2629Y1015D02*
X2636Y1015D01*
X0Y1014D02*
X7Y1014D01*
X2629Y1014D02*
X2636Y1014D01*
X0Y1013D02*
X7Y1013D01*
X2629Y1013D02*
X2636Y1013D01*
X0Y1012D02*
X7Y1012D01*
X2629Y1012D02*
X2636Y1012D01*
X0Y1011D02*
X7Y1011D01*
X2629Y1011D02*
X2636Y1011D01*
X0Y1010D02*
X7Y1010D01*
X2629Y1010D02*
X2636Y1010D01*
X0Y1009D02*
X7Y1009D01*
X2629Y1009D02*
X2636Y1009D01*
X0Y1008D02*
X7Y1008D01*
X2629Y1008D02*
X2636Y1008D01*
X0Y1007D02*
X7Y1007D01*
X2629Y1007D02*
X2636Y1007D01*
X0Y1006D02*
X7Y1006D01*
X2629Y1006D02*
X2636Y1006D01*
X0Y1005D02*
X7Y1005D01*
X2629Y1005D02*
X2636Y1005D01*
X0Y1004D02*
X7Y1004D01*
X2629Y1004D02*
X2636Y1004D01*
X0Y1003D02*
X7Y1003D01*
X2629Y1003D02*
X2636Y1003D01*
X0Y1002D02*
X7Y1002D01*
X2629Y1002D02*
X2636Y1002D01*
X0Y1001D02*
X7Y1001D01*
X2629Y1001D02*
X2636Y1001D01*
X0Y1000D02*
X7Y1000D01*
X2629Y1000D02*
X2636Y1000D01*
X0Y999D02*
X7Y999D01*
X2629Y999D02*
X2636Y999D01*
X0Y998D02*
X7Y998D01*
X2629Y998D02*
X2636Y998D01*
X0Y997D02*
X7Y997D01*
X2629Y997D02*
X2636Y997D01*
X0Y996D02*
X7Y996D01*
X2629Y996D02*
X2636Y996D01*
X0Y995D02*
X7Y995D01*
X2629Y995D02*
X2636Y995D01*
X0Y994D02*
X7Y994D01*
X2629Y994D02*
X2636Y994D01*
X0Y993D02*
X7Y993D01*
X2629Y993D02*
X2636Y993D01*
X0Y992D02*
X7Y992D01*
X2629Y992D02*
X2636Y992D01*
X0Y991D02*
X7Y991D01*
X2629Y991D02*
X2636Y991D01*
X0Y990D02*
X7Y990D01*
X2629Y990D02*
X2636Y990D01*
X0Y989D02*
X7Y989D01*
X2629Y989D02*
X2636Y989D01*
X0Y988D02*
X7Y988D01*
X2629Y988D02*
X2636Y988D01*
X0Y987D02*
X7Y987D01*
X2629Y987D02*
X2636Y987D01*
X0Y986D02*
X7Y986D01*
X2629Y986D02*
X2636Y986D01*
X0Y985D02*
X7Y985D01*
X2629Y985D02*
X2636Y985D01*
X0Y984D02*
X7Y984D01*
X2629Y984D02*
X2636Y984D01*
X0Y983D02*
X7Y983D01*
X2629Y983D02*
X2636Y983D01*
X0Y982D02*
X7Y982D01*
X2629Y982D02*
X2636Y982D01*
X0Y981D02*
X7Y981D01*
X2629Y981D02*
X2636Y981D01*
X0Y980D02*
X7Y980D01*
X2629Y980D02*
X2636Y980D01*
X0Y979D02*
X7Y979D01*
X2629Y979D02*
X2636Y979D01*
X0Y978D02*
X7Y978D01*
X2629Y978D02*
X2636Y978D01*
X0Y977D02*
X7Y977D01*
X2629Y977D02*
X2636Y977D01*
X0Y976D02*
X7Y976D01*
X2629Y976D02*
X2636Y976D01*
X0Y975D02*
X7Y975D01*
X2629Y975D02*
X2636Y975D01*
X0Y974D02*
X7Y974D01*
X2629Y974D02*
X2636Y974D01*
X0Y973D02*
X7Y973D01*
X2629Y973D02*
X2636Y973D01*
X0Y972D02*
X7Y972D01*
X2629Y972D02*
X2636Y972D01*
X0Y971D02*
X7Y971D01*
X2629Y971D02*
X2636Y971D01*
X0Y970D02*
X7Y970D01*
X2629Y970D02*
X2636Y970D01*
X0Y969D02*
X7Y969D01*
X2629Y969D02*
X2636Y969D01*
X0Y968D02*
X7Y968D01*
X2629Y968D02*
X2636Y968D01*
X0Y967D02*
X7Y967D01*
X2629Y967D02*
X2636Y967D01*
X0Y966D02*
X7Y966D01*
X2629Y966D02*
X2636Y966D01*
X0Y965D02*
X7Y965D01*
X2629Y965D02*
X2636Y965D01*
X0Y964D02*
X7Y964D01*
X2629Y964D02*
X2636Y964D01*
X0Y963D02*
X7Y963D01*
X2629Y963D02*
X2636Y963D01*
X0Y962D02*
X7Y962D01*
X2629Y962D02*
X2636Y962D01*
X0Y961D02*
X7Y961D01*
X2629Y961D02*
X2636Y961D01*
X0Y960D02*
X7Y960D01*
X2629Y960D02*
X2636Y960D01*
X0Y959D02*
X7Y959D01*
X2629Y959D02*
X2636Y959D01*
X0Y958D02*
X7Y958D01*
X2629Y958D02*
X2636Y958D01*
X0Y957D02*
X7Y957D01*
X2629Y957D02*
X2636Y957D01*
X0Y956D02*
X7Y956D01*
X2629Y956D02*
X2636Y956D01*
X0Y955D02*
X7Y955D01*
X2629Y955D02*
X2636Y955D01*
X0Y954D02*
X7Y954D01*
X2629Y954D02*
X2636Y954D01*
X0Y953D02*
X7Y953D01*
X2629Y953D02*
X2636Y953D01*
X0Y952D02*
X7Y952D01*
X2629Y952D02*
X2636Y952D01*
X0Y951D02*
X7Y951D01*
X2629Y951D02*
X2636Y951D01*
X0Y950D02*
X7Y950D01*
X2629Y950D02*
X2636Y950D01*
X0Y949D02*
X7Y949D01*
X2629Y949D02*
X2636Y949D01*
X0Y948D02*
X7Y948D01*
X2629Y948D02*
X2636Y948D01*
X0Y947D02*
X7Y947D01*
X2629Y947D02*
X2636Y947D01*
X0Y946D02*
X7Y946D01*
X2629Y946D02*
X2636Y946D01*
X0Y945D02*
X7Y945D01*
X2629Y945D02*
X2636Y945D01*
X0Y944D02*
X7Y944D01*
X2629Y944D02*
X2636Y944D01*
X0Y943D02*
X7Y943D01*
X2629Y943D02*
X2636Y943D01*
X0Y942D02*
X7Y942D01*
X2629Y942D02*
X2636Y942D01*
X0Y941D02*
X7Y941D01*
X2629Y941D02*
X2636Y941D01*
X0Y940D02*
X7Y940D01*
X2629Y940D02*
X2636Y940D01*
X0Y939D02*
X7Y939D01*
X2629Y939D02*
X2636Y939D01*
X0Y938D02*
X7Y938D01*
X2629Y938D02*
X2636Y938D01*
X0Y937D02*
X7Y937D01*
X2629Y937D02*
X2636Y937D01*
X0Y936D02*
X7Y936D01*
X2629Y936D02*
X2636Y936D01*
X0Y935D02*
X7Y935D01*
X2629Y935D02*
X2636Y935D01*
X0Y934D02*
X7Y934D01*
X2629Y934D02*
X2636Y934D01*
X0Y933D02*
X7Y933D01*
X2629Y933D02*
X2636Y933D01*
X0Y932D02*
X7Y932D01*
X2629Y932D02*
X2636Y932D01*
X0Y931D02*
X7Y931D01*
X2629Y931D02*
X2636Y931D01*
X0Y930D02*
X7Y930D01*
X2629Y930D02*
X2636Y930D01*
X0Y929D02*
X7Y929D01*
X2629Y929D02*
X2636Y929D01*
X0Y928D02*
X7Y928D01*
X2629Y928D02*
X2636Y928D01*
X0Y927D02*
X7Y927D01*
X2629Y927D02*
X2636Y927D01*
X0Y926D02*
X7Y926D01*
X2629Y926D02*
X2636Y926D01*
X0Y925D02*
X7Y925D01*
X2629Y925D02*
X2636Y925D01*
X0Y924D02*
X7Y924D01*
X2629Y924D02*
X2636Y924D01*
X0Y923D02*
X7Y923D01*
X2629Y923D02*
X2636Y923D01*
X0Y922D02*
X7Y922D01*
X2629Y922D02*
X2636Y922D01*
X0Y921D02*
X7Y921D01*
X2629Y921D02*
X2636Y921D01*
X0Y920D02*
X7Y920D01*
X2629Y920D02*
X2636Y920D01*
X0Y919D02*
X7Y919D01*
X2629Y919D02*
X2636Y919D01*
X0Y918D02*
X7Y918D01*
X2629Y918D02*
X2636Y918D01*
X0Y917D02*
X7Y917D01*
X2629Y917D02*
X2636Y917D01*
X0Y916D02*
X7Y916D01*
X2629Y916D02*
X2636Y916D01*
X0Y915D02*
X7Y915D01*
X2629Y915D02*
X2636Y915D01*
X0Y914D02*
X7Y914D01*
X2629Y914D02*
X2636Y914D01*
X0Y913D02*
X7Y913D01*
X2629Y913D02*
X2636Y913D01*
X0Y912D02*
X7Y912D01*
X2629Y912D02*
X2636Y912D01*
X0Y911D02*
X7Y911D01*
X2629Y911D02*
X2636Y911D01*
X0Y910D02*
X7Y910D01*
X2629Y910D02*
X2636Y910D01*
X0Y909D02*
X7Y909D01*
X2629Y909D02*
X2636Y909D01*
X0Y908D02*
X7Y908D01*
X2629Y908D02*
X2636Y908D01*
X0Y907D02*
X7Y907D01*
X2629Y907D02*
X2636Y907D01*
X0Y906D02*
X7Y906D01*
X2629Y906D02*
X2636Y906D01*
X0Y905D02*
X7Y905D01*
X2629Y905D02*
X2636Y905D01*
X0Y904D02*
X7Y904D01*
X2629Y904D02*
X2636Y904D01*
X0Y903D02*
X7Y903D01*
X2629Y903D02*
X2636Y903D01*
X0Y902D02*
X7Y902D01*
X2629Y902D02*
X2636Y902D01*
X0Y901D02*
X7Y901D01*
X2629Y901D02*
X2636Y901D01*
X0Y900D02*
X7Y900D01*
X2629Y900D02*
X2636Y900D01*
X0Y899D02*
X7Y899D01*
X2629Y899D02*
X2636Y899D01*
X0Y898D02*
X7Y898D01*
X2629Y898D02*
X2636Y898D01*
X0Y897D02*
X7Y897D01*
X2629Y897D02*
X2636Y897D01*
X0Y896D02*
X7Y896D01*
X2629Y896D02*
X2636Y896D01*
X0Y895D02*
X7Y895D01*
X2629Y895D02*
X2636Y895D01*
X0Y894D02*
X7Y894D01*
X2629Y894D02*
X2636Y894D01*
X0Y893D02*
X7Y893D01*
X2629Y893D02*
X2636Y893D01*
X0Y892D02*
X7Y892D01*
X2629Y892D02*
X2636Y892D01*
X0Y891D02*
X7Y891D01*
X2629Y891D02*
X2636Y891D01*
X0Y890D02*
X7Y890D01*
X2629Y890D02*
X2636Y890D01*
X0Y889D02*
X7Y889D01*
X2629Y889D02*
X2636Y889D01*
X0Y888D02*
X7Y888D01*
X2629Y888D02*
X2636Y888D01*
X0Y887D02*
X7Y887D01*
X2629Y887D02*
X2636Y887D01*
X0Y886D02*
X7Y886D01*
X2629Y886D02*
X2636Y886D01*
X0Y885D02*
X7Y885D01*
X2629Y885D02*
X2636Y885D01*
X0Y884D02*
X7Y884D01*
X2629Y884D02*
X2636Y884D01*
X0Y883D02*
X7Y883D01*
X2629Y883D02*
X2636Y883D01*
X0Y882D02*
X7Y882D01*
X2629Y882D02*
X2636Y882D01*
X0Y881D02*
X7Y881D01*
X2629Y881D02*
X2636Y881D01*
X0Y880D02*
X7Y880D01*
X2629Y880D02*
X2636Y880D01*
X0Y879D02*
X7Y879D01*
X2629Y879D02*
X2636Y879D01*
X0Y878D02*
X7Y878D01*
X2629Y878D02*
X2636Y878D01*
X0Y877D02*
X7Y877D01*
X2629Y877D02*
X2636Y877D01*
X0Y876D02*
X7Y876D01*
X2629Y876D02*
X2636Y876D01*
X0Y875D02*
X7Y875D01*
X2629Y875D02*
X2636Y875D01*
X0Y874D02*
X7Y874D01*
X2629Y874D02*
X2636Y874D01*
X0Y873D02*
X7Y873D01*
X2629Y873D02*
X2636Y873D01*
X0Y872D02*
X7Y872D01*
X2629Y872D02*
X2636Y872D01*
X0Y871D02*
X7Y871D01*
X2629Y871D02*
X2636Y871D01*
X0Y870D02*
X7Y870D01*
X2629Y870D02*
X2636Y870D01*
X0Y869D02*
X7Y869D01*
X2629Y869D02*
X2636Y869D01*
X0Y868D02*
X7Y868D01*
X2629Y868D02*
X2636Y868D01*
X0Y867D02*
X7Y867D01*
X2629Y867D02*
X2636Y867D01*
X0Y866D02*
X7Y866D01*
X2629Y866D02*
X2636Y866D01*
X0Y865D02*
X7Y865D01*
X2629Y865D02*
X2636Y865D01*
X0Y864D02*
X7Y864D01*
X2629Y864D02*
X2636Y864D01*
X0Y863D02*
X7Y863D01*
X2629Y863D02*
X2636Y863D01*
X0Y862D02*
X7Y862D01*
X2629Y862D02*
X2636Y862D01*
X0Y861D02*
X7Y861D01*
X2629Y861D02*
X2636Y861D01*
X0Y860D02*
X7Y860D01*
X2629Y860D02*
X2636Y860D01*
X0Y859D02*
X7Y859D01*
X2629Y859D02*
X2636Y859D01*
X0Y858D02*
X7Y858D01*
X2629Y858D02*
X2636Y858D01*
X0Y857D02*
X7Y857D01*
X2629Y857D02*
X2636Y857D01*
X0Y856D02*
X7Y856D01*
X2629Y856D02*
X2636Y856D01*
X0Y855D02*
X7Y855D01*
X2629Y855D02*
X2636Y855D01*
X0Y854D02*
X7Y854D01*
X2629Y854D02*
X2636Y854D01*
X0Y853D02*
X7Y853D01*
X2629Y853D02*
X2636Y853D01*
X0Y852D02*
X7Y852D01*
X2629Y852D02*
X2636Y852D01*
X0Y851D02*
X7Y851D01*
X2629Y851D02*
X2636Y851D01*
X0Y850D02*
X7Y850D01*
X2629Y850D02*
X2636Y850D01*
X0Y849D02*
X7Y849D01*
X2629Y849D02*
X2636Y849D01*
X0Y848D02*
X7Y848D01*
X2629Y848D02*
X2636Y848D01*
X0Y847D02*
X7Y847D01*
X2629Y847D02*
X2636Y847D01*
X0Y846D02*
X7Y846D01*
X2629Y846D02*
X2636Y846D01*
X0Y845D02*
X7Y845D01*
X2629Y845D02*
X2636Y845D01*
X0Y844D02*
X7Y844D01*
X2629Y844D02*
X2636Y844D01*
X0Y843D02*
X7Y843D01*
X2629Y843D02*
X2636Y843D01*
X0Y842D02*
X7Y842D01*
X2629Y842D02*
X2636Y842D01*
X0Y841D02*
X7Y841D01*
X2629Y841D02*
X2636Y841D01*
X0Y840D02*
X7Y840D01*
X2629Y840D02*
X2636Y840D01*
X0Y839D02*
X7Y839D01*
X2629Y839D02*
X2636Y839D01*
X0Y838D02*
X7Y838D01*
X2629Y838D02*
X2636Y838D01*
X0Y837D02*
X7Y837D01*
X2629Y837D02*
X2636Y837D01*
X0Y836D02*
X7Y836D01*
X2629Y836D02*
X2636Y836D01*
X0Y835D02*
X7Y835D01*
X2629Y835D02*
X2636Y835D01*
X0Y834D02*
X7Y834D01*
X2629Y834D02*
X2636Y834D01*
X0Y833D02*
X7Y833D01*
X2629Y833D02*
X2636Y833D01*
X0Y832D02*
X7Y832D01*
X2629Y832D02*
X2636Y832D01*
X0Y831D02*
X7Y831D01*
X2629Y831D02*
X2636Y831D01*
X0Y830D02*
X7Y830D01*
X2629Y830D02*
X2636Y830D01*
X0Y829D02*
X7Y829D01*
X2629Y829D02*
X2636Y829D01*
X0Y828D02*
X7Y828D01*
X2629Y828D02*
X2636Y828D01*
X0Y827D02*
X7Y827D01*
X2629Y827D02*
X2636Y827D01*
X0Y826D02*
X7Y826D01*
X2629Y826D02*
X2636Y826D01*
X0Y825D02*
X7Y825D01*
X2629Y825D02*
X2636Y825D01*
X0Y824D02*
X7Y824D01*
X2629Y824D02*
X2636Y824D01*
X0Y823D02*
X7Y823D01*
X2629Y823D02*
X2636Y823D01*
X0Y822D02*
X7Y822D01*
X2629Y822D02*
X2636Y822D01*
X0Y821D02*
X7Y821D01*
X2629Y821D02*
X2636Y821D01*
X0Y820D02*
X7Y820D01*
X2629Y820D02*
X2636Y820D01*
X0Y819D02*
X7Y819D01*
X2629Y819D02*
X2636Y819D01*
X0Y818D02*
X7Y818D01*
X2629Y818D02*
X2636Y818D01*
X0Y817D02*
X7Y817D01*
X2629Y817D02*
X2636Y817D01*
X0Y816D02*
X7Y816D01*
X2629Y816D02*
X2636Y816D01*
X0Y815D02*
X7Y815D01*
X2629Y815D02*
X2636Y815D01*
X0Y814D02*
X7Y814D01*
X2629Y814D02*
X2636Y814D01*
X0Y813D02*
X7Y813D01*
X2629Y813D02*
X2636Y813D01*
X0Y812D02*
X7Y812D01*
X2629Y812D02*
X2636Y812D01*
X0Y811D02*
X7Y811D01*
X2629Y811D02*
X2636Y811D01*
X0Y810D02*
X7Y810D01*
X2629Y810D02*
X2636Y810D01*
X0Y809D02*
X7Y809D01*
X2629Y809D02*
X2636Y809D01*
X0Y808D02*
X7Y808D01*
X2629Y808D02*
X2636Y808D01*
X0Y807D02*
X7Y807D01*
X2629Y807D02*
X2636Y807D01*
X0Y806D02*
X7Y806D01*
X2629Y806D02*
X2636Y806D01*
X0Y805D02*
X7Y805D01*
X2629Y805D02*
X2636Y805D01*
X0Y804D02*
X7Y804D01*
X2629Y804D02*
X2636Y804D01*
X0Y803D02*
X7Y803D01*
X2629Y803D02*
X2636Y803D01*
X0Y802D02*
X7Y802D01*
X2629Y802D02*
X2636Y802D01*
X0Y801D02*
X7Y801D01*
X2629Y801D02*
X2636Y801D01*
X0Y800D02*
X7Y800D01*
X2629Y800D02*
X2636Y800D01*
X0Y799D02*
X7Y799D01*
X2629Y799D02*
X2636Y799D01*
X0Y798D02*
X7Y798D01*
X2629Y798D02*
X2636Y798D01*
X0Y797D02*
X7Y797D01*
X2629Y797D02*
X2636Y797D01*
X0Y796D02*
X7Y796D01*
X2629Y796D02*
X2636Y796D01*
X0Y795D02*
X7Y795D01*
X2629Y795D02*
X2636Y795D01*
X0Y794D02*
X7Y794D01*
X2629Y794D02*
X2636Y794D01*
X0Y793D02*
X7Y793D01*
X2629Y793D02*
X2636Y793D01*
X0Y792D02*
X7Y792D01*
X2629Y792D02*
X2636Y792D01*
X0Y791D02*
X7Y791D01*
X2629Y791D02*
X2636Y791D01*
X0Y790D02*
X7Y790D01*
X2629Y790D02*
X2636Y790D01*
X0Y789D02*
X7Y789D01*
X2629Y789D02*
X2636Y789D01*
X0Y788D02*
X7Y788D01*
X2629Y788D02*
X2636Y788D01*
X0Y787D02*
X7Y787D01*
X2629Y787D02*
X2636Y787D01*
X0Y786D02*
X7Y786D01*
X2629Y786D02*
X2636Y786D01*
X0Y785D02*
X7Y785D01*
X2629Y785D02*
X2636Y785D01*
X0Y784D02*
X7Y784D01*
X2629Y784D02*
X2636Y784D01*
X0Y783D02*
X7Y783D01*
X2629Y783D02*
X2636Y783D01*
X0Y782D02*
X7Y782D01*
X2629Y782D02*
X2636Y782D01*
X0Y781D02*
X7Y781D01*
X2629Y781D02*
X2636Y781D01*
X0Y780D02*
X7Y780D01*
X2629Y780D02*
X2636Y780D01*
X0Y779D02*
X7Y779D01*
X2629Y779D02*
X2636Y779D01*
X0Y778D02*
X7Y778D01*
X2629Y778D02*
X2636Y778D01*
X0Y777D02*
X7Y777D01*
X2629Y777D02*
X2636Y777D01*
X0Y776D02*
X7Y776D01*
X2629Y776D02*
X2636Y776D01*
X0Y775D02*
X7Y775D01*
X2629Y775D02*
X2636Y775D01*
X0Y774D02*
X7Y774D01*
X2629Y774D02*
X2636Y774D01*
X0Y773D02*
X7Y773D01*
X2629Y773D02*
X2636Y773D01*
X0Y772D02*
X7Y772D01*
X2629Y772D02*
X2636Y772D01*
X0Y771D02*
X7Y771D01*
X2629Y771D02*
X2636Y771D01*
X0Y770D02*
X7Y770D01*
X2629Y770D02*
X2636Y770D01*
X0Y769D02*
X7Y769D01*
X2629Y769D02*
X2636Y769D01*
X0Y768D02*
X7Y768D01*
X2629Y768D02*
X2636Y768D01*
X0Y767D02*
X7Y767D01*
X2629Y767D02*
X2636Y767D01*
X0Y766D02*
X7Y766D01*
X2629Y766D02*
X2636Y766D01*
X0Y765D02*
X7Y765D01*
X2629Y765D02*
X2636Y765D01*
X0Y764D02*
X7Y764D01*
X2629Y764D02*
X2636Y764D01*
X0Y763D02*
X7Y763D01*
X2629Y763D02*
X2636Y763D01*
X0Y762D02*
X7Y762D01*
X2629Y762D02*
X2636Y762D01*
X0Y761D02*
X7Y761D01*
X2629Y761D02*
X2636Y761D01*
X0Y760D02*
X7Y760D01*
X2629Y760D02*
X2636Y760D01*
X0Y759D02*
X7Y759D01*
X2629Y759D02*
X2636Y759D01*
X0Y758D02*
X7Y758D01*
X2629Y758D02*
X2636Y758D01*
X0Y757D02*
X7Y757D01*
X2629Y757D02*
X2636Y757D01*
X0Y756D02*
X7Y756D01*
X2629Y756D02*
X2636Y756D01*
X0Y755D02*
X7Y755D01*
X2629Y755D02*
X2636Y755D01*
X0Y754D02*
X7Y754D01*
X2629Y754D02*
X2636Y754D01*
X0Y753D02*
X7Y753D01*
X2629Y753D02*
X2636Y753D01*
X0Y752D02*
X7Y752D01*
X2629Y752D02*
X2636Y752D01*
X0Y751D02*
X7Y751D01*
X2629Y751D02*
X2636Y751D01*
X0Y750D02*
X7Y750D01*
X2629Y750D02*
X2636Y750D01*
X0Y749D02*
X7Y749D01*
X2629Y749D02*
X2636Y749D01*
X0Y748D02*
X7Y748D01*
X2629Y748D02*
X2636Y748D01*
X0Y747D02*
X7Y747D01*
X2629Y747D02*
X2636Y747D01*
X0Y746D02*
X7Y746D01*
X2629Y746D02*
X2636Y746D01*
X0Y745D02*
X7Y745D01*
X2629Y745D02*
X2636Y745D01*
X0Y744D02*
X7Y744D01*
X2629Y744D02*
X2636Y744D01*
X0Y743D02*
X7Y743D01*
X2629Y743D02*
X2636Y743D01*
X0Y742D02*
X7Y742D01*
X2629Y742D02*
X2636Y742D01*
X0Y741D02*
X7Y741D01*
X2629Y741D02*
X2636Y741D01*
X0Y740D02*
X7Y740D01*
X2629Y740D02*
X2636Y740D01*
X0Y739D02*
X7Y739D01*
X2629Y739D02*
X2636Y739D01*
X0Y738D02*
X7Y738D01*
X2629Y738D02*
X2636Y738D01*
X0Y737D02*
X7Y737D01*
X2629Y737D02*
X2636Y737D01*
X0Y736D02*
X7Y736D01*
X2629Y736D02*
X2636Y736D01*
X0Y735D02*
X7Y735D01*
X2629Y735D02*
X2636Y735D01*
X0Y734D02*
X7Y734D01*
X2629Y734D02*
X2636Y734D01*
X0Y733D02*
X7Y733D01*
X2629Y733D02*
X2636Y733D01*
X0Y732D02*
X7Y732D01*
X2629Y732D02*
X2636Y732D01*
X0Y731D02*
X7Y731D01*
X2629Y731D02*
X2636Y731D01*
X0Y730D02*
X7Y730D01*
X2629Y730D02*
X2636Y730D01*
X0Y729D02*
X7Y729D01*
X2629Y729D02*
X2636Y729D01*
X0Y728D02*
X7Y728D01*
X2629Y728D02*
X2636Y728D01*
X0Y727D02*
X7Y727D01*
X2629Y727D02*
X2636Y727D01*
X0Y726D02*
X7Y726D01*
X2629Y726D02*
X2636Y726D01*
X0Y725D02*
X7Y725D01*
X2629Y725D02*
X2636Y725D01*
X0Y724D02*
X7Y724D01*
X2629Y724D02*
X2636Y724D01*
X0Y723D02*
X7Y723D01*
X2629Y723D02*
X2636Y723D01*
X0Y722D02*
X7Y722D01*
X2629Y722D02*
X2636Y722D01*
X0Y721D02*
X7Y721D01*
X2629Y721D02*
X2636Y721D01*
X0Y720D02*
X7Y720D01*
X2629Y720D02*
X2636Y720D01*
X0Y719D02*
X7Y719D01*
X2629Y719D02*
X2636Y719D01*
X0Y718D02*
X7Y718D01*
X2629Y718D02*
X2636Y718D01*
X0Y717D02*
X7Y717D01*
X2629Y717D02*
X2636Y717D01*
X0Y716D02*
X7Y716D01*
X2629Y716D02*
X2636Y716D01*
X0Y715D02*
X7Y715D01*
X2629Y715D02*
X2636Y715D01*
X0Y714D02*
X7Y714D01*
X2629Y714D02*
X2636Y714D01*
X0Y713D02*
X7Y713D01*
X2629Y713D02*
X2636Y713D01*
X0Y712D02*
X7Y712D01*
X2629Y712D02*
X2636Y712D01*
X0Y711D02*
X7Y711D01*
X2629Y711D02*
X2636Y711D01*
X0Y710D02*
X7Y710D01*
X2629Y710D02*
X2636Y710D01*
X0Y709D02*
X7Y709D01*
X2629Y709D02*
X2636Y709D01*
X0Y708D02*
X7Y708D01*
X2629Y708D02*
X2636Y708D01*
X0Y707D02*
X7Y707D01*
X2629Y707D02*
X2636Y707D01*
X0Y706D02*
X7Y706D01*
X2629Y706D02*
X2636Y706D01*
X0Y705D02*
X7Y705D01*
X2629Y705D02*
X2636Y705D01*
X0Y704D02*
X7Y704D01*
X2629Y704D02*
X2636Y704D01*
X0Y703D02*
X7Y703D01*
X2629Y703D02*
X2636Y703D01*
X0Y702D02*
X7Y702D01*
X2629Y702D02*
X2636Y702D01*
X0Y701D02*
X7Y701D01*
X2629Y701D02*
X2636Y701D01*
X0Y700D02*
X7Y700D01*
X2629Y700D02*
X2636Y700D01*
X0Y699D02*
X7Y699D01*
X2629Y699D02*
X2636Y699D01*
X0Y698D02*
X7Y698D01*
X2629Y698D02*
X2636Y698D01*
X0Y697D02*
X7Y697D01*
X2629Y697D02*
X2636Y697D01*
X0Y696D02*
X7Y696D01*
X2629Y696D02*
X2636Y696D01*
X0Y695D02*
X7Y695D01*
X2629Y695D02*
X2636Y695D01*
X0Y694D02*
X7Y694D01*
X2629Y694D02*
X2636Y694D01*
X0Y693D02*
X7Y693D01*
X2629Y693D02*
X2636Y693D01*
X0Y692D02*
X7Y692D01*
X2629Y692D02*
X2636Y692D01*
X0Y691D02*
X7Y691D01*
X2629Y691D02*
X2636Y691D01*
X0Y690D02*
X7Y690D01*
X2629Y690D02*
X2636Y690D01*
X0Y689D02*
X7Y689D01*
X2629Y689D02*
X2636Y689D01*
X0Y688D02*
X7Y688D01*
X2629Y688D02*
X2636Y688D01*
X0Y687D02*
X7Y687D01*
X2629Y687D02*
X2636Y687D01*
X0Y686D02*
X7Y686D01*
X2629Y686D02*
X2636Y686D01*
X0Y685D02*
X7Y685D01*
X2629Y685D02*
X2636Y685D01*
X0Y684D02*
X7Y684D01*
X2629Y684D02*
X2636Y684D01*
X0Y683D02*
X7Y683D01*
X2629Y683D02*
X2636Y683D01*
X0Y682D02*
X7Y682D01*
X2629Y682D02*
X2636Y682D01*
X0Y681D02*
X7Y681D01*
X2629Y681D02*
X2636Y681D01*
X0Y680D02*
X7Y680D01*
X2629Y680D02*
X2636Y680D01*
X0Y679D02*
X7Y679D01*
X2629Y679D02*
X2636Y679D01*
X0Y678D02*
X7Y678D01*
X2629Y678D02*
X2636Y678D01*
X0Y677D02*
X7Y677D01*
X2629Y677D02*
X2636Y677D01*
X0Y676D02*
X7Y676D01*
X2629Y676D02*
X2636Y676D01*
X0Y675D02*
X7Y675D01*
X2629Y675D02*
X2636Y675D01*
X0Y674D02*
X7Y674D01*
X2629Y674D02*
X2636Y674D01*
X0Y673D02*
X7Y673D01*
X2629Y673D02*
X2636Y673D01*
X0Y672D02*
X7Y672D01*
X2629Y672D02*
X2636Y672D01*
X0Y671D02*
X7Y671D01*
X2629Y671D02*
X2636Y671D01*
X0Y670D02*
X7Y670D01*
X2629Y670D02*
X2636Y670D01*
X0Y669D02*
X7Y669D01*
X2629Y669D02*
X2636Y669D01*
X0Y668D02*
X7Y668D01*
X2629Y668D02*
X2636Y668D01*
X0Y667D02*
X7Y667D01*
X2629Y667D02*
X2636Y667D01*
X0Y666D02*
X7Y666D01*
X2629Y666D02*
X2636Y666D01*
X0Y665D02*
X7Y665D01*
X2629Y665D02*
X2636Y665D01*
X0Y664D02*
X7Y664D01*
X2629Y664D02*
X2636Y664D01*
X0Y663D02*
X7Y663D01*
X2629Y663D02*
X2636Y663D01*
X0Y662D02*
X7Y662D01*
X2629Y662D02*
X2636Y662D01*
X0Y661D02*
X7Y661D01*
X2629Y661D02*
X2636Y661D01*
X0Y660D02*
X7Y660D01*
X2629Y660D02*
X2636Y660D01*
X0Y659D02*
X7Y659D01*
X2629Y659D02*
X2636Y659D01*
X0Y658D02*
X7Y658D01*
X2629Y658D02*
X2636Y658D01*
X0Y657D02*
X7Y657D01*
X2629Y657D02*
X2636Y657D01*
X0Y656D02*
X7Y656D01*
X2629Y656D02*
X2636Y656D01*
X0Y655D02*
X7Y655D01*
X2629Y655D02*
X2636Y655D01*
X0Y654D02*
X7Y654D01*
X2629Y654D02*
X2636Y654D01*
X0Y653D02*
X7Y653D01*
X2629Y653D02*
X2636Y653D01*
X0Y652D02*
X7Y652D01*
X2629Y652D02*
X2636Y652D01*
X0Y651D02*
X7Y651D01*
X2629Y651D02*
X2636Y651D01*
X0Y650D02*
X7Y650D01*
X2629Y650D02*
X2636Y650D01*
X0Y649D02*
X7Y649D01*
X2629Y649D02*
X2636Y649D01*
X0Y648D02*
X7Y648D01*
X2629Y648D02*
X2636Y648D01*
X0Y647D02*
X7Y647D01*
X2629Y647D02*
X2636Y647D01*
X0Y646D02*
X7Y646D01*
X2629Y646D02*
X2636Y646D01*
X0Y645D02*
X7Y645D01*
X2629Y645D02*
X2636Y645D01*
X0Y644D02*
X7Y644D01*
X2629Y644D02*
X2636Y644D01*
X0Y643D02*
X7Y643D01*
X2629Y643D02*
X2636Y643D01*
X0Y642D02*
X7Y642D01*
X2629Y642D02*
X2636Y642D01*
X0Y641D02*
X7Y641D01*
X2629Y641D02*
X2636Y641D01*
X0Y640D02*
X7Y640D01*
X2629Y640D02*
X2636Y640D01*
X0Y639D02*
X7Y639D01*
X2629Y639D02*
X2636Y639D01*
X0Y638D02*
X7Y638D01*
X2629Y638D02*
X2636Y638D01*
X0Y637D02*
X7Y637D01*
X2629Y637D02*
X2636Y637D01*
X0Y636D02*
X7Y636D01*
X2629Y636D02*
X2636Y636D01*
X0Y635D02*
X7Y635D01*
X2629Y635D02*
X2636Y635D01*
X0Y634D02*
X7Y634D01*
X2629Y634D02*
X2636Y634D01*
X0Y633D02*
X7Y633D01*
X2629Y633D02*
X2636Y633D01*
X0Y632D02*
X7Y632D01*
X2629Y632D02*
X2636Y632D01*
X0Y631D02*
X7Y631D01*
X2629Y631D02*
X2636Y631D01*
X0Y630D02*
X7Y630D01*
X2629Y630D02*
X2636Y630D01*
X0Y629D02*
X7Y629D01*
X2629Y629D02*
X2636Y629D01*
X0Y628D02*
X7Y628D01*
X2629Y628D02*
X2636Y628D01*
X0Y627D02*
X7Y627D01*
X2629Y627D02*
X2636Y627D01*
X0Y626D02*
X7Y626D01*
X2629Y626D02*
X2636Y626D01*
X0Y625D02*
X7Y625D01*
X2629Y625D02*
X2636Y625D01*
X0Y624D02*
X7Y624D01*
X2629Y624D02*
X2636Y624D01*
X0Y623D02*
X7Y623D01*
X2629Y623D02*
X2636Y623D01*
X0Y622D02*
X7Y622D01*
X2629Y622D02*
X2636Y622D01*
X0Y621D02*
X7Y621D01*
X2629Y621D02*
X2636Y621D01*
X0Y620D02*
X7Y620D01*
X2629Y620D02*
X2636Y620D01*
X0Y619D02*
X7Y619D01*
X2629Y619D02*
X2636Y619D01*
X0Y618D02*
X7Y618D01*
X2629Y618D02*
X2636Y618D01*
X0Y617D02*
X7Y617D01*
X2629Y617D02*
X2636Y617D01*
X0Y616D02*
X7Y616D01*
X2629Y616D02*
X2636Y616D01*
X0Y615D02*
X7Y615D01*
X2629Y615D02*
X2636Y615D01*
X0Y614D02*
X7Y614D01*
X2629Y614D02*
X2636Y614D01*
X0Y613D02*
X7Y613D01*
X2629Y613D02*
X2636Y613D01*
X0Y612D02*
X7Y612D01*
X2629Y612D02*
X2636Y612D01*
X0Y611D02*
X7Y611D01*
X2629Y611D02*
X2636Y611D01*
X0Y610D02*
X7Y610D01*
X2629Y610D02*
X2636Y610D01*
X0Y609D02*
X7Y609D01*
X2629Y609D02*
X2636Y609D01*
X0Y608D02*
X7Y608D01*
X2629Y608D02*
X2636Y608D01*
X0Y607D02*
X7Y607D01*
X2629Y607D02*
X2636Y607D01*
X0Y606D02*
X7Y606D01*
X2629Y606D02*
X2636Y606D01*
X0Y605D02*
X7Y605D01*
X2629Y605D02*
X2636Y605D01*
X0Y604D02*
X7Y604D01*
X2629Y604D02*
X2636Y604D01*
X0Y603D02*
X7Y603D01*
X2629Y603D02*
X2636Y603D01*
X0Y602D02*
X7Y602D01*
X2629Y602D02*
X2636Y602D01*
X0Y601D02*
X7Y601D01*
X2629Y601D02*
X2636Y601D01*
X0Y600D02*
X7Y600D01*
X2629Y600D02*
X2636Y600D01*
X0Y599D02*
X7Y599D01*
X2629Y599D02*
X2636Y599D01*
X0Y598D02*
X7Y598D01*
X2629Y598D02*
X2636Y598D01*
X0Y597D02*
X7Y597D01*
X2629Y597D02*
X2636Y597D01*
X0Y596D02*
X7Y596D01*
X2629Y596D02*
X2636Y596D01*
X0Y595D02*
X7Y595D01*
X2629Y595D02*
X2636Y595D01*
X0Y594D02*
X7Y594D01*
X2629Y594D02*
X2636Y594D01*
X0Y593D02*
X7Y593D01*
X2629Y593D02*
X2636Y593D01*
X0Y592D02*
X7Y592D01*
X2629Y592D02*
X2636Y592D01*
X0Y591D02*
X7Y591D01*
X2629Y591D02*
X2636Y591D01*
X0Y590D02*
X7Y590D01*
X2629Y590D02*
X2636Y590D01*
X0Y589D02*
X7Y589D01*
X2629Y589D02*
X2636Y589D01*
X0Y588D02*
X7Y588D01*
X2629Y588D02*
X2636Y588D01*
X0Y587D02*
X7Y587D01*
X2629Y587D02*
X2636Y587D01*
X0Y586D02*
X7Y586D01*
X2629Y586D02*
X2636Y586D01*
X0Y585D02*
X7Y585D01*
X2629Y585D02*
X2636Y585D01*
X0Y584D02*
X7Y584D01*
X2629Y584D02*
X2636Y584D01*
X0Y583D02*
X7Y583D01*
X2629Y583D02*
X2636Y583D01*
X0Y582D02*
X7Y582D01*
X2629Y582D02*
X2636Y582D01*
X0Y581D02*
X7Y581D01*
X2629Y581D02*
X2636Y581D01*
X0Y580D02*
X7Y580D01*
X2629Y580D02*
X2636Y580D01*
X0Y579D02*
X7Y579D01*
X2629Y579D02*
X2636Y579D01*
X0Y578D02*
X7Y578D01*
X2629Y578D02*
X2636Y578D01*
X0Y577D02*
X7Y577D01*
X2629Y577D02*
X2636Y577D01*
X0Y576D02*
X7Y576D01*
X2629Y576D02*
X2636Y576D01*
X0Y575D02*
X7Y575D01*
X2629Y575D02*
X2636Y575D01*
X0Y574D02*
X7Y574D01*
X2629Y574D02*
X2636Y574D01*
X0Y573D02*
X7Y573D01*
X2629Y573D02*
X2636Y573D01*
X0Y572D02*
X7Y572D01*
X2629Y572D02*
X2636Y572D01*
X0Y571D02*
X7Y571D01*
X2629Y571D02*
X2636Y571D01*
X0Y570D02*
X7Y570D01*
X2629Y570D02*
X2636Y570D01*
X0Y569D02*
X7Y569D01*
X2629Y569D02*
X2636Y569D01*
X0Y568D02*
X7Y568D01*
X2629Y568D02*
X2636Y568D01*
X0Y567D02*
X7Y567D01*
X2629Y567D02*
X2636Y567D01*
X0Y566D02*
X7Y566D01*
X2629Y566D02*
X2636Y566D01*
X0Y565D02*
X7Y565D01*
X2629Y565D02*
X2636Y565D01*
X0Y564D02*
X7Y564D01*
X2629Y564D02*
X2636Y564D01*
X0Y563D02*
X7Y563D01*
X2629Y563D02*
X2636Y563D01*
X0Y562D02*
X7Y562D01*
X2629Y562D02*
X2636Y562D01*
X0Y561D02*
X7Y561D01*
X2629Y561D02*
X2636Y561D01*
X0Y560D02*
X7Y560D01*
X2629Y560D02*
X2636Y560D01*
X0Y559D02*
X7Y559D01*
X2629Y559D02*
X2636Y559D01*
X0Y558D02*
X7Y558D01*
X2629Y558D02*
X2636Y558D01*
X0Y557D02*
X7Y557D01*
X2629Y557D02*
X2636Y557D01*
X0Y556D02*
X7Y556D01*
X2629Y556D02*
X2636Y556D01*
X0Y555D02*
X7Y555D01*
X2629Y555D02*
X2636Y555D01*
X0Y554D02*
X7Y554D01*
X2629Y554D02*
X2636Y554D01*
X0Y553D02*
X7Y553D01*
X2629Y553D02*
X2636Y553D01*
X0Y552D02*
X7Y552D01*
X2629Y552D02*
X2636Y552D01*
X0Y551D02*
X7Y551D01*
X2629Y551D02*
X2636Y551D01*
X0Y550D02*
X7Y550D01*
X2629Y550D02*
X2636Y550D01*
X0Y549D02*
X7Y549D01*
X2629Y549D02*
X2636Y549D01*
X0Y548D02*
X7Y548D01*
X2629Y548D02*
X2636Y548D01*
X0Y547D02*
X7Y547D01*
X2629Y547D02*
X2636Y547D01*
X0Y546D02*
X7Y546D01*
X2629Y546D02*
X2636Y546D01*
X0Y545D02*
X7Y545D01*
X2629Y545D02*
X2636Y545D01*
X0Y544D02*
X7Y544D01*
X2629Y544D02*
X2636Y544D01*
X0Y543D02*
X7Y543D01*
X2629Y543D02*
X2636Y543D01*
X0Y542D02*
X7Y542D01*
X2629Y542D02*
X2636Y542D01*
X0Y541D02*
X7Y541D01*
X2629Y541D02*
X2636Y541D01*
X0Y540D02*
X7Y540D01*
X2629Y540D02*
X2636Y540D01*
X0Y539D02*
X7Y539D01*
X2629Y539D02*
X2636Y539D01*
X0Y538D02*
X7Y538D01*
X2629Y538D02*
X2636Y538D01*
X0Y537D02*
X7Y537D01*
X2629Y537D02*
X2636Y537D01*
X0Y536D02*
X7Y536D01*
X2629Y536D02*
X2636Y536D01*
X0Y535D02*
X7Y535D01*
X2629Y535D02*
X2636Y535D01*
X0Y534D02*
X7Y534D01*
X2629Y534D02*
X2636Y534D01*
X0Y533D02*
X7Y533D01*
X2629Y533D02*
X2636Y533D01*
X0Y532D02*
X7Y532D01*
X2629Y532D02*
X2636Y532D01*
X0Y531D02*
X7Y531D01*
X2629Y531D02*
X2636Y531D01*
X0Y530D02*
X7Y530D01*
X2629Y530D02*
X2636Y530D01*
X0Y529D02*
X7Y529D01*
X2629Y529D02*
X2636Y529D01*
X0Y528D02*
X7Y528D01*
X2629Y528D02*
X2636Y528D01*
X0Y527D02*
X7Y527D01*
X2629Y527D02*
X2636Y527D01*
X0Y526D02*
X7Y526D01*
X2629Y526D02*
X2636Y526D01*
X0Y525D02*
X7Y525D01*
X2629Y525D02*
X2636Y525D01*
X0Y524D02*
X7Y524D01*
X2629Y524D02*
X2636Y524D01*
X0Y523D02*
X7Y523D01*
X2629Y523D02*
X2636Y523D01*
X0Y522D02*
X7Y522D01*
X2629Y522D02*
X2636Y522D01*
X0Y521D02*
X7Y521D01*
X2629Y521D02*
X2636Y521D01*
X0Y520D02*
X7Y520D01*
X2629Y520D02*
X2636Y520D01*
X0Y519D02*
X7Y519D01*
X2629Y519D02*
X2636Y519D01*
X0Y518D02*
X7Y518D01*
X2629Y518D02*
X2636Y518D01*
X0Y517D02*
X7Y517D01*
X2629Y517D02*
X2636Y517D01*
X0Y516D02*
X7Y516D01*
X2629Y516D02*
X2636Y516D01*
X0Y515D02*
X7Y515D01*
X2629Y515D02*
X2636Y515D01*
X0Y514D02*
X7Y514D01*
X2629Y514D02*
X2636Y514D01*
X0Y513D02*
X7Y513D01*
X2629Y513D02*
X2636Y513D01*
X0Y512D02*
X7Y512D01*
X2629Y512D02*
X2636Y512D01*
X0Y511D02*
X7Y511D01*
X2629Y511D02*
X2636Y511D01*
X0Y510D02*
X7Y510D01*
X2629Y510D02*
X2636Y510D01*
X0Y509D02*
X7Y509D01*
X2629Y509D02*
X2636Y509D01*
X0Y508D02*
X7Y508D01*
X2629Y508D02*
X2636Y508D01*
X0Y507D02*
X7Y507D01*
X2629Y507D02*
X2636Y507D01*
X0Y506D02*
X7Y506D01*
X2629Y506D02*
X2636Y506D01*
X0Y505D02*
X7Y505D01*
X2629Y505D02*
X2636Y505D01*
X0Y504D02*
X7Y504D01*
X2629Y504D02*
X2636Y504D01*
X0Y503D02*
X7Y503D01*
X2629Y503D02*
X2636Y503D01*
X0Y502D02*
X7Y502D01*
X2629Y502D02*
X2636Y502D01*
X0Y501D02*
X7Y501D01*
X2629Y501D02*
X2636Y501D01*
X0Y500D02*
X7Y500D01*
X2629Y500D02*
X2636Y500D01*
X0Y499D02*
X7Y499D01*
X2629Y499D02*
X2636Y499D01*
X0Y498D02*
X7Y498D01*
X2629Y498D02*
X2636Y498D01*
X0Y497D02*
X7Y497D01*
X2629Y497D02*
X2636Y497D01*
X0Y496D02*
X7Y496D01*
X2629Y496D02*
X2636Y496D01*
X0Y495D02*
X7Y495D01*
X2629Y495D02*
X2636Y495D01*
X0Y494D02*
X7Y494D01*
X2629Y494D02*
X2636Y494D01*
X0Y493D02*
X7Y493D01*
X2629Y493D02*
X2636Y493D01*
X0Y492D02*
X7Y492D01*
X2629Y492D02*
X2636Y492D01*
X0Y491D02*
X7Y491D01*
X2629Y491D02*
X2636Y491D01*
X0Y490D02*
X7Y490D01*
X2629Y490D02*
X2636Y490D01*
X0Y489D02*
X7Y489D01*
X2629Y489D02*
X2636Y489D01*
X0Y488D02*
X7Y488D01*
X2629Y488D02*
X2636Y488D01*
X0Y487D02*
X7Y487D01*
X2629Y487D02*
X2636Y487D01*
X0Y486D02*
X7Y486D01*
X2629Y486D02*
X2636Y486D01*
X0Y485D02*
X7Y485D01*
X2629Y485D02*
X2636Y485D01*
X0Y484D02*
X7Y484D01*
X2629Y484D02*
X2636Y484D01*
X0Y483D02*
X7Y483D01*
X2629Y483D02*
X2636Y483D01*
X0Y482D02*
X7Y482D01*
X2629Y482D02*
X2636Y482D01*
X0Y481D02*
X7Y481D01*
X2629Y481D02*
X2636Y481D01*
X0Y480D02*
X7Y480D01*
X2629Y480D02*
X2636Y480D01*
X0Y479D02*
X7Y479D01*
X2629Y479D02*
X2636Y479D01*
X0Y478D02*
X7Y478D01*
X2629Y478D02*
X2636Y478D01*
X0Y477D02*
X7Y477D01*
X2629Y477D02*
X2636Y477D01*
X0Y476D02*
X7Y476D01*
X2629Y476D02*
X2636Y476D01*
X0Y475D02*
X7Y475D01*
X2629Y475D02*
X2636Y475D01*
X0Y474D02*
X7Y474D01*
X2629Y474D02*
X2636Y474D01*
X0Y473D02*
X7Y473D01*
X2629Y473D02*
X2636Y473D01*
X0Y472D02*
X7Y472D01*
X2629Y472D02*
X2636Y472D01*
X0Y471D02*
X7Y471D01*
X2629Y471D02*
X2636Y471D01*
X0Y470D02*
X7Y470D01*
X2629Y470D02*
X2636Y470D01*
X0Y469D02*
X7Y469D01*
X2629Y469D02*
X2636Y469D01*
X0Y468D02*
X7Y468D01*
X2629Y468D02*
X2636Y468D01*
X0Y467D02*
X7Y467D01*
X2629Y467D02*
X2636Y467D01*
X0Y466D02*
X7Y466D01*
X2629Y466D02*
X2636Y466D01*
X0Y465D02*
X7Y465D01*
X2629Y465D02*
X2636Y465D01*
X0Y464D02*
X7Y464D01*
X2629Y464D02*
X2636Y464D01*
X0Y463D02*
X7Y463D01*
X2629Y463D02*
X2636Y463D01*
X0Y462D02*
X7Y462D01*
X2629Y462D02*
X2636Y462D01*
X0Y461D02*
X7Y461D01*
X2629Y461D02*
X2636Y461D01*
X0Y460D02*
X7Y460D01*
X2629Y460D02*
X2636Y460D01*
X0Y459D02*
X7Y459D01*
X2629Y459D02*
X2636Y459D01*
X0Y458D02*
X7Y458D01*
X2629Y458D02*
X2636Y458D01*
X0Y457D02*
X7Y457D01*
X2629Y457D02*
X2636Y457D01*
X0Y456D02*
X7Y456D01*
X2629Y456D02*
X2636Y456D01*
X0Y455D02*
X7Y455D01*
X2629Y455D02*
X2636Y455D01*
X0Y454D02*
X7Y454D01*
X2629Y454D02*
X2636Y454D01*
X0Y453D02*
X7Y453D01*
X2629Y453D02*
X2636Y453D01*
X0Y452D02*
X7Y452D01*
X2629Y452D02*
X2636Y452D01*
X0Y451D02*
X7Y451D01*
X2629Y451D02*
X2636Y451D01*
X0Y450D02*
X7Y450D01*
X2629Y450D02*
X2636Y450D01*
X0Y449D02*
X7Y449D01*
X2629Y449D02*
X2636Y449D01*
X0Y448D02*
X7Y448D01*
X2629Y448D02*
X2636Y448D01*
X0Y447D02*
X7Y447D01*
X2629Y447D02*
X2636Y447D01*
X0Y446D02*
X7Y446D01*
X2629Y446D02*
X2636Y446D01*
X0Y445D02*
X7Y445D01*
X2629Y445D02*
X2636Y445D01*
X0Y444D02*
X7Y444D01*
X2629Y444D02*
X2636Y444D01*
X0Y443D02*
X7Y443D01*
X2629Y443D02*
X2636Y443D01*
X0Y442D02*
X7Y442D01*
X2629Y442D02*
X2636Y442D01*
X0Y441D02*
X7Y441D01*
X2629Y441D02*
X2636Y441D01*
X0Y440D02*
X7Y440D01*
X2629Y440D02*
X2636Y440D01*
X0Y439D02*
X7Y439D01*
X2629Y439D02*
X2636Y439D01*
X0Y438D02*
X7Y438D01*
X2629Y438D02*
X2636Y438D01*
X0Y437D02*
X7Y437D01*
X2629Y437D02*
X2636Y437D01*
X0Y436D02*
X7Y436D01*
X2629Y436D02*
X2636Y436D01*
X0Y435D02*
X7Y435D01*
X2629Y435D02*
X2636Y435D01*
X0Y434D02*
X7Y434D01*
X2629Y434D02*
X2636Y434D01*
X0Y433D02*
X7Y433D01*
X2629Y433D02*
X2636Y433D01*
X0Y432D02*
X7Y432D01*
X2629Y432D02*
X2636Y432D01*
X0Y431D02*
X7Y431D01*
X2629Y431D02*
X2636Y431D01*
X0Y430D02*
X7Y430D01*
X2629Y430D02*
X2636Y430D01*
X0Y429D02*
X7Y429D01*
X2629Y429D02*
X2636Y429D01*
X0Y428D02*
X7Y428D01*
X2629Y428D02*
X2636Y428D01*
X0Y427D02*
X7Y427D01*
X2629Y427D02*
X2636Y427D01*
X0Y426D02*
X7Y426D01*
X2629Y426D02*
X2636Y426D01*
X0Y425D02*
X7Y425D01*
X2629Y425D02*
X2636Y425D01*
X0Y424D02*
X7Y424D01*
X2629Y424D02*
X2636Y424D01*
X0Y423D02*
X7Y423D01*
X2629Y423D02*
X2636Y423D01*
X0Y422D02*
X7Y422D01*
X2629Y422D02*
X2636Y422D01*
X0Y421D02*
X7Y421D01*
X2629Y421D02*
X2636Y421D01*
X0Y420D02*
X7Y420D01*
X2629Y420D02*
X2636Y420D01*
X0Y419D02*
X7Y419D01*
X2629Y419D02*
X2636Y419D01*
X0Y418D02*
X7Y418D01*
X2629Y418D02*
X2636Y418D01*
X0Y417D02*
X7Y417D01*
X2629Y417D02*
X2636Y417D01*
X0Y416D02*
X7Y416D01*
X2629Y416D02*
X2636Y416D01*
X0Y415D02*
X7Y415D01*
X2629Y415D02*
X2636Y415D01*
X0Y414D02*
X7Y414D01*
X2629Y414D02*
X2636Y414D01*
X0Y413D02*
X7Y413D01*
X2629Y413D02*
X2636Y413D01*
X0Y412D02*
X7Y412D01*
X2629Y412D02*
X2636Y412D01*
X0Y411D02*
X7Y411D01*
X2629Y411D02*
X2636Y411D01*
X0Y410D02*
X7Y410D01*
X2629Y410D02*
X2636Y410D01*
X0Y409D02*
X7Y409D01*
X2629Y409D02*
X2636Y409D01*
X0Y408D02*
X7Y408D01*
X2629Y408D02*
X2636Y408D01*
X0Y407D02*
X7Y407D01*
X2629Y407D02*
X2636Y407D01*
X0Y406D02*
X7Y406D01*
X2629Y406D02*
X2636Y406D01*
X0Y405D02*
X7Y405D01*
X2629Y405D02*
X2636Y405D01*
X0Y404D02*
X7Y404D01*
X2629Y404D02*
X2636Y404D01*
X0Y403D02*
X7Y403D01*
X2629Y403D02*
X2636Y403D01*
X0Y402D02*
X7Y402D01*
X2629Y402D02*
X2636Y402D01*
X0Y401D02*
X7Y401D01*
X2629Y401D02*
X2636Y401D01*
X0Y400D02*
X7Y400D01*
X2629Y400D02*
X2636Y400D01*
X0Y399D02*
X7Y399D01*
X2629Y399D02*
X2636Y399D01*
X0Y398D02*
X7Y398D01*
X2629Y398D02*
X2636Y398D01*
X0Y397D02*
X7Y397D01*
X2629Y397D02*
X2636Y397D01*
X0Y396D02*
X7Y396D01*
X2629Y396D02*
X2636Y396D01*
X0Y395D02*
X7Y395D01*
X2629Y395D02*
X2636Y395D01*
X0Y394D02*
X7Y394D01*
X2629Y394D02*
X2636Y394D01*
X0Y393D02*
X7Y393D01*
X2629Y393D02*
X2636Y393D01*
X0Y392D02*
X7Y392D01*
X2629Y392D02*
X2636Y392D01*
X0Y391D02*
X7Y391D01*
X2629Y391D02*
X2636Y391D01*
X0Y390D02*
X7Y390D01*
X2629Y390D02*
X2636Y390D01*
X0Y389D02*
X7Y389D01*
X2629Y389D02*
X2636Y389D01*
X0Y388D02*
X7Y388D01*
X2629Y388D02*
X2636Y388D01*
X0Y387D02*
X7Y387D01*
X2629Y387D02*
X2636Y387D01*
X0Y386D02*
X7Y386D01*
X2629Y386D02*
X2636Y386D01*
X0Y385D02*
X7Y385D01*
X2629Y385D02*
X2636Y385D01*
X0Y384D02*
X7Y384D01*
X2629Y384D02*
X2636Y384D01*
X0Y383D02*
X7Y383D01*
X2629Y383D02*
X2636Y383D01*
X0Y382D02*
X7Y382D01*
X2629Y382D02*
X2636Y382D01*
X0Y381D02*
X7Y381D01*
X2629Y381D02*
X2636Y381D01*
X0Y380D02*
X7Y380D01*
X2629Y380D02*
X2636Y380D01*
X0Y379D02*
X7Y379D01*
X2629Y379D02*
X2636Y379D01*
X0Y378D02*
X7Y378D01*
X2629Y378D02*
X2636Y378D01*
X0Y377D02*
X7Y377D01*
X2629Y377D02*
X2636Y377D01*
X0Y376D02*
X7Y376D01*
X2629Y376D02*
X2636Y376D01*
X0Y375D02*
X7Y375D01*
X2629Y375D02*
X2636Y375D01*
X0Y374D02*
X7Y374D01*
X2629Y374D02*
X2636Y374D01*
X0Y373D02*
X7Y373D01*
X2629Y373D02*
X2636Y373D01*
X0Y372D02*
X7Y372D01*
X2629Y372D02*
X2636Y372D01*
X0Y371D02*
X7Y371D01*
X2629Y371D02*
X2636Y371D01*
X0Y370D02*
X7Y370D01*
X2629Y370D02*
X2636Y370D01*
X0Y369D02*
X7Y369D01*
X2629Y369D02*
X2636Y369D01*
X0Y368D02*
X7Y368D01*
X2629Y368D02*
X2636Y368D01*
X0Y367D02*
X7Y367D01*
X2629Y367D02*
X2636Y367D01*
X0Y366D02*
X7Y366D01*
X2629Y366D02*
X2636Y366D01*
X0Y365D02*
X7Y365D01*
X2629Y365D02*
X2636Y365D01*
X0Y364D02*
X7Y364D01*
X2629Y364D02*
X2636Y364D01*
X0Y363D02*
X7Y363D01*
X2629Y363D02*
X2636Y363D01*
X0Y362D02*
X7Y362D01*
X2629Y362D02*
X2636Y362D01*
X0Y361D02*
X7Y361D01*
X2629Y361D02*
X2636Y361D01*
X0Y360D02*
X7Y360D01*
X2629Y360D02*
X2636Y360D01*
X0Y359D02*
X7Y359D01*
X2629Y359D02*
X2636Y359D01*
X0Y358D02*
X7Y358D01*
X2629Y358D02*
X2636Y358D01*
X0Y357D02*
X7Y357D01*
X2629Y357D02*
X2636Y357D01*
X0Y356D02*
X7Y356D01*
X2629Y356D02*
X2636Y356D01*
X0Y355D02*
X7Y355D01*
X2629Y355D02*
X2636Y355D01*
X0Y354D02*
X7Y354D01*
X2629Y354D02*
X2636Y354D01*
X0Y353D02*
X7Y353D01*
X2629Y353D02*
X2636Y353D01*
X0Y352D02*
X7Y352D01*
X2629Y352D02*
X2636Y352D01*
X0Y351D02*
X7Y351D01*
X2629Y351D02*
X2636Y351D01*
X0Y350D02*
X7Y350D01*
X2629Y350D02*
X2636Y350D01*
X0Y349D02*
X7Y349D01*
X2629Y349D02*
X2636Y349D01*
X0Y348D02*
X7Y348D01*
X2629Y348D02*
X2636Y348D01*
X0Y347D02*
X7Y347D01*
X2629Y347D02*
X2636Y347D01*
X0Y346D02*
X7Y346D01*
X2629Y346D02*
X2636Y346D01*
X0Y345D02*
X7Y345D01*
X2629Y345D02*
X2636Y345D01*
X0Y344D02*
X7Y344D01*
X2629Y344D02*
X2636Y344D01*
X0Y343D02*
X7Y343D01*
X2629Y343D02*
X2636Y343D01*
X0Y342D02*
X7Y342D01*
X2629Y342D02*
X2636Y342D01*
X0Y341D02*
X7Y341D01*
X2629Y341D02*
X2636Y341D01*
X0Y340D02*
X7Y340D01*
X2629Y340D02*
X2636Y340D01*
X0Y339D02*
X7Y339D01*
X2629Y339D02*
X2636Y339D01*
X0Y338D02*
X7Y338D01*
X2629Y338D02*
X2636Y338D01*
X0Y337D02*
X7Y337D01*
X2629Y337D02*
X2636Y337D01*
X0Y336D02*
X7Y336D01*
X2629Y336D02*
X2636Y336D01*
X0Y335D02*
X7Y335D01*
X2629Y335D02*
X2636Y335D01*
X0Y334D02*
X7Y334D01*
X2629Y334D02*
X2636Y334D01*
X0Y333D02*
X7Y333D01*
X2629Y333D02*
X2636Y333D01*
X0Y332D02*
X7Y332D01*
X2629Y332D02*
X2636Y332D01*
X0Y331D02*
X7Y331D01*
X2629Y331D02*
X2636Y331D01*
X0Y330D02*
X7Y330D01*
X2629Y330D02*
X2636Y330D01*
X0Y329D02*
X7Y329D01*
X2629Y329D02*
X2636Y329D01*
X0Y328D02*
X7Y328D01*
X2629Y328D02*
X2636Y328D01*
X0Y327D02*
X7Y327D01*
X2629Y327D02*
X2636Y327D01*
X0Y326D02*
X7Y326D01*
X2629Y326D02*
X2636Y326D01*
X0Y325D02*
X7Y325D01*
X2629Y325D02*
X2636Y325D01*
X0Y324D02*
X7Y324D01*
X2629Y324D02*
X2636Y324D01*
X0Y323D02*
X7Y323D01*
X2629Y323D02*
X2636Y323D01*
X0Y322D02*
X7Y322D01*
X2629Y322D02*
X2636Y322D01*
X0Y321D02*
X7Y321D01*
X2629Y321D02*
X2636Y321D01*
X0Y320D02*
X7Y320D01*
X2629Y320D02*
X2636Y320D01*
X0Y319D02*
X7Y319D01*
X2629Y319D02*
X2636Y319D01*
X0Y318D02*
X7Y318D01*
X2629Y318D02*
X2636Y318D01*
X0Y317D02*
X7Y317D01*
X2629Y317D02*
X2636Y317D01*
X0Y316D02*
X7Y316D01*
X2629Y316D02*
X2636Y316D01*
X0Y315D02*
X7Y315D01*
X2629Y315D02*
X2636Y315D01*
X0Y314D02*
X7Y314D01*
X2629Y314D02*
X2636Y314D01*
X0Y313D02*
X7Y313D01*
X2629Y313D02*
X2636Y313D01*
X0Y312D02*
X7Y312D01*
X2629Y312D02*
X2636Y312D01*
X0Y311D02*
X7Y311D01*
X2629Y311D02*
X2636Y311D01*
X0Y310D02*
X7Y310D01*
X2629Y310D02*
X2636Y310D01*
X0Y309D02*
X7Y309D01*
X2629Y309D02*
X2636Y309D01*
X0Y308D02*
X7Y308D01*
X2629Y308D02*
X2636Y308D01*
X0Y307D02*
X7Y307D01*
X2629Y307D02*
X2636Y307D01*
X0Y306D02*
X7Y306D01*
X2629Y306D02*
X2636Y306D01*
X0Y305D02*
X7Y305D01*
X2629Y305D02*
X2636Y305D01*
X0Y304D02*
X7Y304D01*
X2629Y304D02*
X2636Y304D01*
X0Y303D02*
X7Y303D01*
X2629Y303D02*
X2636Y303D01*
X0Y302D02*
X7Y302D01*
X2629Y302D02*
X2636Y302D01*
X0Y301D02*
X7Y301D01*
X2629Y301D02*
X2636Y301D01*
X0Y300D02*
X7Y300D01*
X2629Y300D02*
X2636Y300D01*
X0Y299D02*
X7Y299D01*
X2629Y299D02*
X2636Y299D01*
X0Y298D02*
X7Y298D01*
X2629Y298D02*
X2636Y298D01*
X0Y297D02*
X7Y297D01*
X2629Y297D02*
X2636Y297D01*
X0Y296D02*
X7Y296D01*
X2629Y296D02*
X2636Y296D01*
X0Y295D02*
X7Y295D01*
X2629Y295D02*
X2636Y295D01*
X0Y294D02*
X7Y294D01*
X2629Y294D02*
X2636Y294D01*
X0Y293D02*
X7Y293D01*
X2629Y293D02*
X2636Y293D01*
X0Y292D02*
X7Y292D01*
X2629Y292D02*
X2636Y292D01*
X0Y291D02*
X7Y291D01*
X2629Y291D02*
X2636Y291D01*
X0Y290D02*
X7Y290D01*
X2629Y290D02*
X2636Y290D01*
X0Y289D02*
X7Y289D01*
X2629Y289D02*
X2636Y289D01*
X0Y288D02*
X7Y288D01*
X2629Y288D02*
X2636Y288D01*
X0Y287D02*
X7Y287D01*
X2629Y287D02*
X2636Y287D01*
X0Y286D02*
X7Y286D01*
X2629Y286D02*
X2636Y286D01*
X0Y285D02*
X7Y285D01*
X2629Y285D02*
X2636Y285D01*
X0Y284D02*
X7Y284D01*
X2629Y284D02*
X2636Y284D01*
X0Y283D02*
X7Y283D01*
X2629Y283D02*
X2636Y283D01*
X0Y282D02*
X7Y282D01*
X2629Y282D02*
X2636Y282D01*
X0Y281D02*
X7Y281D01*
X2629Y281D02*
X2636Y281D01*
X0Y280D02*
X7Y280D01*
X2629Y280D02*
X2636Y280D01*
X0Y279D02*
X7Y279D01*
X2629Y279D02*
X2636Y279D01*
X0Y278D02*
X7Y278D01*
X2629Y278D02*
X2636Y278D01*
X0Y277D02*
X7Y277D01*
X2629Y277D02*
X2636Y277D01*
X0Y276D02*
X7Y276D01*
X2629Y276D02*
X2636Y276D01*
X0Y275D02*
X7Y275D01*
X2629Y275D02*
X2636Y275D01*
X0Y274D02*
X7Y274D01*
X2629Y274D02*
X2636Y274D01*
X0Y273D02*
X7Y273D01*
X2629Y273D02*
X2636Y273D01*
X0Y272D02*
X7Y272D01*
X2629Y272D02*
X2636Y272D01*
X0Y271D02*
X7Y271D01*
X1416Y271D02*
X1420Y271D01*
X2629Y271D02*
X2636Y271D01*
X0Y270D02*
X7Y270D01*
X1416Y270D02*
X1421Y270D01*
X2629Y270D02*
X2636Y270D01*
X0Y269D02*
X7Y269D01*
X1416Y269D02*
X1421Y269D01*
X2629Y269D02*
X2636Y269D01*
X0Y268D02*
X7Y268D01*
X1416Y268D02*
X1421Y268D01*
X2629Y268D02*
X2636Y268D01*
X0Y267D02*
X7Y267D01*
X1416Y267D02*
X1421Y267D01*
X2629Y267D02*
X2636Y267D01*
X0Y266D02*
X7Y266D01*
X1416Y266D02*
X1420Y266D01*
X2629Y266D02*
X2636Y266D01*
X0Y265D02*
X7Y265D01*
X1416Y265D02*
X1419Y265D01*
X2629Y265D02*
X2636Y265D01*
X0Y264D02*
X7Y264D01*
X2629Y264D02*
X2636Y264D01*
X0Y263D02*
X7Y263D01*
X2629Y263D02*
X2636Y263D01*
X0Y262D02*
X7Y262D01*
X2629Y262D02*
X2636Y262D01*
X0Y261D02*
X7Y261D01*
X2629Y261D02*
X2636Y261D01*
X0Y260D02*
X7Y260D01*
X2629Y260D02*
X2636Y260D01*
X0Y259D02*
X7Y259D01*
X2629Y259D02*
X2636Y259D01*
X0Y258D02*
X7Y258D01*
X2629Y258D02*
X2636Y258D01*
X0Y257D02*
X7Y257D01*
X2629Y257D02*
X2636Y257D01*
X0Y256D02*
X7Y256D01*
X2629Y256D02*
X2636Y256D01*
X0Y255D02*
X7Y255D01*
X2629Y255D02*
X2636Y255D01*
X0Y254D02*
X7Y254D01*
X2629Y254D02*
X2636Y254D01*
X0Y253D02*
X7Y253D01*
X2629Y253D02*
X2636Y253D01*
X0Y252D02*
X7Y252D01*
X2629Y252D02*
X2636Y252D01*
X0Y251D02*
X7Y251D01*
X2629Y251D02*
X2636Y251D01*
X0Y250D02*
X7Y250D01*
X2629Y250D02*
X2636Y250D01*
X0Y249D02*
X7Y249D01*
X2629Y249D02*
X2636Y249D01*
X0Y248D02*
X7Y248D01*
X2629Y248D02*
X2636Y248D01*
X0Y247D02*
X7Y247D01*
X2629Y247D02*
X2636Y247D01*
X0Y246D02*
X7Y246D01*
X2629Y246D02*
X2636Y246D01*
X0Y245D02*
X7Y245D01*
X1414Y245D02*
X1420Y245D01*
X2629Y245D02*
X2636Y245D01*
X0Y244D02*
X7Y244D01*
X1413Y244D02*
X1421Y244D01*
X2629Y244D02*
X2636Y244D01*
X0Y243D02*
X7Y243D01*
X1413Y243D02*
X1421Y243D01*
X2629Y243D02*
X2636Y243D01*
X0Y242D02*
X7Y242D01*
X1413Y242D02*
X1421Y242D01*
X2629Y242D02*
X2636Y242D01*
X0Y241D02*
X7Y241D01*
X1413Y241D02*
X1421Y241D01*
X2629Y241D02*
X2636Y241D01*
X0Y240D02*
X7Y240D01*
X1413Y240D02*
X1421Y240D01*
X2629Y240D02*
X2636Y240D01*
X0Y239D02*
X7Y239D01*
X1415Y239D02*
X1421Y239D01*
X2629Y239D02*
X2636Y239D01*
X0Y238D02*
X7Y238D01*
X1415Y238D02*
X1421Y238D01*
X2629Y238D02*
X2636Y238D01*
X0Y237D02*
X7Y237D01*
X1415Y237D02*
X1421Y237D01*
X2629Y237D02*
X2636Y237D01*
X0Y236D02*
X7Y236D01*
X1415Y236D02*
X1421Y236D01*
X2629Y236D02*
X2636Y236D01*
X0Y235D02*
X7Y235D01*
X1415Y235D02*
X1421Y235D01*
X2629Y235D02*
X2636Y235D01*
X0Y234D02*
X7Y234D01*
X1415Y234D02*
X1421Y234D01*
X2629Y234D02*
X2636Y234D01*
X0Y233D02*
X7Y233D01*
X1415Y233D02*
X1421Y233D01*
X2629Y233D02*
X2636Y233D01*
X0Y232D02*
X7Y232D01*
X1386Y232D02*
X1389Y232D01*
X1415Y232D02*
X1421Y232D01*
X2629Y232D02*
X2636Y232D01*
X0Y231D02*
X7Y231D01*
X1383Y231D02*
X1391Y231D01*
X1415Y231D02*
X1421Y231D01*
X2629Y231D02*
X2636Y231D01*
X0Y230D02*
X7Y230D01*
X1377Y230D02*
X1392Y230D01*
X1415Y230D02*
X1421Y230D01*
X2629Y230D02*
X2636Y230D01*
X0Y229D02*
X7Y229D01*
X1368Y229D02*
X1393Y229D01*
X1415Y229D02*
X1421Y229D01*
X2629Y229D02*
X2636Y229D01*
X0Y228D02*
X7Y228D01*
X1368Y228D02*
X1394Y228D01*
X1415Y228D02*
X1421Y228D01*
X2629Y228D02*
X2636Y228D01*
X0Y227D02*
X7Y227D01*
X1369Y227D02*
X1394Y227D01*
X1415Y227D02*
X1421Y227D01*
X2629Y227D02*
X2636Y227D01*
X0Y226D02*
X7Y226D01*
X1370Y226D02*
X1395Y226D01*
X1415Y226D02*
X1421Y226D01*
X2629Y226D02*
X2636Y226D01*
X0Y225D02*
X7Y225D01*
X1388Y225D02*
X1396Y225D01*
X1415Y225D02*
X1421Y225D01*
X2629Y225D02*
X2636Y225D01*
X0Y224D02*
X7Y224D01*
X1389Y224D02*
X1397Y224D01*
X1415Y224D02*
X1421Y224D01*
X2629Y224D02*
X2636Y224D01*
X0Y223D02*
X7Y223D01*
X1390Y223D02*
X1398Y223D01*
X1415Y223D02*
X1421Y223D01*
X2629Y223D02*
X2636Y223D01*
X0Y222D02*
X7Y222D01*
X1390Y222D02*
X1399Y222D01*
X1415Y222D02*
X1421Y222D01*
X2629Y222D02*
X2636Y222D01*
X0Y221D02*
X7Y221D01*
X1391Y221D02*
X1400Y221D01*
X1415Y221D02*
X1421Y221D01*
X2629Y221D02*
X2636Y221D01*
X0Y220D02*
X7Y220D01*
X1392Y220D02*
X1400Y220D01*
X1415Y220D02*
X1421Y220D01*
X2629Y220D02*
X2636Y220D01*
X0Y219D02*
X7Y219D01*
X1393Y219D02*
X1401Y219D01*
X1415Y219D02*
X1421Y219D01*
X2629Y219D02*
X2636Y219D01*
X0Y218D02*
X7Y218D01*
X1394Y218D02*
X1421Y218D01*
X2629Y218D02*
X2636Y218D01*
X0Y217D02*
X7Y217D01*
X1395Y217D02*
X1421Y217D01*
X2629Y217D02*
X2636Y217D01*
X0Y216D02*
X7Y216D01*
X1396Y216D02*
X1421Y216D01*
X2629Y216D02*
X2636Y216D01*
X0Y215D02*
X7Y215D01*
X1396Y215D02*
X1421Y215D01*
X2629Y215D02*
X2636Y215D01*
X0Y214D02*
X7Y214D01*
X1397Y214D02*
X1421Y214D01*
X2629Y214D02*
X2636Y214D01*
X0Y213D02*
X7Y213D01*
X1398Y213D02*
X1421Y213D01*
X2629Y213D02*
X2636Y213D01*
X0Y212D02*
X7Y212D01*
X1399Y212D02*
X1421Y212D01*
X2629Y212D02*
X2636Y212D01*
X0Y211D02*
X7Y211D01*
X2629Y211D02*
X2636Y211D01*
X0Y210D02*
X7Y210D01*
X2629Y210D02*
X2636Y210D01*
X0Y209D02*
X7Y209D01*
X2629Y209D02*
X2636Y209D01*
X0Y208D02*
X7Y208D01*
X2629Y208D02*
X2636Y208D01*
X0Y207D02*
X7Y207D01*
X2629Y207D02*
X2636Y207D01*
X0Y206D02*
X7Y206D01*
X2629Y206D02*
X2636Y206D01*
X0Y205D02*
X7Y205D01*
X2629Y205D02*
X2636Y205D01*
X0Y204D02*
X7Y204D01*
X2629Y204D02*
X2636Y204D01*
X0Y203D02*
X7Y203D01*
X2629Y203D02*
X2636Y203D01*
X0Y202D02*
X7Y202D01*
X2629Y202D02*
X2636Y202D01*
X0Y201D02*
X7Y201D01*
X2629Y201D02*
X2636Y201D01*
X0Y200D02*
X7Y200D01*
X2629Y200D02*
X2636Y200D01*
X0Y199D02*
X7Y199D01*
X2629Y199D02*
X2636Y199D01*
X0Y198D02*
X7Y198D01*
X2629Y198D02*
X2636Y198D01*
X0Y197D02*
X7Y197D01*
X2629Y197D02*
X2636Y197D01*
X0Y196D02*
X7Y196D01*
X2629Y196D02*
X2636Y196D01*
X0Y195D02*
X7Y195D01*
X2629Y195D02*
X2636Y195D01*
X0Y194D02*
X7Y194D01*
X2629Y194D02*
X2636Y194D01*
X0Y193D02*
X7Y193D01*
X2629Y193D02*
X2636Y193D01*
X0Y192D02*
X7Y192D01*
X2629Y192D02*
X2636Y192D01*
X0Y191D02*
X7Y191D01*
X2629Y191D02*
X2636Y191D01*
X0Y190D02*
X7Y190D01*
X2629Y190D02*
X2636Y190D01*
X0Y189D02*
X7Y189D01*
X2629Y189D02*
X2636Y189D01*
X0Y188D02*
X7Y188D01*
X2629Y188D02*
X2636Y188D01*
X0Y187D02*
X7Y187D01*
X2629Y187D02*
X2636Y187D01*
X0Y186D02*
X7Y186D01*
X2629Y186D02*
X2636Y186D01*
X0Y185D02*
X7Y185D01*
X2629Y185D02*
X2636Y185D01*
X0Y184D02*
X7Y184D01*
X2629Y184D02*
X2636Y184D01*
X0Y183D02*
X7Y183D01*
X2629Y183D02*
X2636Y183D01*
X0Y182D02*
X7Y182D01*
X2629Y182D02*
X2636Y182D01*
X0Y181D02*
X7Y181D01*
X2629Y181D02*
X2636Y181D01*
X0Y180D02*
X7Y180D01*
X2629Y180D02*
X2636Y180D01*
X0Y179D02*
X7Y179D01*
X2629Y179D02*
X2636Y179D01*
X0Y178D02*
X7Y178D01*
X2629Y178D02*
X2636Y178D01*
X0Y177D02*
X7Y177D01*
X2629Y177D02*
X2636Y177D01*
X0Y176D02*
X7Y176D01*
X2629Y176D02*
X2636Y176D01*
X0Y175D02*
X7Y175D01*
X2629Y175D02*
X2636Y175D01*
X0Y174D02*
X7Y174D01*
X2629Y174D02*
X2636Y174D01*
X0Y173D02*
X7Y173D01*
X2629Y173D02*
X2636Y173D01*
X0Y172D02*
X7Y172D01*
X2629Y172D02*
X2636Y172D01*
X0Y171D02*
X7Y171D01*
X2629Y171D02*
X2636Y171D01*
X0Y170D02*
X7Y170D01*
X2629Y170D02*
X2636Y170D01*
X0Y169D02*
X7Y169D01*
X2629Y169D02*
X2636Y169D01*
X0Y168D02*
X7Y168D01*
X2629Y168D02*
X2636Y168D01*
X0Y167D02*
X7Y167D01*
X2629Y167D02*
X2636Y167D01*
X0Y166D02*
X7Y166D01*
X2629Y166D02*
X2636Y166D01*
X0Y165D02*
X7Y165D01*
X2629Y165D02*
X2636Y165D01*
X0Y164D02*
X7Y164D01*
X2629Y164D02*
X2636Y164D01*
X0Y163D02*
X7Y163D01*
X2629Y163D02*
X2636Y163D01*
X0Y162D02*
X7Y162D01*
X2629Y162D02*
X2636Y162D01*
X0Y161D02*
X7Y161D01*
X2629Y161D02*
X2636Y161D01*
X0Y160D02*
X7Y160D01*
X2629Y160D02*
X2636Y160D01*
X0Y159D02*
X7Y159D01*
X2629Y159D02*
X2636Y159D01*
X0Y158D02*
X7Y158D01*
X2629Y158D02*
X2636Y158D01*
X0Y157D02*
X7Y157D01*
X2629Y157D02*
X2636Y157D01*
X0Y156D02*
X7Y156D01*
X2629Y156D02*
X2636Y156D01*
X0Y155D02*
X7Y155D01*
X2629Y155D02*
X2636Y155D01*
X0Y154D02*
X7Y154D01*
X2629Y154D02*
X2636Y154D01*
X0Y153D02*
X7Y153D01*
X2629Y153D02*
X2636Y153D01*
X0Y152D02*
X7Y152D01*
X2629Y152D02*
X2636Y152D01*
X0Y151D02*
X7Y151D01*
X2629Y151D02*
X2636Y151D01*
X0Y150D02*
X7Y150D01*
X2629Y150D02*
X2636Y150D01*
X0Y149D02*
X7Y149D01*
X2629Y149D02*
X2636Y149D01*
X0Y148D02*
X7Y148D01*
X2629Y148D02*
X2636Y148D01*
X0Y147D02*
X7Y147D01*
X2629Y147D02*
X2636Y147D01*
X0Y146D02*
X7Y146D01*
X2629Y146D02*
X2636Y146D01*
X0Y145D02*
X7Y145D01*
X2629Y145D02*
X2636Y145D01*
X0Y144D02*
X7Y144D01*
X2629Y144D02*
X2636Y144D01*
X0Y143D02*
X7Y143D01*
X2629Y143D02*
X2636Y143D01*
X0Y142D02*
X7Y142D01*
X2629Y142D02*
X2636Y142D01*
X0Y141D02*
X7Y141D01*
X2629Y141D02*
X2636Y141D01*
X0Y140D02*
X7Y140D01*
X2629Y140D02*
X2636Y140D01*
X0Y139D02*
X7Y139D01*
X2629Y139D02*
X2636Y139D01*
X0Y138D02*
X7Y138D01*
X2629Y138D02*
X2636Y138D01*
X0Y137D02*
X7Y137D01*
X2629Y137D02*
X2636Y137D01*
X0Y136D02*
X7Y136D01*
X2629Y136D02*
X2636Y136D01*
X0Y135D02*
X7Y135D01*
X2629Y135D02*
X2636Y135D01*
X0Y134D02*
X7Y134D01*
X2629Y134D02*
X2636Y134D01*
X0Y133D02*
X7Y133D01*
X2629Y133D02*
X2636Y133D01*
X0Y132D02*
X7Y132D01*
X2629Y132D02*
X2636Y132D01*
X0Y131D02*
X7Y131D01*
X2629Y131D02*
X2636Y131D01*
X0Y130D02*
X7Y130D01*
X2629Y130D02*
X2636Y130D01*
X0Y129D02*
X7Y129D01*
X2629Y129D02*
X2636Y129D01*
X0Y128D02*
X7Y128D01*
X2629Y128D02*
X2636Y128D01*
X0Y127D02*
X7Y127D01*
X2629Y127D02*
X2636Y127D01*
X0Y126D02*
X7Y126D01*
X2629Y126D02*
X2636Y126D01*
X0Y125D02*
X7Y125D01*
X2629Y125D02*
X2636Y125D01*
X0Y124D02*
X7Y124D01*
X2629Y124D02*
X2636Y124D01*
X0Y123D02*
X7Y123D01*
X2629Y123D02*
X2636Y123D01*
X0Y122D02*
X7Y122D01*
X2629Y122D02*
X2636Y122D01*
X0Y121D02*
X7Y121D01*
X2629Y121D02*
X2636Y121D01*
X0Y120D02*
X7Y120D01*
X2629Y120D02*
X2636Y120D01*
X0Y119D02*
X7Y119D01*
X2629Y119D02*
X2636Y119D01*
X0Y118D02*
X7Y118D01*
X2629Y118D02*
X2636Y118D01*
X0Y117D02*
X7Y117D01*
X2629Y117D02*
X2636Y117D01*
X0Y116D02*
X7Y116D01*
X2629Y116D02*
X2636Y116D01*
X0Y115D02*
X7Y115D01*
X2629Y115D02*
X2636Y115D01*
X0Y114D02*
X7Y114D01*
X2629Y114D02*
X2636Y114D01*
X0Y113D02*
X7Y113D01*
X2629Y113D02*
X2636Y113D01*
X0Y112D02*
X7Y112D01*
X2629Y112D02*
X2636Y112D01*
X0Y111D02*
X7Y111D01*
X2629Y111D02*
X2636Y111D01*
X0Y110D02*
X7Y110D01*
X2629Y110D02*
X2636Y110D01*
X0Y109D02*
X7Y109D01*
X2629Y109D02*
X2636Y109D01*
X0Y108D02*
X7Y108D01*
X2629Y108D02*
X2636Y108D01*
X0Y107D02*
X7Y107D01*
X2629Y107D02*
X2636Y107D01*
X0Y106D02*
X7Y106D01*
X2629Y106D02*
X2636Y106D01*
X0Y105D02*
X7Y105D01*
X2629Y105D02*
X2636Y105D01*
X0Y104D02*
X7Y104D01*
X2629Y104D02*
X2636Y104D01*
X0Y103D02*
X7Y103D01*
X2629Y103D02*
X2636Y103D01*
X0Y102D02*
X7Y102D01*
X2629Y102D02*
X2636Y102D01*
X0Y101D02*
X7Y101D01*
X2629Y101D02*
X2636Y101D01*
X0Y100D02*
X7Y100D01*
X2629Y100D02*
X2636Y100D01*
X0Y99D02*
X7Y99D01*
X2629Y99D02*
X2636Y99D01*
X0Y98D02*
X7Y98D01*
X2629Y98D02*
X2636Y98D01*
X0Y97D02*
X7Y97D01*
X2629Y97D02*
X2636Y97D01*
X0Y96D02*
X7Y96D01*
X2629Y96D02*
X2636Y96D01*
X0Y95D02*
X7Y95D01*
X2629Y95D02*
X2636Y95D01*
X0Y94D02*
X7Y94D01*
X2629Y94D02*
X2636Y94D01*
X0Y93D02*
X7Y93D01*
X2629Y93D02*
X2636Y93D01*
X0Y92D02*
X7Y92D01*
X2629Y92D02*
X2636Y92D01*
X0Y91D02*
X7Y91D01*
X2629Y91D02*
X2636Y91D01*
X0Y90D02*
X7Y90D01*
X2629Y90D02*
X2636Y90D01*
X0Y89D02*
X7Y89D01*
X2629Y89D02*
X2636Y89D01*
X0Y88D02*
X7Y88D01*
X2629Y88D02*
X2636Y88D01*
X0Y87D02*
X7Y87D01*
X2629Y87D02*
X2636Y87D01*
X0Y86D02*
X7Y86D01*
X2629Y86D02*
X2636Y86D01*
X0Y85D02*
X7Y85D01*
X2629Y85D02*
X2636Y85D01*
X0Y84D02*
X7Y84D01*
X2629Y84D02*
X2636Y84D01*
X0Y83D02*
X7Y83D01*
X2629Y83D02*
X2636Y83D01*
X0Y82D02*
X7Y82D01*
X2629Y82D02*
X2636Y82D01*
X0Y81D02*
X7Y81D01*
X2629Y81D02*
X2636Y81D01*
X0Y80D02*
X7Y80D01*
X2629Y80D02*
X2636Y80D01*
X0Y79D02*
X7Y79D01*
X2629Y79D02*
X2636Y79D01*
X0Y78D02*
X7Y78D01*
X2629Y78D02*
X2636Y78D01*
X0Y77D02*
X7Y77D01*
X2629Y77D02*
X2636Y77D01*
X0Y76D02*
X7Y76D01*
X2629Y76D02*
X2636Y76D01*
X0Y75D02*
X7Y75D01*
X2629Y75D02*
X2636Y75D01*
X0Y74D02*
X7Y74D01*
X2629Y74D02*
X2636Y74D01*
X0Y73D02*
X7Y73D01*
X2629Y73D02*
X2636Y73D01*
X0Y72D02*
X7Y72D01*
X2629Y72D02*
X2636Y72D01*
X0Y71D02*
X7Y71D01*
X2629Y71D02*
X2636Y71D01*
X0Y70D02*
X7Y70D01*
X2629Y70D02*
X2636Y70D01*
X0Y69D02*
X7Y69D01*
X2629Y69D02*
X2636Y69D01*
X0Y68D02*
X7Y68D01*
X2629Y68D02*
X2636Y68D01*
X0Y67D02*
X7Y67D01*
X2629Y67D02*
X2636Y67D01*
X0Y66D02*
X7Y66D01*
X2629Y66D02*
X2636Y66D01*
X0Y65D02*
X7Y65D01*
X2629Y65D02*
X2636Y65D01*
X0Y64D02*
X7Y64D01*
X2629Y64D02*
X2636Y64D01*
X0Y63D02*
X7Y63D01*
X2629Y63D02*
X2636Y63D01*
X0Y62D02*
X7Y62D01*
X2629Y62D02*
X2636Y62D01*
X0Y61D02*
X7Y61D01*
X2629Y61D02*
X2636Y61D01*
X0Y60D02*
X7Y60D01*
X2629Y60D02*
X2636Y60D01*
X0Y59D02*
X7Y59D01*
X2629Y59D02*
X2636Y59D01*
X0Y58D02*
X7Y58D01*
X2629Y58D02*
X2636Y58D01*
X0Y57D02*
X7Y57D01*
X2629Y57D02*
X2636Y57D01*
X0Y56D02*
X7Y56D01*
X2629Y56D02*
X2636Y56D01*
X0Y55D02*
X7Y55D01*
X2629Y55D02*
X2636Y55D01*
X0Y54D02*
X7Y54D01*
X2629Y54D02*
X2636Y54D01*
X0Y53D02*
X7Y53D01*
X2629Y53D02*
X2636Y53D01*
X0Y52D02*
X7Y52D01*
X2629Y52D02*
X2636Y52D01*
X0Y51D02*
X7Y51D01*
X2629Y51D02*
X2636Y51D01*
X0Y50D02*
X7Y50D01*
X2629Y50D02*
X2636Y50D01*
X0Y49D02*
X7Y49D01*
X2629Y49D02*
X2636Y49D01*
X0Y48D02*
X7Y48D01*
X2629Y48D02*
X2636Y48D01*
X0Y47D02*
X7Y47D01*
X2629Y47D02*
X2636Y47D01*
X0Y46D02*
X7Y46D01*
X2629Y46D02*
X2636Y46D01*
X0Y45D02*
X7Y45D01*
X2629Y45D02*
X2636Y45D01*
X0Y44D02*
X7Y44D01*
X2629Y44D02*
X2636Y44D01*
X0Y43D02*
X7Y43D01*
X2629Y43D02*
X2636Y43D01*
X0Y42D02*
X7Y42D01*
X2629Y42D02*
X2636Y42D01*
X0Y41D02*
X7Y41D01*
X2629Y41D02*
X2636Y41D01*
X0Y40D02*
X7Y40D01*
X2629Y40D02*
X2636Y40D01*
X0Y39D02*
X7Y39D01*
X2629Y39D02*
X2636Y39D01*
X0Y38D02*
X7Y38D01*
X2629Y38D02*
X2636Y38D01*
X0Y37D02*
X7Y37D01*
X2629Y37D02*
X2636Y37D01*
X0Y36D02*
X7Y36D01*
X2629Y36D02*
X2636Y36D01*
X0Y35D02*
X7Y35D01*
X2629Y35D02*
X2636Y35D01*
X0Y34D02*
X7Y34D01*
X2629Y34D02*
X2636Y34D01*
X0Y33D02*
X7Y33D01*
X2629Y33D02*
X2636Y33D01*
X0Y32D02*
X7Y32D01*
X2629Y32D02*
X2636Y32D01*
X0Y31D02*
X7Y31D01*
X2629Y31D02*
X2636Y31D01*
X0Y30D02*
X7Y30D01*
X2629Y30D02*
X2636Y30D01*
X0Y29D02*
X7Y29D01*
X2629Y29D02*
X2636Y29D01*
X0Y28D02*
X7Y28D01*
X2629Y28D02*
X2636Y28D01*
X0Y27D02*
X7Y27D01*
X2629Y27D02*
X2636Y27D01*
X0Y26D02*
X7Y26D01*
X2629Y26D02*
X2636Y26D01*
X0Y25D02*
X7Y25D01*
X2629Y25D02*
X2636Y25D01*
X0Y24D02*
X7Y24D01*
X2629Y24D02*
X2636Y24D01*
X0Y23D02*
X7Y23D01*
X2629Y23D02*
X2636Y23D01*
X0Y22D02*
X7Y22D01*
X2629Y22D02*
X2636Y22D01*
X0Y21D02*
X7Y21D01*
X2629Y21D02*
X2636Y21D01*
X0Y20D02*
X7Y20D01*
X2629Y20D02*
X2636Y20D01*
X0Y19D02*
X7Y19D01*
X2629Y19D02*
X2636Y19D01*
X0Y18D02*
X7Y18D01*
X2629Y18D02*
X2636Y18D01*
X0Y17D02*
X7Y17D01*
X2629Y17D02*
X2636Y17D01*
X0Y16D02*
X7Y16D01*
X2629Y16D02*
X2636Y16D01*
X0Y15D02*
X7Y15D01*
X2629Y15D02*
X2636Y15D01*
X0Y14D02*
X7Y14D01*
X2629Y14D02*
X2636Y14D01*
X0Y13D02*
X7Y13D01*
X2629Y13D02*
X2636Y13D01*
X0Y12D02*
X7Y12D01*
X2629Y12D02*
X2636Y12D01*
X0Y11D02*
X7Y11D01*
X2629Y11D02*
X2636Y11D01*
X0Y10D02*
X7Y10D01*
X2629Y10D02*
X2636Y10D01*
X0Y9D02*
X2636Y9D01*
X0Y8D02*
X2636Y8D01*
X0Y7D02*
X2636Y7D01*
X0Y6D02*
X2636Y6D01*
X0Y5D02*
X2636Y5D01*
X0Y4D02*
X2636Y4D01*
X0Y3D02*
X2636Y3D01*
X0Y2D02*
X2636Y2D01*
D02*
G04 End of Silk1*
M02*